{
.appVersion = "3151";
classes = (
{
automatic = 1;
code = "A Aacute Abreve Abreveacute Abrevedotbelow Abrevegrave Abrevehookabove Abrevetilde Acircumflex Acircumflexacute Acircumflexdotbelow Acircumflexgrave Acircumflexhookabove Acircumflextilde Adblgrave Adieresis Adotbelow Agrave Ahookabove Ainvertedbreve Amacron Aogonek Aring Aringacute Atilde AE AEacute B C Cacute Ccaron Ccedilla Ccircumflex Cdotaccent D DZ DZcaron Eth Dcaron Dcroat Dzcaron E Eacute Ebreve Ecaron Ecircumflex Ecircumflexacute Ecircumflexdotbelow Ecircumflexgrave Ecircumflexhookabove Ecircumflextilde Edblgrave Edieresis Edotaccent Edotbelow Egrave Ehookabove Einvertedbreve Emacron Eogonek Etilde Schwa F G Gbreve Gcaron Gcircumflex Gcommaaccent Gdotaccent H Hbar Hcircumflex I IJ Iacute Ibreve Icircumflex Idblgrave Idieresis Idotaccent Idotbelow Igrave Ihookabove Iinvertedbreve Imacron Iogonek Itilde J Jacute Jcircumflex K Kcommaaccent L LJ Lacute Lcaron Lcommaaccent Ldot Lj Lslash M N NJ Nacute Ncaron Ncommaaccent Nj Ntilde Eng O Oacute Obreve Ocircumflex Ocircumflexacute Ocircumflexdotbelow Ocircumflexgrave Ocircumflexhookabove Ocircumflextilde Odblgrave Odieresis Odieresismacron Odotaccentmacron Odotbelow Ograve Ohookabove Ohorn Ohornacute Ohorndotbelow Ohorngrave Ohornhookabove Ohorntilde Ohungarumlaut Oinvertedbreve Omacron Oogonek Oslash Oslashacute Otilde Otildemacron OE P Thorn Q R Racute Rcaron Rcommaaccent Rdblgrave Rinvertedbreve S Sacute Scaron Scedilla Scircumflex Scommaaccent Germandbls T Tbar Tcaron Tcedilla Tcommaaccent U Uacute Ubreve Ucircumflex Udblgrave Udieresis Udotbelow Ugrave Uhookabove Uhorn Uhornacute Uhorndotbelow Uhorngrave Uhornhookabove Uhorntilde Uhungarumlaut Uinvertedbreve Umacron Uogonek Uring Utilde V W Wacute Wcircumflex Wdieresis Wgrave X Y Yacute Ycircumflex Ydieresis Ydotbelow Ygrave Yhookabove Ymacron Ytilde Z Zacute Zcaron Zdotaccent D.ss02";
name = Uppercase;
}
);

glyphs = (
{
glyphname = A;
lastChange = "2023-08-11 09:49:00 +0000";
layers = (
{
anchors = (
{
name = bottom;
position = "{322, 0}";
},
{
name = ogonek;
position = "{636, 0}";
},
{
name = top;
position = "{323, 700}";
}
);
layerId = "993DDA7B-BC4C-4F4B-ACF9-716C764D536A";
paths = (
{
closed = 1;
nodes = (
"106 0 LINE",
"130 80 LINE",
"310 574 LINE",
"319 638 LINE",
"327 638 LINE",
"336 574 LINE",
"516 80 LINE",
"540 0 LINE",
"636 0 LINE",
"371 700 LINE",
"275 700 LINE",
"10 0 LINE"
);
},
{
closed = 1;
nodes = (
"512 202 LINE",
"512 280 LINE",
"132 280 LINE",
"132 202 LINE"
);
}
);
userData = {
com.hugojourdan.ColorFlow = {
"0" = 0;
"1" = 0;
"10" = 0;
"11" = 0;
"2" = 0;
"3" = 0;
"4" = 0;
"5" = 0;
"6" = 0;
"7" = 0;
"8" = 0;
"9" = 0;
};
};
width = 646;
},
{
anchors = (
{
name = bottom;
position = "{322, 0}";
},
{
name = ogonek;
position = "{636, 0}";
},
{
name = top;
position = "{323, 700}";
}
);
layerId = "C7F1792A-1FE9-4A21-B628-190BF571D00B";
paths = (
{
closed = 1;
nodes = (
"100 0 LINE",
"130 80 LINE",
"310 592 LINE",
"322 628 LINE",
"324 628 LINE",
"336 592 LINE",
"516 80 LINE",
"546 0 LINE",
"636 0 LINE",
"371 700 LINE",
"275 700 LINE",
"10 0 LINE"
);
},
{
closed = 1;
nodes = (
"514 202 LINE",
"514 280 LINE",
"134 280 LINE",
"134 202 LINE"
);
}
);
userData = {
com.hugojourdan.ColorFlow = {
"0" = 0;
"1" = 0;
"10" = 0;
"11" = 0;
"2" = 0;
"3" = 0;
"4" = 0;
"5" = 0;
"6" = 0;
"7" = 0;
"8" = 0;
"9" = 0;
};
};
width = 646;
},
{
anchors = (
{
name = bottom;
position = "{344, 0}";
},
{
name = ogonek;
position = "{680, 0}";
},
{
name = top;
position = "{345, 700}";
}
);
layerId = m003;
paths = (
{
closed = 1;
nodes = (
"157 0 LINE",
"185 80 LINE",
"330 546 LINE",
"344 598 LINE",
"346 598 LINE",
"360 546 LINE",
"505 80 LINE",
"533 0 LINE",
"680 0 LINE",
"436 700 LINE",
"254 700 LINE",
"10 0 LINE"
);
},
{
closed = 1;
nodes = (
"550 160 LINE",
"550 280 LINE",
"140 280 LINE",
"140 160 LINE"
);
}
);
userData = {
com.hugojourdan.ColorFlow = {
"0" = 0;
"1" = 0;
"10" = 0;
"11" = 0;
"2" = 0;
"3" = 0;
"4" = 0;
"5" = 0;
"6" = 0;
"7" = 0;
"8" = 0;
"9" = 0;
};
};
width = 690;
},
{
anchors = (
{
name = bottom;
position = "{344, 0}";
},
{
name = ogonek;
position = "{680, 0}";
},
{
name = top;
position = "{345, 700}";
}
);
layerId = m004;
paths = (
{
closed = 1;
nodes = (
"165 0 LINE",
"185 80 LINE",
"330 536 LINE",
"340 598 LINE",
"350 598 LINE",
"360 536 LINE",
"505 80 LINE",
"525 0 LINE",
"680 0 LINE",
"436 700 LINE",
"254 700 LINE",
"10 0 LINE"
);
},
{
closed = 1;
nodes = (
"550 160 LINE",
"550 280 LINE",
"140 280 LINE",
"140 160 LINE"
);
}
);
userData = {
com.hugojourdan.ColorFlow = {
"0" = 0;
"1" = 0;
"10" = 0;
"11" = 0;
"2" = 0;
"3" = 0;
"4" = 0;
"5" = 0;
"6" = 0;
"7" = 0;
"8" = 0;
"9" = 0;
};
};
width = 690;
}
);
leftKerningGroup = KO_A;
rightKerningGroup = KO_A;
unicode = 0041;
userData = {
KernOnName = A;
};
},
{
glyphname = AE;
lastChange = "2023-07-23 15:43:28 +0000";
layers = (
{
layerId = "993DDA7B-BC4C-4F4B-ACF9-716C764D536A";
paths = (
{
closed = 1;
nodes = (
"117 0 LINE",
"159 80 LINE",
"209 165 LINE",
"474 165 LINE",
"474 80 LINE",
"464 0 LINE",
"887 0 LINE",
"887 88 LINE",
"827 78 LINE",
"559 78 LINE",
"559 324 LINE",
"768 324 LINE",
"834 316 LINE",
"834 400 LINE",
"559 400 LINE",
"559 622 LINE",
"822 622 LINE",
"882 612 LINE",
"882 700 LINE",
"439 700 LINE",
"10 0 LINE"
);
},
{
closed = 1;
nodes = (
"457 572 LINE",
"466 626 LINE",
"474 626 LINE",
"474 240 LINE",
"257 240 LINE"
);
}
);
userData = {
com.hugojourdan.ColorFlow = {
"0" = 0;
"1" = 0;
"10" = 0;
"11" = 0;
"2" = 0;
"3" = 0;
"4" = 0;
"5" = 0;
"6" = 0;
"7" = 0;
"8" = 0;
"9" = 0;
};
};
width = 955;
},
{
layerId = "C7F1792A-1FE9-4A21-B628-190BF571D00B";
paths = (
{
closed = 1;
nodes = (
"114 0 LINE",
"159 80 LINE",
"209 165 LINE",
"474 165 LINE",
"474 80 LINE",
"474 0 LINE",
"887 0 LINE",
"887 78 LINE",
"827 78 LINE",
"559 78 LINE",
"559 324 LINE",
"763 324 LINE",
"829 324 LINE",
"829 400 LINE",
"559 400 LINE",
"559 622 LINE",
"822 622 LINE",
"882 622 LINE",
"882 700 LINE",
"439 700 LINE",
"10 0 LINE"
);
},
{
closed = 1;
nodes = (
"457 572 LINE",
"472 606 LINE",
"474 606 LINE",
"474 240 LINE",
"257 240 LINE"
);
}
);
userData = {
com.hugojourdan.ColorFlow = {
"0" = 0;
"1" = 0;
"10" = 0;
"11" = 0;
"2" = 0;
"3" = 0;
"4" = 0;
"5" = 0;
"6" = 0;
"7" = 0;
"8" = 0;
"9" = 0;
};
};
width = 955;
},
{
layerId = m003;
paths = (
{
closed = 1;
nodes = (
"176 0 LINE",
"219 80 LINE",
"253 145 LINE",
"484 145 LINE",
"484 80 LINE",
"484 0 LINE",
"910 0 LINE",
"910 118 LINE",
"850 118 LINE",
"620 118 LINE",
"620 298 LINE",
"813 298 LINE",
"879 298 LINE",
"879 414 LINE",
"620 414 LINE",
"620 582 LINE",
"850 582 LINE",
"910 582 LINE",
"910 700 LINE",
"414 700 LINE",
"10 0 LINE"
);
},
{
closed = 1;
nodes = (
"475 562 LINE",
"482 582 LINE",
"484 582 LINE",
"484 261 LINE",
"317 261 LINE"
);
}
);
userData = {
com.hugojourdan.ColorFlow = {
"0" = 0;
"1" = 0;
"10" = 0;
"11" = 0;
"2" = 0;
"3" = 0;
"4" = 0;
"5" = 0;
"6" = 0;
"7" = 0;
"8" = 0;
"9" = 0;
};
};
width = 980;
},
{
layerId = m004;
paths = (
{
closed = 1;
nodes = (
"181 0 LINE",
"219 80 LINE",
"253 145 LINE",
"484 145 LINE",
"484 80 LINE",
"474 0 LINE",
"910 0 LINE",
"910 128 LINE",
"850 118 LINE",
"620 118 LINE",
"620 298 LINE",
"813 298 LINE",
"879 290 LINE",
"879 414 LINE",
"620 414 LINE",
"620 582 LINE",
"850 582 LINE",
"910 572 LINE",
"910 700 LINE",
"414 700 LINE",
"10 0 LINE"
);
},
{
closed = 1;
nodes = (
"463 532 LINE",
"476 600 LINE",
"484 600 LINE",
"484 261 LINE",
"317 261 LINE"
);
}
);
userData = {
com.hugojourdan.ColorFlow = {
"0" = 0;
"1" = 0;
"10" = 0;
"11" = 0;
"2" = 0;
"3" = 0;
"4" = 0;
"5" = 0;
"6" = 0;
"7" = 0;
"8" = 0;
"9" = 0;
};
};
width = 980;
}
);
leftKerningGroup = KO_AE;
rightKerningGroup = KO_AE;
unicode = 00C6;
},
{
glyphname = B;
lastChange = "2023-07-23 15:43:28 +0000";
layers = (
{
layerId = "993DDA7B-BC4C-4F4B-ACF9-716C764D536A";
paths = (
{
closed = 1;
nodes = (
"371 0 LINE SMOOTH",
"504 0 OFFCURVE",
"598 57 OFFCURVE",
"598 188 CURVE SMOOTH",
"598 292 OFFCURVE",
"538 347 OFFCURVE",
"461 363 CURVE",
"461 369 LINE",
"544 397 OFFCURVE",
"571 448 OFFCURVE",
"571 515 CURVE SMOOTH",
"571 633 OFFCURVE",
"486 700 OFFCURVE",
"351 700 CURVE SMOOTH",
"90 700 LINE",
"100 620 LINE",
"100 80 LINE",
"90 0 LINE"
);
},
{
closed = 1;
nodes = (
"185 322 LINE",
"365 322 LINE SMOOTH",
"451 322 OFFCURVE",
"508 288 OFFCURVE",
"508 195 CURVE SMOOTH",
"508 102 OFFCURVE",
"450 76 OFFCURVE",
"362 76 CURVE SMOOTH",
"185 76 LINE"
);
},
{
closed = 1;
nodes = (
"185 624 LINE",
"350 624 LINE SMOOTH",
"433 624 OFFCURVE",
"483 598 OFFCURVE",
"483 517 CURVE SMOOTH",
"483 432 OFFCURVE",
"429 398 OFFCURVE",
"359 398 CURVE SMOOTH",
"185 398 LINE"
);
}
);
userData = {
com.hugojourdan.ColorFlow = {
"0" = 0;
"1" = 0;
"10" = 0;
"11" = 0;
"2" = 0;
"3" = 0;
"4" = 0;
"5" = 0;
"6" = 0;
"7" = 0;
"8" = 0;
"9" = 0;
};
};
width = 650;
},
{
layerId = "C7F1792A-1FE9-4A21-B628-190BF571D00B";
paths = (
{
closed = 1;
nodes = (
"371 0 LINE SMOOTH",
"504 0 OFFCURVE",
"598 57 OFFCURVE",
"598 188 CURVE SMOOTH",
"598 292 OFFCURVE",
"538 347 OFFCURVE",
"461 363 CURVE",
"461 369 LINE",
"544 397 OFFCURVE",
"571 448 OFFCURVE",
"571 515 CURVE SMOOTH",
"571 633 OFFCURVE",
"486 700 OFFCURVE",
"351 700 CURVE SMOOTH",
"100 700 LINE",
"100 620 LINE",
"100 80 LINE",
"100 0 LINE"
);
},
{
closed = 1;
nodes = (
"185 322 LINE",
"365 322 LINE SMOOTH",
"451 322 OFFCURVE",
"508 288 OFFCURVE",
"508 195 CURVE SMOOTH",
"508 102 OFFCURVE",
"450 76 OFFCURVE",
"362 76 CURVE SMOOTH",
"185 76 LINE"
);
},
{
closed = 1;
nodes = (
"185 624 LINE",
"350 624 LINE SMOOTH",
"433 624 OFFCURVE",
"483 598 OFFCURVE",
"483 516 CURVE SMOOTH",
"483 431 OFFCURVE",
"429 398 OFFCURVE",
"359 398 CURVE SMOOTH",
"185 398 LINE"
);
}
);
userData = {
com.hugojourdan.ColorFlow = {
"0" = 0;
"1" = 0;
"10" = 0;
"11" = 0;
"2" = 0;
"3" = 0;
"4" = 0;
"5" = 0;
"6" = 0;
"7" = 0;
"8" = 0;
"9" = 0;
};
};
width = 650;
},
{
layerId = m003;
paths = (
{
closed = 1;
nodes = (
"383 0 LINE SMOOTH",
"516 0 OFFCURVE",
"610 57 OFFCURVE",
"610 190 CURVE SMOOTH",
"610 297 OFFCURVE",
"550 349 OFFCURVE",
"473 365 CURVE",
"473 368 LINE",
"556 386 OFFCURVE",
"588 447 OFFCURVE",
"588 520 CURVE SMOOTH",
"588 639 OFFCURVE",
"503 700 OFFCURVE",
"368 700 CURVE SMOOTH",
"82 700 LINE",
"82 620 LINE",
"82 80 LINE",
"82 0 LINE"
);
},
{
closed = 1;
nodes = (
"220 296 LINE",
"321 296 LINE SMOOTH",
"425 296 OFFCURVE",
"462 273 OFFCURVE",
"462 204 CURVE SMOOTH",
"462 134 OFFCURVE",
"424 116 OFFCURVE",
"321 116 CURVE SMOOTH",
"220 116 LINE"
);
},
{
closed = 1;
nodes = (
"220 584 LINE",
"309 584 LINE SMOOTH",
"390 584 OFFCURVE",
"442 569 OFFCURVE",
"442 497 CURVE SMOOTH",
"442 425 OFFCURVE",
"390 412 OFFCURVE",
"309 412 CURVE SMOOTH",
"220 412 LINE"
);
}
);
userData = {
com.hugojourdan.ColorFlow = {
"0" = 0;
"1" = 0;
"10" = 0;
"11" = 0;
"2" = 0;
"3" = 0;
"4" = 0;
"5" = 0;
"6" = 0;
"7" = 0;
"8" = 0;
"9" = 0;
};
};
width = 660;
},
{
layerId = m004;
paths = (
{
closed = 1;
nodes = (
"383 0 LINE SMOOTH",
"516 0 OFFCURVE",
"610 57 OFFCURVE",
"610 190 CURVE SMOOTH",
"610 297 OFFCURVE",
"550 345 OFFCURVE",
"473 361 CURVE",
"473 371 LINE",
"556 389 OFFCURVE",
"588 447 OFFCURVE",
"588 520 CURVE SMOOTH",
"588 639 OFFCURVE",
"503 700 OFFCURVE",
"368 700 CURVE SMOOTH",
"72 700 LINE",
"82 620 LINE",
"82 80 LINE",
"72 0 LINE"
);
},
{
closed = 1;
nodes = (
"220 296 LINE",
"321 296 LINE SMOOTH",
"425 296 OFFCURVE",
"462 273 OFFCURVE",
"462 204 CURVE SMOOTH",
"462 134 OFFCURVE",
"424 116 OFFCURVE",
"321 116 CURVE SMOOTH",
"220 116 LINE"
);
},
{
closed = 1;
nodes = (
"220 584 LINE",
"309 584 LINE SMOOTH",
"390 584 OFFCURVE",
"442 569 OFFCURVE",
"442 497 CURVE SMOOTH",
"442 425 OFFCURVE",
"390 412 OFFCURVE",
"309 412 CURVE SMOOTH",
"220 412 LINE"
);
}
);
userData = {
com.hugojourdan.ColorFlow = {
"0" = 0;
"1" = 0;
"10" = 0;
"11" = 0;
"2" = 0;
"3" = 0;
"4" = 0;
"5" = 0;
"6" = 0;
"7" = 0;
"8" = 0;
"9" = 0;
};
};
width = 660;
}
);
leftKerningGroup = KO_H;
leftMetricsKey = H;
rightKerningGroup = KO_B;
rightMetricsKey = "=O-10";
unicode = 0042;
},
{
glyphname = C;
lastChange = "2023-08-11 09:49:00 +0000";
layers = (
{
anchors = (
{
name = bottom;
position = "{366, 0}";
},
{
name = top;
position = "{366, 700}";
}
);
layerId = "993DDA7B-BC4C-4F4B-ACF9-716C764D536A";
paths = (
{
closed = 1;
nodes = (
"449 -12 OFFCURVE",
"511 4 OFFCURVE",
"566 33 CURVE",
"566 110 LINE",
"546 120 LINE",
"493 81 OFFCURVE",
"438 66 OFFCURVE",
"376 66 CURVE SMOOTH",
"228 66 OFFCURVE",
"152 151 OFFCURVE",
"152 348 CURVE SMOOTH",
"152 562 OFFCURVE",
"242 634 OFFCURVE",
"364 634 CURVE SMOOTH",
"438 634 OFFCURVE",
"495 608 OFFCURVE",
"538 574 CURVE",
"558 584 LINE",
"558 661 LINE",
"501 694 OFFCURVE",
"436 712 OFFCURVE",
"366 712 CURVE SMOOTH",
"198 712 OFFCURVE",
"62 601 OFFCURVE",
"62 348 CURVE SMOOTH",
"62 123 OFFCURVE",
"169 -12 OFFCURVE",
"377 -12 CURVE SMOOTH"
);
}
);
userData = {
com.hugojourdan.ColorFlow = {
"0" = 0;
"1" = 0;
"10" = 0;
"11" = 0;
"2" = 0;
"3" = 0;
"4" = 0;
"5" = 0;
"6" = 0;
"7" = 0;
"8" = 0;
"9" = 0;
};
};
width = 605;
},
{
anchors = (
{
name = bottom;
position = "{366, 0}";
},
{
name = top;
position = "{366, 700}";
}
);
layerId = "C7F1792A-1FE9-4A21-B628-190BF571D00B";
paths = (
{
closed = 1;
nodes = (
"448 -12 OFFCURVE",
"511 2 OFFCURVE",
"566 31 CURVE",
"566 113 LINE",
"562 115 LINE",
"509 81 OFFCURVE",
"456 64 OFFCURVE",
"389 64 CURVE SMOOTH",
"236 64 OFFCURVE",
"152 152 OFFCURVE",
"152 348 CURVE SMOOTH",
"152 561 OFFCURVE",
"252 636 OFFCURVE",
"384 636 CURVE SMOOTH",
"458 636 OFFCURVE",
"511 612 OFFCURVE",
"554 582 CURVE",
"558 584 LINE",
"558 665 LINE",
"502 694 OFFCURVE",
"436 712 OFFCURVE",
"368 712 CURVE SMOOTH",
"200 712 OFFCURVE",
"62 601 OFFCURVE",
"62 348 CURVE SMOOTH",
"62 123 OFFCURVE",
"171 -12 OFFCURVE",
"381 -12 CURVE SMOOTH"
);
}
);
userData = {
com.hugojourdan.ColorFlow = {
"0" = 0;
"1" = 0;
"10" = 0;
"11" = 0;
"2" = 0;
"3" = 0;
"4" = 0;
"5" = 0;
"6" = 0;
"7" = 0;
"8" = 0;
"9" = 0;
};
};
width = 605;
},
{
anchors = (
{
name = bottom;
position = "{344, 0}";
},
{
name = top;
position = "{349, 700}";
}
);
layerId = m003;
paths = (
{
closed = 1;
nodes = (
"460 -12 OFFCURVE",
"523 -1 OFFCURVE",
"580 28 CURVE",
"580 148 LINE",
"576 150 LINE",
"522 125 OFFCURVE",
"462 114 OFFCURVE",
"411 114 CURVE SMOOTH",
"277 114 OFFCURVE",
"205 188 OFFCURVE",
"205 352 CURVE SMOOTH",
"205 526 OFFCURVE",
"285 587 OFFCURVE",
"409 587 CURVE SMOOTH",
"464 587 OFFCURVE",
"519 575 OFFCURVE",
"568 549 CURVE",
"572 551 LINE",
"572 670 LINE",
"513 700 OFFCURVE",
"447 712 OFFCURVE",
"384 712 CURVE SMOOTH",
"193 712 OFFCURVE",
"60 601 OFFCURVE",
"60 351 CURVE SMOOTH",
"60 129 OFFCURVE",
"165 -12 OFFCURVE",
"395 -12 CURVE SMOOTH"
);
}
);
userData = {
com.hugojourdan.ColorFlow = {
"0" = 0;
"1" = 0;
"10" = 0;
"11" = 0;
"2" = 0;
"3" = 0;
"4" = 0;
"5" = 0;
"6" = 0;
"7" = 0;
"8" = 0;
"9" = 0;
};
};
width = 620;
},
{
anchors = (
{
name = bottom;
position = "{344, 0}";
},
{
name = top;
position = "{349, 700}";
}
);
layerId = m004;
paths = (
{
closed = 1;
nodes = (
"463 -12 OFFCURVE",
"523 4 OFFCURVE",
"580 33 CURVE",
"580 148 LINE",
"556 158 LINE",
"505 128 OFFCURVE",
"453 114 OFFCURVE",
"400 114 CURVE SMOOTH",
"281 114 OFFCURVE",
"205 188 OFFCURVE",
"205 352 CURVE SMOOTH",
"205 521 OFFCURVE",
"285 587 OFFCURVE",
"397 587 CURVE SMOOTH",
"446 587 OFFCURVE",
"496 575 OFFCURVE",
"548 541 CURVE",
"572 551 LINE",
"572 665 LINE",
"513 695 OFFCURVE",
"449 712 OFFCURVE",
"378 712 CURVE SMOOTH",
"196 712 OFFCURVE",
"60 601 OFFCURVE",
"60 352 CURVE SMOOTH",
"60 129 OFFCURVE",
"167 -12 OFFCURVE",
"388 -12 CURVE SMOOTH"
);
}
);
userData = {
com.hugojourdan.ColorFlow = {
"0" = 0;
"1" = 0;
"10" = 0;
"11" = 0;
"2" = 0;
"3" = 0;
"4" = 0;
"5" = 0;
"6" = 0;
"7" = 0;
"8" = 0;
"9" = 0;
};
};
width = 620;
}
);
leftKerningGroup = KO_O;
leftMetricsKey = O;
rightKerningGroup = KO_C;
unicode = 0043;
userData = {
KernOnName = C;
};
},
{
glyphname = D;
lastChange = "2023-08-11 09:49:00 +0000";
layers = (
{
layerId = m004;
paths = (
{
closed = 1;
nodes = (
"324 0 LINE SMOOTH",
"463 0 OFFCURVE",
"655 38 OFFCURVE",
"655 345 CURVE SMOOTH",
"655 665 OFFCURVE",
"445 700 OFFCURVE",
"324 700 CURVE SMOOTH",
"72 700 LINE",
"82 620 LINE",
"82 80 LINE",
"72 0 LINE"
);
},
{
closed = 1;
nodes = (
"220 582 LINE",
"290 582 LINE SMOOTH",
"400 582 OFFCURVE",
"510 582 OFFCURVE",
"510 346 CURVE SMOOTH",
"510 128 OFFCURVE",
"418 118 OFFCURVE",
"290 118 CURVE SMOOTH",
"220 118 LINE"
);
}
);
width = 715;
},
{
layerId = "993DDA7B-BC4C-4F4B-ACF9-716C764D536A";
paths = (
{
closed = 1;
nodes = (
"302 0 LINE SMOOTH",
"471 0 OFFCURVE",
"663 38 OFFCURVE",
"663 345 CURVE SMOOTH",
"663 665 OFFCURVE",
"453 700 OFFCURVE",
"302 700 CURVE SMOOTH",
"90 700 LINE",
"100 620 LINE",
"100 80 LINE",
"90 0 LINE"
);
},
{
closed = 1;
nodes = (
"185 622 LINE",
"323 622 LINE SMOOTH",
"463 622 OFFCURVE",
"573 582 OFFCURVE",
"573 346 CURVE SMOOTH",
"573 128 OFFCURVE",
"481 78 OFFCURVE",
"323 78 CURVE SMOOTH",
"185 78 LINE"
);
}
);
width = 725;
},
{
layerId = "C7F1792A-1FE9-4A21-B628-190BF571D00B";
paths = (
{
closed = 1;
nodes = (
"312 0 LINE SMOOTH",
"470 0 OFFCURVE",
"663 40 OFFCURVE",
"663 344 CURVE SMOOTH",
"663 700 OFFCURVE",
"398 700 OFFCURVE",
"302 700 CURVE SMOOTH",
"100 700 LINE",
"100 620 LINE",
"100 80 LINE",
"100 0 LINE"
);
},
{
closed = 1;
nodes = (
"185 622 LINE",
"323 622 LINE SMOOTH",
"463 622 OFFCURVE",
"573 582 OFFCURVE",
"573 346 CURVE SMOOTH",
"573 128 OFFCURVE",
"481 78 OFFCURVE",
"323 78 CURVE SMOOTH",
"185 78 LINE"
);
}
);
width = 725;
},
{
layerId = m003;
paths = (
{
closed = 1;
nodes = (
"324 0 LINE SMOOTH",
"463 0 OFFCURVE",
"655 38 OFFCURVE",
"655 345 CURVE SMOOTH",
"655 665 OFFCURVE",
"445 700 OFFCURVE",
"324 700 CURVE SMOOTH",
"82 700 LINE",
"82 620 LINE",
"82 80 LINE",
"82 0 LINE"
);
},
{
closed = 1;
nodes = (
"220 582 LINE",
"290 582 LINE SMOOTH",
"400 582 OFFCURVE",
"510 582 OFFCURVE",
"510 346 CURVE SMOOTH",
"510 128 OFFCURVE",
"418 118 OFFCURVE",
"290 118 CURVE SMOOTH",
"220 118 LINE"
);
}
);
width = 715;
}
);
leftKerningGroup = KO_H;
leftMetricsKey = H;
rightKerningGroup = KO_O;
rightMetricsKey = O;
unicode = 0044;
userData = {
KernOnName = D;
};
},
{
glyphname = E;
lastChange = "2023-08-11 09:49:00 +0000";
layers = (
{
anchors = (
{
name = bottom;
position = "{309, 0}";
},
{
name = ogonek;
position = "{499, 0}";
},
{
name = top;
position = "{300, 700}";
},
{
name = topleft;
position = "{100, 700}";
}
);
layerId = "993DDA7B-BC4C-4F4B-ACF9-716C764D536A";
paths = (
{
closed = 1;
nodes = (
"499 0 LINE",
"499 88 LINE",
"439 78 LINE",
"185 78 LINE",
"185 319 LINE",
"408 319 LINE",
"468 311 LINE",
"468 393 LINE",
"185 393 LINE",
"185 622 LINE",
"439 622 LINE",
"499 612 LINE",
"499 700 LINE",
"90 700 LINE",
"100 620 LINE",
"100 80 LINE",
"90 0 LINE"
);
}
);
userData = {
com.hugojourdan.ColorFlow = {
"0" = 0;
"1" = 0;
"10" = 0;
"11" = 0;
"2" = 0;
"3" = 0;
"4" = 0;
"5" = 0;
"6" = 0;
"7" = 0;
"8" = 0;
"9" = 0;
};
};
width = 567;
},
{
associatedMasterId = "993DDA7B-BC4C-4F4B-ACF9-716C764D536A";
layerId = "7F2E60BF-8ECB-448C-81E2-15EBCCE67A2B";
name = "Mar 12 18, 19:07";
paths = (
{
closed = 1;
nodes = (
"197 66 LINE",
"197 587 LINE",
"101 587 LINE",
"101 66 LINE"
);
},
{
closed = 1;
nodes = (
"196 75 LINE",
"101 88 LINE",
"30 74 LINE",
"30 0 LINE",
"513 0 LINE",
"513 74 LINE"
);
},
{
closed = 1;
nodes = (
"503 650 LINE",
"30 650 LINE",
"30 576 LINE",
"101 562 LINE",
"196 576 LINE",
"503 576 LINE"
);
},
{
closed = 1;
nodes = (
"165 303 LINE",
"379 303 LINE",
"379 368 LINE",
"165 368 LINE"
);
},
{
closed = 1;
nodes = (
"336 368 LINE",
"336 303 LINE",
"350 247 LINE",
"411 247 LINE",
"411 429 LINE",
"350 429 LINE"
);
},
{
closed = 1;
nodes = (
"435 0 LINE",
"524 0 LINE",
"534 163 LINE",
"465 163 LINE"
);
},
{
closed = 1;
nodes = (
"524 507 LINE",
"514 650 LINE",
"425 650 LINE",
"455 507 LINE"
);
}
);
width = 574;
},
{
anchors = (
{
name = bottom;
position = "{309, 0}";
},
{
name = ogonek;
position = "{499, 0}";
},
{
name = top;
position = "{300, 700}";
},
{
name = topleft;
position = "{100, 700}";
}
);
layerId = "C7F1792A-1FE9-4A21-B628-190BF571D00B";
paths = (
{
closed = 1;
nodes = (
"499 0 LINE",
"499 78 LINE",
"439 78 LINE",
"185 78 LINE",
"185 319 LINE",
"408 319 LINE",
"468 319 LINE",
"468 393 LINE",
"185 393 LINE",
"185 622 LINE",
"439 622 LINE",
"499 622 LINE",
"499 700 LINE",
"100 700 LINE",
"100 620 LINE",
"100 80 LINE",
"100 0 LINE"
);
}
);
userData = {
com.hugojourdan.ColorFlow = {
"0" = 0;
"1" = 0;
"10" = 0;
"11" = 0;
"2" = 0;
"3" = 0;
"4" = 0;
"5" = 0;
"6" = 0;
"7" = 0;
"8" = 0;
"9" = 0;
};
};
width = 567;
},
{
anchors = (
{
name = bottom;
position = "{310, 0}";
},
{
name = ogonek;
position = "{518, 0}";
},
{
name = top;
position = "{300, 700}";
},
{
name = topleft;
position = "{82, 700}";
}
);
layerId = m003;
paths = (
{
closed = 1;
nodes = (
"518 0 LINE",
"518 118 LINE",
"458 118 LINE",
"218 118 LINE",
"218 297 LINE",
"427 297 LINE",
"487 297 LINE",
"487 415 LINE",
"218 415 LINE",
"218 582 LINE",
"458 582 LINE",
"518 582 LINE",
"518 700 LINE",
"82 700 LINE",
"82 620 LINE",
"82 80 LINE",
"82 0 LINE"
);
}
);
userData = {
com.hugojourdan.ColorFlow = {
"0" = 0;
"1" = 0;
"10" = 0;
"11" = 0;
"2" = 0;
"3" = 0;
"4" = 0;
"5" = 0;
"6" = 0;
"7" = 0;
"8" = 0;
"9" = 0;
};
};
width = 588;
},
{
associatedMasterId = m003;
layerId = "E6F13753-E1D9-4898-805A-FC25E40518C5";
name = "Mar 12 18, 19:07";
paths = (
{
closed = 1;
nodes = (
"197 66 LINE",
"197 587 LINE",
"101 587 LINE",
"101 66 LINE"
);
},
{
closed = 1;
nodes = (
"196 75 LINE",
"101 88 LINE",
"30 74 LINE",
"30 0 LINE",
"513 0 LINE",
"513 74 LINE"
);
},
{
closed = 1;
nodes = (
"503 650 LINE",
"30 650 LINE",
"30 576 LINE",
"101 562 LINE",
"196 576 LINE",
"503 576 LINE"
);
},
{
closed = 1;
nodes = (
"165 303 LINE",
"379 303 LINE",
"379 368 LINE",
"165 368 LINE"
);
},
{
closed = 1;
nodes = (
"336 368 LINE",
"336 303 LINE",
"350 247 LINE",
"411 247 LINE",
"411 429 LINE",
"350 429 LINE"
);
},
{
closed = 1;
nodes = (
"435 0 LINE",
"524 0 LINE",
"534 163 LINE",
"465 163 LINE"
);
},
{
closed = 1;
nodes = (
"524 507 LINE",
"514 650 LINE",
"425 650 LINE",
"455 507 LINE"
);
}
);
width = 574;
},
{
anchors = (
{
name = bottom;
position = "{310, 0}";
},
{
name = ogonek;
position = "{518, 0}";
},
{
name = top;
position = "{300, 700}";
},
{
name = topleft;
position = "{82, 700}";
}
);
layerId = m004;
paths = (
{
closed = 1;
nodes = (
"518 0 LINE",
"518 128 LINE",
"458 118 LINE",
"218 118 LINE",
"218 297 LINE",
"427 297 LINE",
"487 289 LINE",
"487 415 LINE",
"218 415 LINE",
"218 582 LINE",
"458 582 LINE",
"518 572 LINE",
"518 700 LINE",
"72 700 LINE",
"82 620 LINE",
"82 80 LINE",
"72 0 LINE"
);
}
);
userData = {
com.hugojourdan.ColorFlow = {
"0" = 0;
"1" = 0;
"10" = 0;
"11" = 0;
"2" = 0;
"3" = 0;
"4" = 0;
"5" = 0;
"6" = 0;
"7" = 0;
"8" = 0;
"9" = 0;
};
};
width = 588;
},
{
associatedMasterId = m004;
layerId = "6D62A117-0B8D-4EA6-A247-AEB62B25A1DA";
name = "Mar 12 18, 19:07";
paths = (
{
closed = 1;
nodes = (
"197 66 LINE",
"197 587 LINE",
"101 587 LINE",
"101 66 LINE"
);
},
{
closed = 1;
nodes = (
"196 75 LINE",
"101 88 LINE",
"30 74 LINE",
"30 0 LINE",
"513 0 LINE",
"513 74 LINE"
);
},
{
closed = 1;
nodes = (
"503 650 LINE",
"30 650 LINE",
"30 576 LINE",
"101 562 LINE",
"196 576 LINE",
"503 576 LINE"
);
},
{
closed = 1;
nodes = (
"165 303 LINE",
"379 303 LINE",
"379 368 LINE",
"165 368 LINE"
);
},
{
closed = 1;
nodes = (
"336 368 LINE",
"336 303 LINE",
"350 247 LINE",
"411 247 LINE",
"411 429 LINE",
"350 429 LINE"
);
},
{
closed = 1;
nodes = (
"435 0 LINE",
"524 0 LINE",
"534 163 LINE",
"465 163 LINE"
);
},
{
closed = 1;
nodes = (
"524 507 LINE",
"514 650 LINE",
"425 650 LINE",
"455 507 LINE"
);
}
);
width = 574;
}
);
leftKerningGroup = KO_H;
leftMetricsKey = H;
rightKerningGroup = KO_E;
unicode = 0045;
userData = {
KernOnName = E;
};
},
{
glyphname = Schwa;
lastChange = "2023-07-23 15:45:31 +0000";
layers = (
{
layerId = "993DDA7B-BC4C-4F4B-ACF9-716C764D536A";
paths = (
{
closed = 1;
nodes = (
"241 712 OFFCURVE",
"165 691 OFFCURVE",
"120 663 CURVE",
"120 585 LINE",
"140 574 LINE",
"170 602 OFFCURVE",
"226 636 OFFCURVE",
"322 636 CURVE SMOOTH",
"441 636 OFFCURVE",
"573 584 OFFCURVE",
"573 338 CURVE SMOOTH",
"573 168 OFFCURVE",
"503 64 OFFCURVE",
"362 64 CURVE SMOOTH",
"219 64 OFFCURVE",
"152 157 OFFCURVE",
"152 300 CURVE",
"512 300 LINE",
"605 343 LINE",
"605 378 LINE",
"69 378 LINE",
"64 355 OFFCURVE",
"62 334 OFFCURVE",
"62 308 CURVE SMOOTH",
"62 118 OFFCURVE",
"174 -12 OFFCURVE",
"355 -12 CURVE SMOOTH",
"515 -12 OFFCURVE",
"663 90 OFFCURVE",
"663 345 CURVE SMOOTH",
"663 623 OFFCURVE",
"492 712 OFFCURVE",
"322 712 CURVE SMOOTH"
);
}
);
userData = {
com.hugojourdan.ColorFlow = {
"0" = 0;
"1" = 0;
"10" = 0;
"11" = 0;
"2" = 0;
"3" = 0;
"4" = 0;
"5" = 0;
"6" = 0;
"7" = 0;
"8" = 0;
"9" = 0;
};
};
width = 725;
},
{
layerId = "C7F1792A-1FE9-4A21-B628-190BF571D00B";
paths = (
{
closed = 1;
nodes = (
"241 712 OFFCURVE",
"171 691 OFFCURVE",
"120 663 CURVE",
"120 577 LINE",
"124 575 LINE",
"162 602 OFFCURVE",
"226 636 OFFCURVE",
"322 636 CURVE SMOOTH",
"440 636 OFFCURVE",
"573 584 OFFCURVE",
"573 341 CURVE SMOOTH",
"573 168 OFFCURVE",
"505 64 OFFCURVE",
"359 64 CURVE SMOOTH",
"220 64 OFFCURVE",
"152 157 OFFCURVE",
"152 300 CURVE",
"512 300 LINE",
"605 328 LINE",
"605 378 LINE",
"69 378 LINE",
"64 355 OFFCURVE",
"62 334 OFFCURVE",
"62 308 CURVE SMOOTH",
"62 118 OFFCURVE",
"174 -12 OFFCURVE",
"355 -12 CURVE SMOOTH",
"515 -12 OFFCURVE",
"663 90 OFFCURVE",
"663 346 CURVE SMOOTH",
"663 622 OFFCURVE",
"492 712 OFFCURVE",
"323 712 CURVE SMOOTH"
);
}
);
userData = {
com.hugojourdan.ColorFlow = {
"0" = 0;
"1" = 0;
"10" = 0;
"11" = 0;
"2" = 0;
"3" = 0;
"4" = 0;
"5" = 0;
"6" = 0;
"7" = 0;
"8" = 0;
"9" = 0;
};
};
width = 725;
},
{
layerId = m003;
paths = (
{
closed = 1;
nodes = (
"229 712 OFFCURVE",
"157 691 OFFCURVE",
"104 663 CURVE",
"104 532 LINE",
"108 530 LINE",
"166 561 OFFCURVE",
"223 586 OFFCURVE",
"311 586 CURVE SMOOTH",
"393 586 OFFCURVE",
"535 564 OFFCURVE",
"535 333 CURVE SMOOTH",
"535 168 OFFCURVE",
"462 114 OFFCURVE",
"364 114 CURVE SMOOTH",
"267 114 OFFCURVE",
"205 168 OFFCURVE",
"205 280 CURVE",
"475 280 LINE",
"568 303 LINE",
"568 398 LINE",
"67 398 LINE",
"62 363 OFFCURVE",
"60 334 OFFCURVE",
"60 308 CURVE SMOOTH",
"60 118 OFFCURVE",
"172 -12 OFFCURVE",
"360 -12 CURVE SMOOTH",
"528 -12 OFFCURVE",
"681 90 OFFCURVE",
"679 345 CURVE SMOOTH",
"677 653 OFFCURVE",
"451 712 OFFCURVE",
"313 712 CURVE SMOOTH"
);
}
);
userData = {
com.hugojourdan.ColorFlow = {
"0" = 0;
"1" = 0;
"10" = 0;
"11" = 0;
"2" = 0;
"3" = 0;
"4" = 0;
"5" = 0;
"6" = 0;
"7" = 0;
"8" = 0;
"9" = 0;
};
};
width = 739;
},
{
layerId = m004;
paths = (
{
closed = 1;
nodes = (
"229 712 OFFCURVE",
"157 691 OFFCURVE",
"104 663 CURVE",
"104 540 LINE",
"128 530 LINE",
"166 561 OFFCURVE",
"223 586 OFFCURVE",
"311 586 CURVE SMOOTH",
"393 586 OFFCURVE",
"535 564 OFFCURVE",
"535 333 CURVE SMOOTH",
"535 168 OFFCURVE",
"462 114 OFFCURVE",
"364 114 CURVE SMOOTH",
"267 114 OFFCURVE",
"205 168 OFFCURVE",
"205 280 CURVE",
"475 280 LINE",
"568 323 LINE",
"568 398 LINE",
"67 398 LINE",
"62 363 OFFCURVE",
"60 334 OFFCURVE",
"60 308 CURVE SMOOTH",
"60 118 OFFCURVE",
"172 -12 OFFCURVE",
"360 -12 CURVE SMOOTH",
"528 -12 OFFCURVE",
"681 90 OFFCURVE",
"679 345 CURVE SMOOTH",
"677 653 OFFCURVE",
"451 712 OFFCURVE",
"313 712 CURVE SMOOTH"
);
}
);
userData = {
com.hugojourdan.ColorFlow = {
"0" = 0;
"1" = 0;
"10" = 0;
"11" = 0;
"2" = 0;
"3" = 0;
"4" = 0;
"5" = 0;
"6" = 0;
"7" = 0;
"8" = 0;
"9" = 0;
};
};
width = 739;
}
);
leftMetricsKey = O;
rightKerningGroup = KO_O;
rightMetricsKey = O;
unicode = 018F;
},
{
glyphname = F;
lastChange = "2023-08-11 09:49:00 +0000";
layers = (
{
layerId = "993DDA7B-BC4C-4F4B-ACF9-716C764D536A";
paths = (
{
closed = 1;
nodes = (
"196 0 LINE",
"186 80 LINE",
"186 304 LINE",
"410 304 LINE",
"470 296 LINE",
"470 382 LINE",
"186 382 LINE",
"186 622 LINE",
"430 622 LINE",
"490 612 LINE",
"490 700 LINE",
"90 700 LINE",
"100 620 LINE",
"100 80 LINE",
"90 0 LINE"
);
}
);
userData = {
com.hugojourdan.ColorFlow = {
"0" = 0;
"1" = 0;
"10" = 0;
"11" = 0;
"2" = 0;
"3" = 0;
"4" = 0;
"5" = 0;
"6" = 0;
"7" = 0;
"8" = 0;
"9" = 0;
};
};
width = 520;
},
{
associatedMasterId = "993DDA7B-BC4C-4F4B-ACF9-716C764D536A";
layerId = "FA6A5DF9-DCB5-407F-827C-88A8DAE4C274";
name = "Mar 12 18, 19:07";
paths = (
{
closed = 1;
nodes = (
"197 66 LINE",
"197 587 LINE",
"101 587 LINE",
"101 66 LINE"
);
},
{
closed = 1;
nodes = (
"503 650 LINE",
"30 650 LINE",
"30 576 LINE",
"101 562 LINE",
"196 576 LINE",
"503 576 LINE"
);
},
{
closed = 1;
nodes = (
"165 299 LINE",
"384 299 LINE",
"384 364 LINE",
"165 364 LINE"
);
},
{
closed = 1;
nodes = (
"341 364 LINE",
"341 299 LINE",
"355 243 LINE",
"416 243 LINE",
"416 425 LINE",
"355 425 LINE"
);
},
{
closed = 1;
nodes = (
"524 507 LINE",
"514 650 LINE",
"425 650 LINE",
"455 507 LINE"
);
},
{
closed = 1;
nodes = (
"197 88 LINE",
"101 88 LINE",
"30 74 LINE",
"30 0 LINE",
"274 0 LINE",
"274 74 LINE"
);
}
);
width = 549;
},
{
layerId = "C7F1792A-1FE9-4A21-B628-190BF571D00B";
paths = (
{
closed = 1;
nodes = (
"186 0 LINE",
"186 80 LINE",
"186 304 LINE",
"410 304 LINE",
"470 304 LINE",
"470 382 LINE",
"186 382 LINE",
"186 622 LINE",
"430 622 LINE",
"490 622 LINE",
"490 700 LINE",
"100 700 LINE",
"100 620 LINE",
"100 80 LINE",
"100 0 LINE"
);
}
);
userData = {
com.hugojourdan.ColorFlow = {
"0" = 0;
"1" = 0;
"10" = 0;
"11" = 0;
"2" = 0;
"3" = 0;
"4" = 0;
"5" = 0;
"6" = 0;
"7" = 0;
"8" = 0;
"9" = 0;
};
};
width = 520;
},
{
layerId = m003;
paths = (
{
closed = 1;
nodes = (
"220 0 LINE",
"220 80 LINE",
"220 270 LINE",
"428 270 LINE",
"488 270 LINE",
"488 392 LINE",
"220 392 LINE",
"220 582 LINE",
"458 582 LINE",
"518 582 LINE",
"518 700 LINE",
"82 700 LINE",
"82 620 LINE",
"82 80 LINE",
"82 0 LINE"
);
}
);
userData = {
com.hugojourdan.ColorFlow = {
"0" = 0;
"1" = 0;
"10" = 0;
"11" = 0;
"2" = 0;
"3" = 0;
"4" = 0;
"5" = 0;
"6" = 0;
"7" = 0;
"8" = 0;
"9" = 0;
};
};
width = 564;
},
{
associatedMasterId = m003;
layerId = "74348A55-944A-4C0A-AE43-86985702C2B9";
name = "Mar 12 18, 19:07";
paths = (
{
closed = 1;
nodes = (
"197 66 LINE",
"197 587 LINE",
"101 587 LINE",
"101 66 LINE"
);
},
{
closed = 1;
nodes = (
"503 650 LINE",
"30 650 LINE",
"30 576 LINE",
"101 562 LINE",
"196 576 LINE",
"503 576 LINE"
);
},
{
closed = 1;
nodes = (
"165 299 LINE",
"384 299 LINE",
"384 364 LINE",
"165 364 LINE"
);
},
{
closed = 1;
nodes = (
"341 364 LINE",
"341 299 LINE",
"355 243 LINE",
"416 243 LINE",
"416 425 LINE",
"355 425 LINE"
);
},
{
closed = 1;
nodes = (
"524 507 LINE",
"514 650 LINE",
"425 650 LINE",
"455 507 LINE"
);
},
{
closed = 1;
nodes = (
"197 88 LINE",
"101 88 LINE",
"30 74 LINE",
"30 0 LINE",
"274 0 LINE",
"274 74 LINE"
);
}
);
width = 549;
},
{
layerId = m004;
paths = (
{
closed = 1;
nodes = (
"230 0 LINE",
"220 80 LINE",
"220 270 LINE",
"428 270 LINE",
"488 262 LINE",
"488 392 LINE",
"220 392 LINE",
"220 582 LINE",
"458 582 LINE",
"518 572 LINE",
"518 700 LINE",
"72 700 LINE",
"82 620 LINE",
"82 80 LINE",
"72 0 LINE"
);
}
);
userData = {
com.hugojourdan.ColorFlow = {
"0" = 0;
"1" = 0;
"10" = 0;
"11" = 0;
"2" = 0;
"3" = 0;
"4" = 0;
"5" = 0;
"6" = 0;
"7" = 0;
"8" = 0;
"9" = 0;
};
};
width = 564;
},
{
associatedMasterId = m004;
layerId = "DC5C4C60-4C3F-485A-96A8-DEF46E9F5A88";
name = "Mar 12 18, 19:07";
paths = (
{
closed = 1;
nodes = (
"197 66 LINE",
"197 587 LINE",
"101 587 LINE",
"101 66 LINE"
);
},
{
closed = 1;
nodes = (
"503 650 LINE",
"30 650 LINE",
"30 576 LINE",
"101 562 LINE",
"196 576 LINE",
"503 576 LINE"
);
},
{
closed = 1;
nodes = (
"165 299 LINE",
"384 299 LINE",
"384 364 LINE",
"165 364 LINE"
);
},
{
closed = 1;
nodes = (
"341 364 LINE",
"341 299 LINE",
"355 243 LINE",
"416 243 LINE",
"416 425 LINE",
"355 425 LINE"
);
},
{
closed = 1;
nodes = (
"524 507 LINE",
"514 650 LINE",
"425 650 LINE",
"455 507 LINE"
);
},
{
closed = 1;
nodes = (
"197 88 LINE",
"101 88 LINE",
"30 74 LINE",
"30 0 LINE",
"274 0 LINE",
"274 74 LINE"
);
}
);
width = 549;
}
);
leftKerningGroup = KO_H;
leftMetricsKey = H;
rightKerningGroup = KO_F;
unicode = 0046;
userData = {
KernOnName = F;
};
},
{
glyphname = G;
lastChange = "2023-08-11 09:49:00 +0000";
layers = (
{
anchors = (
{
name = bottom;
position = "{389, 0}";
},
{
name = top;
position = "{389, 700}";
}
);
layerId = "993DDA7B-BC4C-4F4B-ACF9-716C764D536A";
paths = (
{
closed = 1;
nodes = (
"522 -12 OFFCURVE",
"590 5 OFFCURVE",
"649 30 CURVE",
"649 107 LINE",
"621 127 LINE",
"566 79 OFFCURVE",
"507 64 OFFCURVE",
"430 64 CURVE SMOOTH",
"238 64 OFFCURVE",
"152 161 OFFCURVE",
"152 348 CURVE SMOOTH",
"152 559 OFFCURVE",
"261 636 OFFCURVE",
"415 636 CURVE SMOOTH",
"503 636 OFFCURVE",
"559 612 OFFCURVE",
"608 574 CURVE",
"628 584 LINE",
"628 662 LINE",
"568 695 OFFCURVE",
"504 712 OFFCURVE",
"420 712 CURVE SMOOTH",
"218 712 OFFCURVE",
"62 608 OFFCURVE",
"62 352 CURVE SMOOTH",
"62 118 OFFCURVE",
"192 -12 OFFCURVE",
"433 -12 CURVE SMOOTH"
);
},
{
closed = 1;
nodes = (
"649 30 LINE",
"649 338 LINE",
"564 338 LINE",
"564 30 LINE"
);
},
{
closed = 1;
nodes = (
"453 301 LINE",
"649 301 LINE",
"649 375 LINE",
"393 375 LINE",
"393 291 LINE"
);
}
);
userData = {
com.hugojourdan.ColorFlow = {
"0" = 0;
"1" = 0;
"10" = 0;
"11" = 0;
"2" = 0;
"3" = 0;
"4" = 0;
"5" = 0;
"6" = 0;
"7" = 0;
"8" = 0;
"9" = 0;
};
};
width = 729;
},
{
associatedMasterId = "993DDA7B-BC4C-4F4B-ACF9-716C764D536A";
layerId = "A5872B08-21A0-4D7B-8D97-9CE83140BBFA";
name = "Mar 12 18, 19:26";
paths = (
{
closed = 1;
nodes = (
"561 44 LINE",
"507 8 OFFCURVE",
"405 -11 OFFCURVE",
"334 -11 CURVE SMOOTH",
"184 -11 OFFCURVE",
"40 75 OFFCURVE",
"40 328 CURVE SMOOTH",
"40 585 OFFCURVE",
"187 670 OFFCURVE",
"334 670 CURVE SMOOTH",
"415 670 OFFCURVE",
"494 652 OFFCURVE",
"550 617 CURVE",
"550 500 LINE",
"498 500 LINE",
"447 564 OFFCURVE",
"394 582 OFFCURVE",
"334 582 CURVE SMOOTH",
"210 582 OFFCURVE",
"150 502 OFFCURVE",
"150 328 CURVE SMOOTH",
"150 143 OFFCURVE",
"235 77 OFFCURVE",
"334 77 CURVE SMOOTH",
"380 77 OFFCURVE",
"458 91 OFFCURVE",
"478 128 CURVE",
"561 129 LINE"
);
},
{
closed = 1;
nodes = (
"465 285 LINE",
"561 285 LINE",
"561 44 LINE",
"465 44 LINE"
);
},
{
closed = 1;
nodes = (
"392 327 LINE",
"625 327 LINE",
"625 254 LINE",
"564 239 LINE",
"469 239 LINE",
"392 254 LINE"
);
}
);
width = 655;
},
{
anchors = (
{
name = bottom;
position = "{389, 0}";
},
{
name = top;
position = "{389, 700}";
}
);
layerId = "C7F1792A-1FE9-4A21-B628-190BF571D00B";
paths = (
{
closed = 1;
nodes = (
"522 -12 OFFCURVE",
"590 5 OFFCURVE",
"649 30 CURVE",
"649 107 LINE",
"621 127 LINE",
"566 79 OFFCURVE",
"507 64 OFFCURVE",
"430 64 CURVE SMOOTH",
"238 64 OFFCURVE",
"152 161 OFFCURVE",
"152 348 CURVE SMOOTH",
"152 559 OFFCURVE",
"261 636 OFFCURVE",
"415 636 CURVE SMOOTH",
"503 636 OFFCURVE",
"568 612 OFFCURVE",
"624 574 CURVE",
"628 576 LINE",
"628 662 LINE",
"568 695 OFFCURVE",
"504 712 OFFCURVE",
"420 712 CURVE SMOOTH",
"218 712 OFFCURVE",
"62 608 OFFCURVE",
"62 352 CURVE SMOOTH",
"62 118 OFFCURVE",
"192 -12 OFFCURVE",
"433 -12 CURVE SMOOTH"
);
},
{
closed = 1;
nodes = (
"649 30 LINE",
"649 338 LINE",
"564 338 LINE",
"564 30 LINE"
);
},
{
closed = 1;
nodes = (
"453 301 LINE",
"649 301 LINE",
"649 375 LINE",
"393 375 LINE",
"393 301 LINE"
);
}
);
userData = {
com.hugojourdan.ColorFlow = {
"0" = 0;
"1" = 0;
"10" = 0;
"11" = 0;
"2" = 0;
"3" = 0;
"4" = 0;
"5" = 0;
"6" = 0;
"7" = 0;
"8" = 0;
"9" = 0;
};
};
width = 729;
},
{
anchors = (
{
name = bottom;
position = "{381, 0}";
},
{
name = top;
position = "{371, 700}";
}
);
layerId = m003;
paths = (
{
closed = 1;
nodes = (
"525 -12 OFFCURVE",
"593 5 OFFCURVE",
"642 30 CURVE",
"642 149 LINE",
"614 149 LINE",
"548 118 OFFCURVE",
"497 106 OFFCURVE",
"442 106 CURVE SMOOTH",
"280 106 OFFCURVE",
"205 198 OFFCURVE",
"205 351 CURVE SMOOTH",
"205 521 OFFCURVE",
"298 594 OFFCURVE",
"424 594 CURVE SMOOTH",
"480 594 OFFCURVE",
"559 578 OFFCURVE",
"627 540 CURVE",
"631 542 LINE",
"631 662 LINE",
"573 695 OFFCURVE",
"507 712 OFFCURVE",
"425 712 CURVE SMOOTH",
"216 712 OFFCURVE",
"60 610 OFFCURVE",
"60 348 CURVE SMOOTH",
"60 114 OFFCURVE",
"185 -12 OFFCURVE",
"436 -12 CURVE SMOOTH"
);
},
{
closed = 1;
nodes = (
"642 30 LINE",
"642 344 LINE",
"510 344 LINE",
"510 30 LINE"
);
},
{
closed = 1;
nodes = (
"431 285 LINE",
"642 285 LINE",
"642 399 LINE",
"371 399 LINE",
"371 285 LINE"
);
}
);
userData = {
com.hugojourdan.ColorFlow = {
"0" = 0;
"1" = 0;
"10" = 0;
"11" = 0;
"2" = 0;
"3" = 0;
"4" = 0;
"5" = 0;
"6" = 0;
"7" = 0;
"8" = 0;
"9" = 0;
};
};
width = 720;
},
{
associatedMasterId = m003;
layerId = "BEED35F4-5243-4EDA-B0A2-89ED0B343A65";
name = "Mar 12 18, 19:26";
paths = (
{
closed = 1;
nodes = (
"561 44 LINE",
"507 8 OFFCURVE",
"405 -11 OFFCURVE",
"334 -11 CURVE SMOOTH",
"184 -11 OFFCURVE",
"40 75 OFFCURVE",
"40 328 CURVE SMOOTH",
"40 585 OFFCURVE",
"187 670 OFFCURVE",
"334 670 CURVE SMOOTH",
"415 670 OFFCURVE",
"494 652 OFFCURVE",
"550 617 CURVE",
"550 500 LINE",
"498 500 LINE",
"447 564 OFFCURVE",
"394 582 OFFCURVE",
"334 582 CURVE SMOOTH",
"210 582 OFFCURVE",
"150 502 OFFCURVE",
"150 328 CURVE SMOOTH",
"150 143 OFFCURVE",
"235 77 OFFCURVE",
"334 77 CURVE SMOOTH",
"380 77 OFFCURVE",
"458 91 OFFCURVE",
"478 128 CURVE",
"561 129 LINE"
);
},
{
closed = 1;
nodes = (
"465 285 LINE",
"561 285 LINE",
"561 44 LINE",
"465 44 LINE"
);
},
{
closed = 1;
nodes = (
"392 327 LINE",
"625 327 LINE",
"625 254 LINE",
"564 239 LINE",
"469 239 LINE",
"392 254 LINE"
);
}
);
width = 655;
},
{
anchors = (
{
name = bottom;
position = "{381, 0}";
},
{
name = top;
position = "{371, 700}";
}
);
layerId = m004;
paths = (
{
closed = 1;
nodes = (
"525 -12 OFFCURVE",
"593 5 OFFCURVE",
"642 30 CURVE",
"642 149 LINE",
"614 149 LINE",
"548 118 OFFCURVE",
"497 106 OFFCURVE",
"442 106 CURVE SMOOTH",
"280 106 OFFCURVE",
"205 198 OFFCURVE",
"205 351 CURVE SMOOTH",
"205 521 OFFCURVE",
"298 594 OFFCURVE",
"424 594 CURVE SMOOTH",
"480 594 OFFCURVE",
"546 578 OFFCURVE",
"607 540 CURVE",
"631 550 LINE",
"631 662 LINE",
"573 695 OFFCURVE",
"507 712 OFFCURVE",
"425 712 CURVE SMOOTH",
"216 712 OFFCURVE",
"60 610 OFFCURVE",
"60 348 CURVE SMOOTH",
"60 114 OFFCURVE",
"185 -12 OFFCURVE",
"436 -12 CURVE SMOOTH"
);
},
{
closed = 1;
nodes = (
"642 30 LINE",
"642 344 LINE",
"510 344 LINE",
"510 30 LINE"
);
},
{
closed = 1;
nodes = (
"431 285 LINE",
"642 285 LINE",
"642 399 LINE",
"371 399 LINE",
"371 275 LINE"
);
}
);
userData = {
com.hugojourdan.ColorFlow = {
"0" = 0;
"1" = 0;
"10" = 0;
"11" = 0;
"2" = 0;
"3" = 0;
"4" = 0;
"5" = 0;
"6" = 0;
"7" = 0;
"8" = 0;
"9" = 0;
};
};
width = 720;
},
{
associatedMasterId = m004;
layerId = "3A057264-25FA-45E5-9B53-E33273C3BEAC";
name = "Mar 12 18, 19:26";
paths = (
{
closed = 1;
nodes = (
"561 44 LINE",
"507 8 OFFCURVE",
"405 -11 OFFCURVE",
"334 -11 CURVE SMOOTH",
"184 -11 OFFCURVE",
"40 75 OFFCURVE",
"40 328 CURVE SMOOTH",
"40 585 OFFCURVE",
"187 670 OFFCURVE",
"334 670 CURVE SMOOTH",
"415 670 OFFCURVE",
"494 652 OFFCURVE",
"550 617 CURVE",
"550 500 LINE",
"498 500 LINE",
"447 564 OFFCURVE",
"394 582 OFFCURVE",
"334 582 CURVE SMOOTH",
"210 582 OFFCURVE",
"150 502 OFFCURVE",
"150 328 CURVE SMOOTH",
"150 143 OFFCURVE",
"235 77 OFFCURVE",
"334 77 CURVE SMOOTH",
"380 77 OFFCURVE",
"458 91 OFFCURVE",
"478 128 CURVE",
"561 129 LINE"
);
},
{
closed = 1;
nodes = (
"465 285 LINE",
"561 285 LINE",
"561 44 LINE",
"465 44 LINE"
);
},
{
closed = 1;
nodes = (
"392 327 LINE",
"625 327 LINE",
"625 254 LINE",
"564 239 LINE",
"469 239 LINE",
"392 254 LINE"
);
}
);
width = 655;
}
);
leftKerningGroup = KO_G;
leftMetricsKey = O;
rightKerningGroup = KO_G;
rightMetricsKey = "=O+18";
unicode = 0047;
userData = {
KernOnName = G;
};
},
{
glyphname = H;
lastChange = "2023-08-11 09:49:00 +0000";
layers = (
{
anchors = (
{
name = bottom;
position = "{380, 0}";
},
{
name = center;
position = "{380, 350}";
},
{
name = top;
position = "{380, 700}";
},
{
name = topleft;
position = "{111, 700}";
}
);
layerId = "993DDA7B-BC4C-4F4B-ACF9-716C764D536A";
paths = (
{
closed = 1;
nodes = (
"670 0 LINE",
"660 80 LINE",
"660 620 LINE",
"670 700 LINE",
"565 700 LINE",
"575 620 LINE",
"575 80 LINE",
"565 0 LINE"
);
},
{
closed = 1;
nodes = (
"195 0 LINE",
"185 80 LINE",
"185 620 LINE",
"195 700 LINE",
"90 700 LINE",
"100 620 LINE",
"100 80 LINE",
"90 0 LINE"
);
},
{
closed = 1;
nodes = (
"631 327 LINE",
"631 405 LINE",
"128 405 LINE",
"128 327 LINE"
);
}
);
userData = {
com.hugojourdan.ColorFlow = {
"0" = 0;
"1" = 0;
"10" = 0;
"11" = 0;
"2" = 0;
"3" = 0;
"4" = 0;
"5" = 0;
"6" = 0;
"7" = 0;
"8" = 0;
"9" = 0;
};
};
width = 760;
},
{
anchors = (
{
name = bottom;
position = "{380, 0}";
},
{
name = center;
position = "{380, 350}";
},
{
name = top;
position = "{380, 700}";
},
{
name = topleft;
position = "{100, 700}";
}
);
layerId = "C7F1792A-1FE9-4A21-B628-190BF571D00B";
paths = (
{
closed = 1;
nodes = (
"660 0 LINE",
"660 80 LINE",
"660 620 LINE",
"660 700 LINE",
"575 700 LINE",
"575 620 LINE",
"575 80 LINE",
"575 0 LINE"
);
},
{
closed = 1;
nodes = (
"185 0 LINE",
"185 80 LINE",
"185 620 LINE",
"185 700 LINE",
"100 700 LINE",
"100 620 LINE",
"100 80 LINE",
"100 0 LINE"
);
},
{
closed = 1;
nodes = (
"621 327 LINE",
"621 405 LINE",
"138 405 LINE",
"138 327 LINE"
);
}
);
userData = {
com.hugojourdan.ColorFlow = {
"0" = 0;
"1" = 0;
"10" = 0;
"11" = 0;
"2" = 0;
"3" = 0;
"4" = 0;
"5" = 0;
"6" = 0;
"7" = 0;
"8" = 0;
"9" = 0;
};
};
width = 760;
},
{
anchors = (
{
name = bottom;
position = "{380, 0}";
},
{
name = center;
position = "{380, 350}";
},
{
name = top;
position = "{380, 700}";
},
{
name = topleft;
position = "{82, 700}";
}
);
layerId = m003;
paths = (
{
closed = 1;
nodes = (
"678 0 LINE",
"678 80 LINE",
"678 620 LINE",
"678 700 LINE",
"540 700 LINE",
"540 620 LINE",
"540 80 LINE",
"540 0 LINE"
);
},
{
closed = 1;
nodes = (
"220 0 LINE",
"220 80 LINE",
"220 620 LINE",
"220 700 LINE",
"82 700 LINE",
"82 620 LINE",
"82 80 LINE",
"82 0 LINE"
);
},
{
closed = 1;
nodes = (
"608 299 LINE",
"608 423 LINE",
"148 423 LINE",
"148 299 LINE"
);
}
);
userData = {
com.hugojourdan.ColorFlow = {
"0" = 0;
"1" = 0;
"10" = 0;
"11" = 0;
"2" = 0;
"3" = 0;
"4" = 0;
"5" = 0;
"6" = 0;
"7" = 0;
"8" = 0;
"9" = 0;
};
};
width = 760;
},
{
anchors = (
{
name = bottom;
position = "{380, 0}";
},
{
name = center;
position = "{380, 350}";
},
{
name = top;
position = "{380, 700}";
},
{
name = topleft;
position = "{78, 700}";
}
);
layerId = m004;
paths = (
{
closed = 1;
nodes = (
"688 0 LINE",
"678 80 LINE",
"678 620 LINE",
"688 700 LINE",
"530 700 LINE",
"540 620 LINE",
"540 80 LINE",
"530 0 LINE"
);
},
{
closed = 1;
nodes = (
"230 0 LINE",
"220 80 LINE",
"220 620 LINE",
"230 700 LINE",
"72 700 LINE",
"82 620 LINE",
"82 80 LINE",
"72 0 LINE"
);
},
{
closed = 1;
nodes = (
"618 299 LINE",
"618 423 LINE",
"138 423 LINE",
"138 299 LINE"
);
}
);
userData = {
com.hugojourdan.ColorFlow = {
"0" = 0;
"1" = 0;
"10" = 0;
"11" = 0;
"2" = 0;
"3" = 0;
"4" = 0;
"5" = 0;
"6" = 0;
"7" = 0;
"8" = 0;
"9" = 0;
};
};
width = 760;
}
);
leftKerningGroup = KO_H;
rightKerningGroup = KO_H;
unicode = 0048;
userData = {
KernOnName = H;
};
},
{
glyphname = I;
lastChange = "2023-08-11 09:49:00 +0000";
layers = (
{
anchors = (
{
name = bottom;
position = "{216, 0}";
},
{
name = ogonek;
position = "{353, 0}";
},
{
name = top;
position = "{217, 700}";
},
{
name = topleft;
position = "{70, 700}";
}
);
layerId = "993DDA7B-BC4C-4F4B-ACF9-716C764D536A";
paths = (
{
closed = 1;
nodes = (
"259 0 LINE",
"259 700 LINE",
"174 700 LINE",
"174 0 LINE"
);
},
{
closed = 1;
nodes = (
"353 0 LINE",
"353 82 LINE",
"293 72 LINE",
"140 72 LINE",
"80 82 LINE",
"80 0 LINE"
);
},
{
closed = 1;
nodes = (
"140 628 LINE",
"293 628 LINE",
"353 618 LINE",
"353 700 LINE",
"80 700 LINE",
"80 618 LINE"
);
}
);
userData = {
com.hugojourdan.ColorFlow = {
"0" = 0;
"1" = 0;
"10" = 0;
"11" = 0;
"2" = 0;
"3" = 0;
"4" = 0;
"5" = 0;
"6" = 0;
"7" = 0;
"8" = 0;
"9" = 0;
};
};
width = 433;
},
{
anchors = (
{
name = bottom;
position = "{216, 0}";
},
{
name = ogonek;
position = "{353, 0}";
},
{
name = top;
position = "{217, 700}";
},
{
name = topleft;
position = "{70, 700}";
}
);
layerId = "C7F1792A-1FE9-4A21-B628-190BF571D00B";
paths = (
{
closed = 1;
nodes = (
"259 0 LINE",
"259 700 LINE",
"174 700 LINE",
"174 0 LINE"
);
},
{
closed = 1;
nodes = (
"353 0 LINE",
"353 72 LINE",
"293 72 LINE",
"140 72 LINE",
"80 72 LINE",
"80 0 LINE"
);
},
{
closed = 1;
nodes = (
"140 628 LINE",
"293 628 LINE",
"353 628 LINE",
"353 700 LINE",
"80 700 LINE",
"80 628 LINE"
);
}
);
userData = {
com.hugojourdan.ColorFlow = {
"0" = 0;
"1" = 0;
"10" = 0;
"11" = 0;
"2" = 0;
"3" = 0;
"4" = 0;
"5" = 0;
"6" = 0;
"7" = 0;
"8" = 0;
"9" = 0;
};
};
width = 433;
},
{
anchors = (
{
name = bottom;
position = "{219, 0}";
},
{
name = ogonek;
position = "{376, 0}";
},
{
name = top;
position = "{219, 700}";
},
{
name = topleft;
position = "{62, 700}";
}
);
layerId = m003;
paths = (
{
closed = 1;
nodes = (
"288 0 LINE",
"288 700 LINE",
"150 700 LINE",
"150 0 LINE"
);
},
{
closed = 1;
nodes = (
"376 0 LINE",
"376 118 LINE",
"316 118 LINE",
"122 118 LINE",
"62 118 LINE",
"62 0 LINE"
);
},
{
closed = 1;
nodes = (
"122 582 LINE",
"316 582 LINE",
"376 582 LINE",
"376 700 LINE",
"62 700 LINE",
"62 582 LINE"
);
}
);
userData = {
com.hugojourdan.ColorFlow = {
"0" = 0;
"1" = 0;
"10" = 0;
"11" = 0;
"2" = 0;
"3" = 0;
"4" = 0;
"5" = 0;
"6" = 0;
"7" = 0;
"8" = 0;
"9" = 0;
};
};
width = 438;
},
{
anchors = (
{
name = bottom;
position = "{219, 0}";
},
{
name = ogonek;
position = "{376, 0}";
},
{
name = top;
position = "{219, 700}";
},
{
name = topleft;
position = "{62, 700}";
}
);
layerId = m004;
paths = (
{
closed = 1;
nodes = (
"288 0 LINE",
"288 700 LINE",
"150 700 LINE",
"150 0 LINE"
);
},
{
closed = 1;
nodes = (
"376 0 LINE",
"376 128 LINE",
"316 118 LINE",
"122 118 LINE",
"62 128 LINE",
"62 0 LINE"
);
},
{
closed = 1;
nodes = (
"122 582 LINE",
"316 582 LINE",
"376 572 LINE",
"376 700 LINE",
"62 700 LINE",
"62 572 LINE"
);
}
);
userData = {
com.hugojourdan.ColorFlow = {
"0" = 0;
"1" = 0;
"10" = 0;
"11" = 0;
"2" = 0;
"3" = 0;
"4" = 0;
"5" = 0;
"6" = 0;
"7" = 0;
"8" = 0;
"9" = 0;
};
};
width = 438;
}
);
leftKerningGroup = KO_I;
rightKerningGroup = KO_I;
unicode = 0049;
userData = {
KernOnName = I;
};
},
{
glyphname = J;
lastChange = "2023-08-11 09:50:34 +0000";
layers = (
{
anchors = (
{
name = bottom;
position = "{255, 0}";
},
{
name = top;
position = "{256, 700}";
}
);
layerId = "993DDA7B-BC4C-4F4B-ACF9-716C764D536A";
paths = (
{
closed = 1;
nodes = (
"329 -12 OFFCURVE",
"403 67 OFFCURVE",
"403 192 CURVE SMOOTH",
"403 620 LINE",
"413 700 LINE",
"318 700 LINE",
"318 620 LINE",
"318 187 LINE SMOOTH",
"318 114 OFFCURVE",
"271 66 OFFCURVE",
"186 66 CURVE SMOOTH",
"121 66 OFFCURVE",
"88 94 OFFCURVE",
"66 122 CURVE",
"46 112 LINE",
"46 28 LINE",
"70 11 OFFCURVE",
"111 -12 OFFCURVE",
"187 -12 CURVE SMOOTH"
);
},
{
closed = 1;
nodes = (
"172 622 LINE",
"360 622 LINE",
"360 700 LINE",
"112 700 LINE",
"112 612 LINE"
);
}
);
userData = {
com.hugojourdan.ColorFlow = {
"0" = 0;
"1" = 0;
"10" = 0;
"11" = 0;
"2" = 0;
"3" = 0;
"4" = 0;
"5" = 0;
"6" = 0;
"7" = 0;
"8" = 0;
"9" = 0;
};
};
width = 503;
},
{
anchors = (
{
name = bottom;
position = "{250, 0}";
},
{
name = top;
position = "{256, 700}";
}
);
layerId = "C7F1792A-1FE9-4A21-B628-190BF571D00B";
paths = (
{
closed = 1;
nodes = (
"330 -12 OFFCURVE",
"403 67 OFFCURVE",
"403 192 CURVE SMOOTH",
"403 620 LINE",
"403 700 LINE",
"318 700 LINE",
"318 620 LINE",
"318 187 LINE SMOOTH",
"318 114 OFFCURVE",
"272 66 OFFCURVE",
"187 66 CURVE SMOOTH",
"122 66 OFFCURVE",
"78 94 OFFCURVE",
"50 121 CURVE",
"46 119 LINE",
"46 28 LINE",
"70 11 OFFCURVE",
"112 -12 OFFCURVE",
"190 -12 CURVE SMOOTH"
);
},
{
closed = 1;
nodes = (
"172 622 LINE",
"360 622 LINE",
"360 700 LINE",
"112 700 LINE",
"112 622 LINE"
);
}
);
userData = {
com.hugojourdan.ColorFlow = {
"0" = 0;
"1" = 0;
"10" = 0;
"11" = 0;
"2" = 0;
"3" = 0;
"4" = 0;
"5" = 0;
"6" = 0;
"7" = 0;
"8" = 0;
"9" = 0;
};
};
width = 503;
},
{
anchors = (
{
name = bottom;
position = "{253, 0}";
},
{
name = top;
position = "{249, 700}";
}
);
layerId = m003;
paths = (
{
closed = 1;
nodes = (
"340 -12 OFFCURVE",
"414 67 OFFCURVE",
"414 192 CURVE SMOOTH",
"414 620 LINE",
"414 700 LINE",
"276 700 LINE",
"276 580 LINE",
"276 199 LINE SMOOTH",
"276 126 OFFCURVE",
"230 108 OFFCURVE",
"181 108 CURVE SMOOTH",
"129 108 OFFCURVE",
"82 129 OFFCURVE",
"48 152 CURVE",
"44 150 LINE",
"44 28 LINE",
"68 11 OFFCURVE",
"109 -12 OFFCURVE",
"190 -12 CURVE SMOOTH"
);
},
{
closed = 1;
nodes = (
"140 582 LINE",
"346 582 LINE",
"346 700 LINE",
"80 700 LINE",
"80 582 LINE"
);
}
);
userData = {
com.hugojourdan.ColorFlow = {
"0" = 0;
"1" = 0;
"10" = 0;
"11" = 0;
"2" = 0;
"3" = 0;
"4" = 0;
"5" = 0;
"6" = 0;
"7" = 0;
"8" = 0;
"9" = 0;
};
};
width = 496;
},
{
anchors = (
{
name = bottom;
position = "{253, 0}";
},
{
name = top;
position = "{249, 700}";
}
);
layerId = m004;
paths = (
{
closed = 1;
nodes = (
"340 -12 OFFCURVE",
"414 67 OFFCURVE",
"414 192 CURVE SMOOTH",
"414 620 LINE",
"424 700 LINE",
"276 700 LINE",
"276 580 LINE",
"276 199 LINE SMOOTH",
"276 127 OFFCURVE",
"230 108 OFFCURVE",
"180 108 CURVE SMOOTH",
"128 108 OFFCURVE",
"91 129 OFFCURVE",
"64 152 CURVE",
"44 142 LINE",
"44 28 LINE",
"68 11 OFFCURVE",
"109 -12 OFFCURVE",
"190 -12 CURVE SMOOTH"
);
},
{
closed = 1;
nodes = (
"140 582 LINE",
"346 582 LINE",
"346 700 LINE",
"80 700 LINE",
"80 572 LINE"
);
}
);
userData = {
com.hugojourdan.ColorFlow = {
"0" = 0;
"1" = 0;
"10" = 0;
"11" = 0;
"2" = 0;
"3" = 0;
"4" = 0;
"5" = 0;
"6" = 0;
"7" = 0;
"8" = 0;
"9" = 0;
};
};
width = 496;
}
);
leftKerningGroup = KO_J;
leftMetricsKey = "=O-16";
rightKerningGroup = KO_J;
rightMetricsKey = "=H";
unicode = 004A;
userData = {
KernOnName = J;
};
},
{
glyphname = K;
lastChange = "2023-07-29 10:09:10 +0000";
layers = (
{
anchors = (
{
name = bottom;
position = "{327, 0}";
},
{
name = top;
position = "{327, 700}";
}
);
layerId = "993DDA7B-BC4C-4F4B-ACF9-716C764D536A";
paths = (
{
closed = 1;
nodes = (
"607 0 LINE",
"333 371 LINE",
"594 700 LINE",
"483 700 LINE",
"441 634 LINE",
"250 394 LINE",
"143 394 LINE",
"143 319 LINE",
"261 319 LINE",
"440 80 LINE",
"492 0 LINE"
);
},
{
closed = 1;
nodes = (
"195 0 LINE",
"185 80 LINE",
"185 620 LINE",
"195 700 LINE",
"90 700 LINE",
"100 620 LINE",
"100 80 LINE",
"90 0 LINE"
);
}
);
width = 627;
},
{
anchors = (
{
name = bottom;
position = "{332, 0}";
},
{
name = top;
position = "{332, 700}";
}
);
layerId = "C7F1792A-1FE9-4A21-B628-190BF571D00B";
paths = (
{
closed = 1;
nodes = (
"617 0 LINE",
"343 366 LINE",
"604 700 LINE",
"503 700 LINE",
"451 634 LINE",
"260 394 LINE",
"143 394 LINE",
"143 319 LINE",
"271 319 LINE",
"450 80 LINE",
"512 0 LINE"
);
},
{
closed = 1;
nodes = (
"185 0 LINE",
"185 80 LINE",
"185 620 LINE",
"185 700 LINE",
"100 700 LINE",
"100 620 LINE",
"100 80 LINE",
"100 0 LINE"
);
}
);
width = 627;
},
{
anchors = (
{
name = bottom;
position = "{343, 0}";
},
{
name = top;
position = "{343, 700}";
}
);
layerId = m004;
paths = (
{
closed = 1;
nodes = (
"649 0 LINE",
"395 371 LINE",
"646 700 LINE",
"480 700 LINE",
"438 634 LINE",
"272 415 LINE",
"155 415 LINE",
"155 297 LINE",
"283 297 LINE",
"432 80 LINE",
"480 0 LINE"
);
},
{
closed = 1;
nodes = (
"230 0 LINE",
"220 80 LINE",
"220 620 LINE",
"230 700 LINE",
"72 700 LINE",
"82 620 LINE",
"82 80 LINE",
"72 0 LINE"
);
}
);
width = 679;
},
{
anchors = (
{
name = bottom;
position = "{339, 0}";
},
{
name = top;
position = "{339, 700}";
}
);
layerId = m003;
paths = (
{
closed = 1;
nodes = (
"659 0 LINE",
"405 371 LINE",
"656 700 LINE",
"497 700 LINE",
"448 634 LINE",
"282 415 LINE",
"155 415 LINE",
"155 297 LINE",
"293 297 LINE",
"441 80 LINE",
"493 0 LINE"
);
},
{
closed = 1;
nodes = (
"220 0 LINE",
"220 80 LINE",
"220 620 LINE",
"220 700 LINE",
"82 700 LINE",
"82 620 LINE",
"82 80 LINE",
"82 0 LINE"
);
}
);
width = 679;
}
);
leftKerningGroup = KO_H;
leftMetricsKey = H;
rightKerningGroup = KO_K;
unicode = 004B;
},
{
glyphname = L;
lastChange = "2023-08-11 09:49:00 +0000";
layers = (
{
anchors = (
{
name = bottom;
position = "{318, 0}";
},
{
name = center;
position = "{276, 350}";
},
{
name = top;
position = "{142, 700}";
},
{
name = topright;
position = "{521, 700}";
}
);
layerId = "993DDA7B-BC4C-4F4B-ACF9-716C764D536A";
paths = (
{
closed = 1;
nodes = (
"510 0 LINE",
"510 88 LINE",
"450 78 LINE",
"185 78 LINE",
"185 620 LINE",
"195 700 LINE",
"90 700 LINE",
"100 620 LINE",
"100 80 LINE",
"90 0 LINE"
);
}
);
userData = {
com.hugojourdan.ColorFlow = {
"0" = 0;
"1" = 0;
"10" = 0;
"11" = 0;
"2" = 0;
"3" = 0;
"4" = 0;
"5" = 0;
"6" = 0;
"7" = 0;
"8" = 0;
"9" = 0;
};
};
width = 570;
},
{
anchors = (
{
name = bottom;
position = "{326, 0}";
},
{
name = center;
position = "{276, 350}";
},
{
name = top;
position = "{142, 700}";
},
{
name = topright;
position = "{521, 700}";
}
);
layerId = "C7F1792A-1FE9-4A21-B628-190BF571D00B";
paths = (
{
closed = 1;
nodes = (
"510 0 LINE",
"510 78 LINE",
"450 78 LINE",
"185 78 LINE",
"185 620 LINE",
"185 700 LINE",
"100 700 LINE",
"100 620 LINE",
"100 80 LINE",
"100 0 LINE"
);
}
);
userData = {
com.hugojourdan.ColorFlow = {
"0" = 0;
"1" = 0;
"10" = 0;
"11" = 0;
"2" = 0;
"3" = 0;
"4" = 0;
"5" = 0;
"6" = 0;
"7" = 0;
"8" = 0;
"9" = 0;
};
};
width = 570;
},
{
anchors = (
{
name = bottom;
position = "{310, 0}";
},
{
name = center;
position = "{258, 350}";
},
{
name = top;
position = "{151, 700}";
},
{
name = topright;
position = "{503, 700}";
}
);
layerId = m003;
paths = (
{
closed = 1;
nodes = (
"528 0 LINE",
"528 118 LINE",
"468 118 LINE",
"220 118 LINE",
"220 620 LINE",
"220 700 LINE",
"82 700 LINE",
"82 620 LINE",
"82 80 LINE",
"82 0 LINE"
);
}
);
userData = {
com.hugojourdan.ColorFlow = {
"0" = 0;
"1" = 0;
"10" = 0;
"11" = 0;
"2" = 0;
"3" = 0;
"4" = 0;
"5" = 0;
"6" = 0;
"7" = 0;
"8" = 0;
"9" = 0;
};
};
width = 544;
},
{
anchors = (
{
name = bottom;
position = "{319, 0}";
},
{
name = center;
position = "{258, 350}";
},
{
name = top;
position = "{161, 700}";
},
{
name = topright;
position = "{523, 700}";
}
);
layerId = m004;
paths = (
{
closed = 1;
nodes = (
"528 0 LINE",
"528 128 LINE",
"468 118 LINE",
"220 118 LINE",
"220 620 LINE",
"230 700 LINE",
"72 700 LINE",
"82 620 LINE",
"82 80 LINE",
"72 0 LINE"
);
}
);
userData = {
com.hugojourdan.ColorFlow = {
"0" = 0;
"1" = 0;
"10" = 0;
"11" = 0;
"2" = 0;
"3" = 0;
"4" = 0;
"5" = 0;
"6" = 0;
"7" = 0;
"8" = 0;
"9" = 0;
};
};
width = 544;
}
);
leftKerningGroup = KO_H;
leftMetricsKey = H;
rightKerningGroup = KO_L;
unicode = 004C;
userData = {
KernOnName = L;
};
},
{
glyphname = M;
lastChange = "2023-08-11 09:49:00 +0000";
layers = (
{
layerId = "993DDA7B-BC4C-4F4B-ACF9-716C764D536A";
paths = (
{
closed = 1;
nodes = (
"195 0 LINE",
"185 80 LINE",
"185 617 LINE",
"197 617 LINE",
"227 504 LINE",
"414 10 LINE",
"504 10 LINE",
"691 504 LINE",
"721 617 LINE",
"733 617 LINE",
"733 80 LINE",
"723 0 LINE",
"828 0 LINE",
"818 80 LINE",
"818 700 LINE",
"673 700 LINE",
"478 167 LINE",
"463 105 LINE",
"455 105 LINE",
"440 167 LINE",
"245 700 LINE",
"100 700 LINE",
"100 80 LINE",
"90 0 LINE"
);
}
);
userData = {
com.hugojourdan.ColorFlow = {
"0" = 0;
"1" = 0;
"10" = 0;
"11" = 0;
"2" = 0;
"3" = 0;
"4" = 0;
"5" = 0;
"6" = 0;
"7" = 0;
"8" = 0;
"9" = 0;
};
};
width = 918;
},
{
layerId = "C7F1792A-1FE9-4A21-B628-190BF571D00B";
paths = (
{
closed = 1;
nodes = (
"185 0 LINE",
"185 80 LINE",
"185 624 LINE",
"187 624 LINE",
"217 525 LINE",
"414 10 LINE",
"504 10 LINE",
"701 525 LINE",
"731 624 LINE",
"733 624 LINE",
"733 80 LINE",
"733 0 LINE",
"818 0 LINE",
"818 80 LINE",
"818 700 LINE",
"678 700 LINE",
"481 166 LINE",
"460 99 LINE",
"458 99 LINE",
"437 166 LINE",
"240 700 LINE",
"100 700 LINE",
"100 80 LINE",
"100 0 LINE"
);
}
);
userData = {
com.hugojourdan.ColorFlow = {
"0" = 0;
"1" = 0;
"10" = 0;
"11" = 0;
"2" = 0;
"3" = 0;
"4" = 0;
"5" = 0;
"6" = 0;
"7" = 0;
"8" = 0;
"9" = 0;
};
};
width = 918;
},
{
layerId = m003;
paths = (
{
closed = 1;
nodes = (
"220 0 LINE",
"220 80 LINE",
"220 522 LINE",
"222 522 LINE",
"252 404 LINE",
"384 10 LINE",
"524 10 LINE",
"656 404 LINE",
"686 522 LINE",
"688 522 LINE",
"688 80 LINE",
"688 0 LINE",
"826 0 LINE",
"826 80 LINE",
"826 700 LINE",
"631 700 LINE",
"467 220 LINE",
"455 145 LINE",
"453 145 LINE",
"441 220 LINE",
"277 700 LINE",
"82 700 LINE",
"82 80 LINE",
"82 0 LINE"
);
}
);
userData = {
com.hugojourdan.ColorFlow = {
"0" = 0;
"1" = 0;
"10" = 0;
"11" = 0;
"2" = 0;
"3" = 0;
"4" = 0;
"5" = 0;
"6" = 0;
"7" = 0;
"8" = 0;
"9" = 0;
};
};
width = 908;
},
{
layerId = m004;
paths = (
{
closed = 1;
nodes = (
"230 0 LINE",
"220 80 LINE",
"220 512 LINE",
"232 512 LINE",
"252 384 LINE",
"385 10 LINE",
"524 10 LINE",
"656 384 LINE",
"676 512 LINE",
"688 512 LINE",
"688 80 LINE",
"678 0 LINE",
"836 0 LINE",
"826 80 LINE",
"826 700 LINE",
"635 700 LINE",
"472 231 LINE",
"460 145 LINE",
"448 145 LINE",
"436 231 LINE",
"273 700 LINE",
"82 700 LINE",
"82 80 LINE",
"72 0 LINE"
);
}
);
userData = {
com.hugojourdan.ColorFlow = {
"0" = 0;
"1" = 0;
"10" = 0;
"11" = 0;
"2" = 0;
"3" = 0;
"4" = 0;
"5" = 0;
"6" = 0;
"7" = 0;
"8" = 0;
"9" = 0;
};
};
width = 908;
}
);
leftKerningGroup = KO_H;
leftMetricsKey = H;
rightKerningGroup = KO_H;
rightMetricsKey = H;
unicode = 004D;
userData = {
KernOnName = M;
};
},
{
glyphname = N;
lastChange = "2023-08-11 09:49:00 +0000";
layers = (
{
anchors = (
{
name = bottom;
position = "{389, 0}";
},
{
name = top;
position = "{389, 700}";
}
);
layerId = "993DDA7B-BC4C-4F4B-ACF9-716C764D536A";
paths = (
{
closed = 1;
nodes = (
"195 0 LINE",
"185 80 LINE",
"185 601 LINE",
"193 601 LINE",
"232 504 LINE",
"568 0 LINE",
"668 0 LINE",
"668 620 LINE",
"678 700 LINE",
"573 700 LINE",
"583 620 LINE",
"583 98 LINE",
"575 98 LINE",
"536 196 LINE",
"200 700 LINE",
"100 700 LINE",
"100 80 LINE",
"90 0 LINE"
);
}
);
userData = {
com.hugojourdan.ColorFlow = {
"0" = 0;
"1" = 0;
"10" = 0;
"11" = 0;
"2" = 0;
"3" = 0;
"4" = 0;
"5" = 0;
"6" = 0;
"7" = 0;
"8" = 0;
"9" = 0;
};
};
width = 768;
},
{
anchors = (
{
name = bottom;
position = "{384, 0}";
},
{
name = top;
position = "{384, 700}";
}
);
layerId = "C7F1792A-1FE9-4A21-B628-190BF571D00B";
paths = (
{
closed = 1;
nodes = (
"185 0 LINE",
"185 80 LINE",
"185 610 LINE",
"187 610 LINE",
"203 550 LINE",
"568 0 LINE",
"668 0 LINE",
"668 620 LINE",
"668 700 LINE",
"583 700 LINE",
"583 620 LINE",
"583 89 LINE",
"581 89 LINE",
"565 149 LINE",
"200 700 LINE",
"100 700 LINE",
"100 80 LINE",
"100 0 LINE"
);
}
);
userData = {
com.hugojourdan.ColorFlow = {
"0" = 0;
"1" = 0;
"10" = 0;
"11" = 0;
"2" = 0;
"3" = 0;
"4" = 0;
"5" = 0;
"6" = 0;
"7" = 0;
"8" = 0;
"9" = 0;
};
};
width = 768;
},
{
anchors = (
{
name = bottom;
position = "{393, 0}";
},
{
name = top;
position = "{392, 700}";
}
);
layerId = m003;
paths = (
{
closed = 1;
nodes = (
"220 0 LINE",
"220 80 LINE",
"220 530 LINE",
"222 530 LINE",
"238 464 LINE",
"544 0 LINE",
"696 0 LINE",
"696 620 LINE",
"696 700 LINE",
"558 700 LINE",
"558 620 LINE",
"558 170 LINE",
"556 170 LINE",
"540 236 LINE",
"234 700 LINE",
"82 700 LINE",
"82 80 LINE",
"82 0 LINE"
);
}
);
userData = {
com.hugojourdan.ColorFlow = {
"0" = 0;
"1" = 0;
"10" = 0;
"11" = 0;
"2" = 0;
"3" = 0;
"4" = 0;
"5" = 0;
"6" = 0;
"7" = 0;
"8" = 0;
"9" = 0;
};
};
width = 778;
},
{
anchors = (
{
name = bottom;
position = "{394, 0}";
},
{
name = top;
position = "{394, 700}";
}
);
layerId = m004;
paths = (
{
closed = 1;
nodes = (
"230 0 LINE",
"220 80 LINE",
"220 530 LINE",
"231 530 LINE",
"257 428 LINE",
"544 0 LINE",
"696 0 LINE",
"696 620 LINE",
"706 700 LINE",
"548 700 LINE",
"558 620 LINE",
"558 170 LINE",
"547 170 LINE",
"521 272 LINE",
"234 700 LINE",
"82 700 LINE",
"82 80 LINE",
"72 0 LINE"
);
}
);
userData = {
com.hugojourdan.ColorFlow = {
"0" = 0;
"1" = 0;
"10" = 0;
"11" = 0;
"2" = 0;
"3" = 0;
"4" = 0;
"5" = 0;
"6" = 0;
"7" = 0;
"8" = 0;
"9" = 0;
};
};
width = 778;
}
);
leftKerningGroup = KO_H;
leftMetricsKey = H;
rightKerningGroup = KO_H;
rightMetricsKey = H;
unicode = 004E;
userData = {
KernOnName = N;
};
},
{
glyphname = Eng;
lastChange = "2023-07-23 16:23:37 +0000";
layers = (
{
layerId = "993DDA7B-BC4C-4F4B-ACF9-716C764D536A";
paths = (
{
closed = 1;
nodes = (
"195 0 LINE",
"185 80 LINE",
"185 594 LINE",
"193 594 LINE",
"222 514 LINE",
"591 0 LINE",
"676 0 LINE",
"676 620 LINE",
"686 700 LINE",
"581 700 LINE",
"591 620 LINE",
"591 120 LINE",
"583 120 LINE",
"554 192 LINE",
"190 700 LINE",
"100 700 LINE",
"100 80 LINE",
"90 0 LINE"
);
},
{
closed = 1;
nodes = (
"372 -137 LINE",
"372 -205 LINE",
"399 -215 OFFCURVE",
"428 -220 OFFCURVE",
"459 -220 CURVE SMOOTH",
"573 -220 OFFCURVE",
"676 -164 OFFCURVE",
"676 -20 CURVE",
"676 30 LINE",
"591 30 LINE",
"591 -20 LINE",
"591 -106 OFFCURVE",
"546 -142 OFFCURVE",
"464 -142 CURVE SMOOTH",
"437 -142 OFFCURVE",
"415 -137 OFFCURVE",
"392 -127 CURVE"
);
}
);
userData = {
com.hugojourdan.ColorFlow = {
"0" = 0;
"1" = 0;
"10" = 0;
"11" = 0;
"2" = 0;
"3" = 0;
"4" = 0;
"5" = 0;
"6" = 0;
"7" = 0;
"8" = 0;
"9" = 0;
};
};
width = 776;
},
{
layerId = "C7F1792A-1FE9-4A21-B628-190BF571D00B";
paths = (
{
closed = 1;
nodes = (
"185 0 LINE",
"185 80 LINE",
"185 594 LINE",
"187 594 LINE",
"203 544 LINE",
"591 0 LINE",
"676 0 LINE",
"676 620 LINE",
"676 700 LINE",
"591 700 LINE",
"591 620 LINE",
"591 110 LINE",
"589 110 LINE",
"573 160 LINE",
"190 700 LINE",
"100 700 LINE",
"100 80 LINE",
"100 0 LINE"
);
},
{
closed = 1;
nodes = (
"382 -119 LINE",
"382 -205 LINE",
"411 -215 OFFCURVE",
"438 -220 OFFCURVE",
"469 -220 CURVE SMOOTH",
"573 -220 OFFCURVE",
"676 -164 OFFCURVE",
"676 -20 CURVE",
"676 30 LINE",
"591 30 LINE",
"591 -20 LINE",
"591 -106 OFFCURVE",
"546 -142 OFFCURVE",
"474 -142 CURVE SMOOTH",
"447 -142 OFFCURVE",
"419 -137 OFFCURVE",
"386 -117 CURVE"
);
}
);
userData = {
com.hugojourdan.ColorFlow = {
"0" = 0;
"1" = 0;
"10" = 0;
"11" = 0;
"2" = 0;
"3" = 0;
"4" = 0;
"5" = 0;
"6" = 0;
"7" = 0;
"8" = 0;
"9" = 0;
};
};
width = 776;
},
{
background = {
paths = (
{
closed = 1;
nodes = (
"220 0 LINE",
"220 80 LINE",
"220 530 LINE",
"222 530 LINE",
"238 464 LINE",
"544 0 LINE",
"696 0 LINE",
"696 620 LINE",
"696 700 LINE",
"558 700 LINE",
"558 620 LINE",
"558 170 LINE",
"556 170 LINE",
"540 236 LINE",
"234 700 LINE",
"82 700 LINE",
"82 80 LINE",
"82 0 LINE"
);
}
);
};
layerId = m003;
paths = (
{
closed = 1;
nodes = (
"220 0 LINE",
"220 80 LINE",
"220 532 LINE",
"222 532 LINE",
"230 480 LINE",
"559 0 LINE",
"696 0 LINE",
"696 620 LINE",
"696 700 LINE",
"558 700 LINE",
"558 620 LINE",
"558 191 LINE",
"556 191 LINE",
"548 244 LINE",
"234 701 LINE",
"82 700 LINE",
"82 80 LINE",
"82 0 LINE"
);
},
{
closed = 1;
nodes = (
"350 -81 LINE",
"350 -205 LINE",
"378 -215 OFFCURVE",
"406 -220 OFFCURVE",
"441 -220 CURVE SMOOTH",
"561 -220 OFFCURVE",
"696 -164 OFFCURVE",
"696 -10 CURVE",
"696 30 LINE",
"559 30 LINE",
"559 -13 LINE",
"559 -59 OFFCURVE",
"514 -94 OFFCURVE",
"442 -94 CURVE SMOOTH",
"415 -94 OFFCURVE",
"386 -89 OFFCURVE",
"354 -79 CURVE"
);
}
);
userData = {
com.hugojourdan.ColorFlow = {
"0" = 0;
"1" = 0;
"10" = 0;
"11" = 0;
"2" = 0;
"3" = 0;
"4" = 0;
"5" = 0;
"6" = 0;
"7" = 0;
"8" = 0;
"9" = 0;
};
};
width = 778;
},
{
layerId = m004;
paths = (
{
closed = 1;
nodes = (
"230 0 LINE",
"220 80 LINE",
"220 527 LINE",
"230 527 LINE",
"257 435 LINE",
"559 0 LINE",
"696 0 LINE",
"696 620 LINE",
"706 700 LINE",
"548 700 LINE",
"558 620 LINE",
"558 190 LINE",
"548 190 LINE",
"521 285 LINE",
"234 700 LINE",
"82 700 LINE",
"82 80 LINE",
"72 0 LINE"
);
},
{
closed = 1;
nodes = (
"350 -89 LINE",
"350 -205 LINE",
"378 -215 OFFCURVE",
"406 -220 OFFCURVE",
"441 -220 CURVE SMOOTH",
"561 -220 OFFCURVE",
"696 -164 OFFCURVE",
"696 -10 CURVE",
"696 30 LINE",
"559 30 LINE",
"559 -13 LINE",
"559 -59 OFFCURVE",
"514 -94 OFFCURVE",
"442 -94 CURVE SMOOTH",
"415 -94 OFFCURVE",
"393 -89 OFFCURVE",
"370 -79 CURVE"
);
}
);
userData = {
com.hugojourdan.ColorFlow = {
"0" = 0;
"1" = 0;
"10" = 0;
"11" = 0;
"2" = 0;
"3" = 0;
"4" = 0;
"5" = 0;
"6" = 0;
"7" = 0;
"8" = 0;
"9" = 0;
};
};
width = 778;
}
);
leftKerningGroup = KO_H;
leftMetricsKey = N;
rightKerningGroup = KO_H;
rightMetricsKey = J;
unicode = 014A;
},
{
glyphname = O;
lastChange = "2023-08-11 09:49:00 +0000";
layers = (
{
anchors = (
{
name = bottom;
position = "{385, 0}";
},
{
name = center;
position = "{385, 350}";
},
{
name = ogonek;
position = "{483, 1}";
},
{
name = top;
position = "{385, 700}";
},
{
name = topleft;
position = "{67, 695}";
},
{
name = topright;
position = "{491, 697}";
}
);
layerId = "993DDA7B-BC4C-4F4B-ACF9-716C764D536A";
paths = (
{
closed = 1;
nodes = (
"547 -12 OFFCURVE",
"708 80 OFFCURVE",
"708 347 CURVE SMOOTH",
"708 616 OFFCURVE",
"546 712 OFFCURVE",
"385 712 CURVE SMOOTH",
"224 712 OFFCURVE",
"62 616 OFFCURVE",
"62 347 CURVE SMOOTH",
"62 80 OFFCURVE",
"224 -12 OFFCURVE",
"385 -12 CURVE SMOOTH"
);
},
{
closed = 1;
nodes = (
"256 64 OFFCURVE",
"152 142 OFFCURVE",
"152 350 CURVE SMOOTH",
"152 558 OFFCURVE",
"256 636 OFFCURVE",
"385 636 CURVE SMOOTH",
"513 636 OFFCURVE",
"618 558 OFFCURVE",
"618 350 CURVE SMOOTH",
"618 141 OFFCURVE",
"512 64 OFFCURVE",
"384 64 CURVE SMOOTH"
);
}
);
userData = {
com.hugojourdan.ColorFlow = {
"0" = 0;
"1" = 0;
"10" = 0;
"11" = 0;
"2" = 0;
"3" = 0;
"4" = 0;
"5" = 0;
"6" = 0;
"7" = 0;
"8" = 0;
"9" = 0;
};
};
width = 770;
},
{
anchors = (
{
name = bottom;
position = "{385, 0}";
},
{
name = center;
position = "{385, 350}";
},
{
name = ogonek;
position = "{482, 0}";
},
{
name = top;
position = "{385, 700}";
},
{
name = topleft;
position = "{15, 700}";
},
{
name = topright;
position = "{721, 700}";
}
);
layerId = "C7F1792A-1FE9-4A21-B628-190BF571D00B";
paths = (
{
closed = 1;
nodes = (
"547 -12 OFFCURVE",
"708 80 OFFCURVE",
"708 347 CURVE SMOOTH",
"708 616 OFFCURVE",
"546 712 OFFCURVE",
"385 712 CURVE SMOOTH",
"224 712 OFFCURVE",
"62 616 OFFCURVE",
"62 347 CURVE SMOOTH",
"62 80 OFFCURVE",
"224 -12 OFFCURVE",
"385 -12 CURVE SMOOTH"
);
},
{
closed = 1;
nodes = (
"256 64 OFFCURVE",
"152 142 OFFCURVE",
"152 350 CURVE SMOOTH",
"152 558 OFFCURVE",
"256 636 OFFCURVE",
"385 636 CURVE SMOOTH",
"513 636 OFFCURVE",
"618 558 OFFCURVE",
"618 350 CURVE SMOOTH",
"618 141 OFFCURVE",
"512 64 OFFCURVE",
"384 64 CURVE SMOOTH"
);
}
);
userData = {
com.hugojourdan.ColorFlow = {
"0" = 0;
"1" = 0;
"10" = 0;
"11" = 0;
"2" = 0;
"3" = 0;
"4" = 0;
"5" = 0;
"6" = 0;
"7" = 0;
"8" = 0;
"9" = 0;
};
};
width = 770;
},
{
anchors = (
{
name = bottom;
position = "{393, 0}";
},
{
name = center;
position = "{393, 350}";
},
{
name = ogonek;
position = "{497, 0}";
},
{
name = top;
position = "{393, 700}";
},
{
name = topleft;
position = "{60, 695}";
},
{
name = topright;
position = "{496, 700}";
}
);
layerId = m003;
paths = (
{
closed = 1;
nodes = (
"567 -12 OFFCURVE",
"718 75 OFFCURVE",
"718 348 CURVE SMOOTH",
"718 622 OFFCURVE",
"566 712 OFFCURVE",
"394 712 CURVE SMOOTH",
"222 712 OFFCURVE",
"60 622 OFFCURVE",
"60 348 CURVE SMOOTH",
"60 74 OFFCURVE",
"222 -12 OFFCURVE",
"394 -12 CURVE SMOOTH"
);
},
{
closed = 1;
nodes = (
"266 114 OFFCURVE",
"208 192 OFFCURVE",
"208 353 CURVE SMOOTH",
"208 513 OFFCURVE",
"266 586 OFFCURVE",
"389 586 CURVE SMOOTH",
"511 586 OFFCURVE",
"570 514 OFFCURVE",
"570 352 CURVE SMOOTH",
"570 192 OFFCURVE",
"512 114 OFFCURVE",
"389 114 CURVE SMOOTH"
);
}
);
userData = {
com.hugojourdan.ColorFlow = {
"0" = 0;
"1" = 0;
"10" = 0;
"11" = 0;
"2" = 0;
"3" = 0;
"4" = 0;
"5" = 0;
"6" = 0;
"7" = 0;
"8" = 0;
"9" = 0;
};
};
width = 778;
},
{
anchors = (
{
name = bottom;
position = "{393, 0}";
},
{
name = center;
position = "{393, 350}";
},
{
name = ogonek;
position = "{497, 0}";
},
{
name = top;
position = "{393, 700}";
},
{
name = topleft;
position = "{60, 695}";
},
{
name = topright;
position = "{496, 700}";
}
);
layerId = m004;
paths = (
{
closed = 1;
nodes = (
"567 -12 OFFCURVE",
"718 75 OFFCURVE",
"718 348 CURVE SMOOTH",
"718 622 OFFCURVE",
"566 712 OFFCURVE",
"394 712 CURVE SMOOTH",
"222 712 OFFCURVE",
"60 622 OFFCURVE",
"60 348 CURVE SMOOTH",
"60 74 OFFCURVE",
"222 -12 OFFCURVE",
"394 -12 CURVE SMOOTH"
);
},
{
closed = 1;
nodes = (
"266 114 OFFCURVE",
"208 192 OFFCURVE",
"208 353 CURVE SMOOTH",
"208 513 OFFCURVE",
"266 586 OFFCURVE",
"389 586 CURVE SMOOTH",
"511 586 OFFCURVE",
"570 514 OFFCURVE",
"570 352 CURVE SMOOTH",
"570 192 OFFCURVE",
"512 114 OFFCURVE",
"389 114 CURVE SMOOTH"
);
}
);
userData = {
com.hugojourdan.ColorFlow = {
"0" = 0;
"1" = 0;
"10" = 0;
"11" = 0;
"2" = 0;
"3" = 0;
"4" = 0;
"5" = 0;
"6" = 0;
"7" = 0;
"8" = 0;
"9" = 0;
};
};
width = 778;
}
);
leftKerningGroup = KO_O;
rightKerningGroup = KO_O;
unicode = 004F;
userData = {
KernOnName = O;
};
},
{
glyphname = Oslash;
lastChange = "2023-07-23 16:26:12 +0000";
layers = (
{
anchors = (
{
name = top;
position = "{390, 700}";
}
);
layerId = "993DDA7B-BC4C-4F4B-ACF9-716C764D536A";
paths = (
{
closed = 1;
nodes = (
"158 -24 LINE",
"719 724 LINE",
"627 724 LINE",
"66 -24 LINE"
);
},
{
closed = 1;
nodes = (
"552 -19 OFFCURVE",
"719 89 OFFCURVE",
"719 347 CURVE SMOOTH",
"719 605 OFFCURVE",
"552 716 OFFCURVE",
"390 716 CURVE SMOOTH",
"228 716 OFFCURVE",
"62 605 OFFCURVE",
"62 347 CURVE SMOOTH",
"62 89 OFFCURVE",
"228 -19 OFFCURVE",
"390 -19 CURVE SMOOTH"
);
},
{
closed = 1;
nodes = (
"270 56 OFFCURVE",
"158 138 OFFCURVE",
"158 347 CURVE SMOOTH",
"158 555 OFFCURVE",
"270 641 OFFCURVE",
"390 641 CURVE SMOOTH",
"510 641 OFFCURVE",
"623 555 OFFCURVE",
"623 347 CURVE SMOOTH",
"623 138 OFFCURVE",
"510 56 OFFCURVE",
"390 56 CURVE SMOOTH"
);
}
);
userData = {
com.hugojourdan.ColorFlow = {
"0" = 0;
"1" = 0;
"10" = 0;
"11" = 0;
"2" = 0;
"3" = 0;
"4" = 0;
"5" = 0;
"6" = 0;
"7" = 0;
"8" = 0;
"9" = 0;
};
};
width = 781;
},
{
anchors = (
{
name = top;
position = "{390, 700}";
}
);
layerId = "C7F1792A-1FE9-4A21-B628-190BF571D00B";
paths = (
{
closed = 1;
nodes = (
"158 -24 LINE",
"719 724 LINE",
"627 724 LINE",
"66 -24 LINE"
);
},
{
closed = 1;
nodes = (
"552 -19 OFFCURVE",
"719 89 OFFCURVE",
"719 347 CURVE SMOOTH",
"719 605 OFFCURVE",
"552 716 OFFCURVE",
"390 716 CURVE SMOOTH",
"228 716 OFFCURVE",
"62 605 OFFCURVE",
"62 347 CURVE SMOOTH",
"62 89 OFFCURVE",
"228 -19 OFFCURVE",
"390 -19 CURVE SMOOTH"
);
},
{
closed = 1;
nodes = (
"270 56 OFFCURVE",
"158 138 OFFCURVE",
"158 347 CURVE SMOOTH",
"158 555 OFFCURVE",
"270 641 OFFCURVE",
"390 641 CURVE SMOOTH",
"510 641 OFFCURVE",
"623 555 OFFCURVE",
"623 347 CURVE SMOOTH",
"623 138 OFFCURVE",
"510 56 OFFCURVE",
"390 56 CURVE SMOOTH"
);
}
);
userData = {
com.hugojourdan.ColorFlow = {
"0" = 0;
"1" = 0;
"10" = 0;
"11" = 0;
"2" = 0;
"3" = 0;
"4" = 0;
"5" = 0;
"6" = 0;
"7" = 0;
"8" = 0;
"9" = 0;
};
};
width = 781;
},
{
anchors = (
{
name = top;
position = "{397, 700}";
}
);
layerId = m003;
paths = (
{
closed = 1;
nodes = (
"196 -24 LINE",
"747 724 LINE",
"625 724 LINE",
"64 -24 LINE"
);
},
{
closed = 1;
nodes = (
"575 -14 OFFCURVE",
"736 80 OFFCURVE",
"736 347 CURVE SMOOTH",
"736 617 OFFCURVE",
"574 714 OFFCURVE",
"397 714 CURVE SMOOTH",
"222 714 OFFCURVE",
"60 617 OFFCURVE",
"60 347 CURVE SMOOTH",
"60 80 OFFCURVE",
"222 -14 OFFCURVE",
"397 -14 CURVE SMOOTH"
);
},
{
closed = 1;
nodes = (
"268 112 OFFCURVE",
"205 196 OFFCURVE",
"205 347 CURVE SMOOTH",
"205 507 OFFCURVE",
"268 588 OFFCURVE",
"397 588 CURVE SMOOTH",
"528 588 OFFCURVE",
"591 507 OFFCURVE",
"591 347 CURVE SMOOTH",
"591 196 OFFCURVE",
"527 112 OFFCURVE",
"397 112 CURVE SMOOTH"
);
}
);
userData = {
com.hugojourdan.ColorFlow = {
"0" = 0;
"1" = 0;
"10" = 0;
"11" = 0;
"2" = 0;
"3" = 0;
"4" = 0;
"5" = 0;
"6" = 0;
"7" = 0;
"8" = 0;
"9" = 0;
};
};
width = 807;
},
{
anchors = (
{
name = top;
position = "{397, 700}";
}
);
layerId = m004;
paths = (
{
closed = 1;
nodes = (
"196 -24 LINE",
"747 724 LINE",
"625 724 LINE",
"64 -24 LINE"
);
},
{
closed = 1;
nodes = (
"575 -14 OFFCURVE",
"736 80 OFFCURVE",
"736 347 CURVE SMOOTH",
"736 617 OFFCURVE",
"574 714 OFFCURVE",
"397 714 CURVE SMOOTH",
"222 714 OFFCURVE",
"60 617 OFFCURVE",
"60 347 CURVE SMOOTH",
"60 80 OFFCURVE",
"222 -14 OFFCURVE",
"397 -14 CURVE SMOOTH"
);
},
{
closed = 1;
nodes = (
"268 112 OFFCURVE",
"205 196 OFFCURVE",
"205 347 CURVE SMOOTH",
"205 507 OFFCURVE",
"268 588 OFFCURVE",
"397 588 CURVE SMOOTH",
"528 588 OFFCURVE",
"591 507 OFFCURVE",
"591 347 CURVE SMOOTH",
"591 196 OFFCURVE",
"527 112 OFFCURVE",
"397 112 CURVE SMOOTH"
);
}
);
userData = {
com.hugojourdan.ColorFlow = {
"0" = 0;
"1" = 0;
"10" = 0;
"11" = 0;
"2" = 0;
"3" = 0;
"4" = 0;
"5" = 0;
"6" = 0;
"7" = 0;
"8" = 0;
"9" = 0;
};
};
width = 807;
}
);
leftMetricsKey = O;
rightMetricsKey = O;
unicode = 00D8;
},
{
glyphname = P;
lastChange = "2023-08-11 09:49:00 +0000";
layers = (
{
layerId = "993DDA7B-BC4C-4F4B-ACF9-716C764D536A";
paths = (
{
closed = 1;
nodes = (
"195 0 LINE",
"185 80 LINE",
"185 271 LINE",
"311 271 LINE SMOOTH",
"479 271 OFFCURVE",
"544 382 OFFCURVE",
"544 484 CURVE SMOOTH",
"544 600 OFFCURVE",
"459 700 OFFCURVE",
"311 700 CURVE SMOOTH",
"90 700 LINE",
"100 620 LINE",
"100 80 LINE",
"90 0 LINE"
);
},
{
closed = 1;
nodes = (
"185 626 LINE",
"307 626 LINE SMOOTH",
"406 626 OFFCURVE",
"454 568 OFFCURVE",
"454 484 CURVE SMOOTH",
"454 403 OFFCURVE",
"410 345 OFFCURVE",
"307 345 CURVE SMOOTH",
"185 345 LINE"
);
}
);
userData = {
com.hugojourdan.ColorFlow = {
"0" = 0;
"1" = 0;
"10" = 0;
"11" = 0;
"2" = 0;
"3" = 0;
"4" = 0;
"5" = 0;
"6" = 0;
"7" = 0;
"8" = 0;
"9" = 0;
};
};
width = 597;
},
{
layerId = "C7F1792A-1FE9-4A21-B628-190BF571D00B";
paths = (
{
closed = 1;
nodes = (
"185 0 LINE",
"185 80 LINE",
"185 271 LINE",
"311 271 LINE SMOOTH",
"479 271 OFFCURVE",
"544 385 OFFCURVE",
"544 486 CURVE SMOOTH",
"544 600 OFFCURVE",
"459 700 OFFCURVE",
"311 700 CURVE SMOOTH",
"100 700 LINE",
"100 620 LINE",
"100 80 LINE",
"100 0 LINE"
);
},
{
closed = 1;
nodes = (
"185 626 LINE",
"307 626 LINE SMOOTH",
"406 626 OFFCURVE",
"454 568 OFFCURVE",
"454 486 CURVE SMOOTH",
"454 406 OFFCURVE",
"410 345 OFFCURVE",
"307 345 CURVE SMOOTH",
"185 345 LINE"
);
}
);
userData = {
com.hugojourdan.ColorFlow = {
"0" = 0;
"1" = 0;
"10" = 0;
"11" = 0;
"2" = 0;
"3" = 0;
"4" = 0;
"5" = 0;
"6" = 0;
"7" = 0;
"8" = 0;
"9" = 0;
};
};
width = 597;
},
{
layerId = m003;
paths = (
{
closed = 1;
nodes = (
"220 0 LINE",
"220 80 LINE",
"220 261 LINE",
"339 261 LINE SMOOTH",
"512 261 OFFCURVE",
"572 367 OFFCURVE",
"572 482 CURVE SMOOTH",
"572 605 OFFCURVE",
"497 700 OFFCURVE",
"339 700 CURVE SMOOTH",
"82 700 LINE",
"82 620 LINE",
"82 80 LINE",
"82 0 LINE"
);
},
{
closed = 1;
nodes = (
"220 581 LINE",
"312 581 LINE SMOOTH",
"397 581 OFFCURVE",
"428 546 OFFCURVE",
"428 479 CURVE SMOOTH",
"428 413 OFFCURVE",
"397 379 OFFCURVE",
"312 379 CURVE SMOOTH",
"220 379 LINE"
);
}
);
userData = {
com.hugojourdan.ColorFlow = {
"0" = 0;
"1" = 0;
"10" = 0;
"11" = 0;
"2" = 0;
"3" = 0;
"4" = 0;
"5" = 0;
"6" = 0;
"7" = 0;
"8" = 0;
"9" = 0;
};
};
width = 618;
},
{
layerId = m004;
paths = (
{
closed = 1;
nodes = (
"230 0 LINE",
"220 80 LINE",
"220 261 LINE",
"339 261 LINE SMOOTH",
"512 261 OFFCURVE",
"572 367 OFFCURVE",
"572 482 CURVE SMOOTH",
"572 605 OFFCURVE",
"497 700 OFFCURVE",
"339 700 CURVE SMOOTH",
"72 700 LINE",
"82 620 LINE",
"82 80 LINE",
"72 0 LINE"
);
},
{
closed = 1;
nodes = (
"220 581 LINE",
"311 581 LINE SMOOTH",
"397 581 OFFCURVE",
"428 546 OFFCURVE",
"428 479 CURVE SMOOTH",
"428 413 OFFCURVE",
"397 379 OFFCURVE",
"311 379 CURVE SMOOTH",
"220 379 LINE"
);
}
);
userData = {
com.hugojourdan.ColorFlow = {
"0" = 0;
"1" = 0;
"10" = 0;
"11" = 0;
"2" = 0;
"3" = 0;
"4" = 0;
"5" = 0;
"6" = 0;
"7" = 0;
"8" = 0;
"9" = 0;
};
};
width = 618;
}
);
leftKerningGroup = KO_H;
leftMetricsKey = H;
rightKerningGroup = KO_P;
unicode = 0050;
userData = {
KernOnName = P;
};
},
{
glyphname = Thorn;
lastChange = "2023-07-23 16:26:12 +0000";
layers = (
{
layerId = "993DDA7B-BC4C-4F4B-ACF9-716C764D536A";
paths = (
{
closed = 1;
nodes = (
"194 0 LINE",
"184 80 LINE",
"184 148 LINE",
"321 148 LINE SMOOTH",
"489 148 OFFCURVE",
"554 259 OFFCURVE",
"554 349 CURVE SMOOTH",
"554 452 OFFCURVE",
"469 552 OFFCURVE",
"321 552 CURVE SMOOTH",
"181 552 LINE",
"181 620 LINE",
"191 700 LINE",
"90 700 LINE",
"100 620 LINE",
"100 80 LINE",
"90 0 LINE"
);
},
{
closed = 1;
nodes = (
"184 480 LINE",
"317 480 LINE SMOOTH",
"416 480 OFFCURVE",
"464 420 OFFCURVE",
"464 348 CURVE SMOOTH",
"464 280 OFFCURVE",
"420 220 OFFCURVE",
"317 220 CURVE SMOOTH",
"184 220 LINE"
);
}
);
userData = {
com.hugojourdan.ColorFlow = {
"0" = 0;
"1" = 0;
"10" = 0;
"11" = 0;
"2" = 0;
"3" = 0;
"4" = 0;
"5" = 0;
"6" = 0;
"7" = 0;
"8" = 0;
"9" = 0;
};
};
width = 607;
},
{
layerId = "C7F1792A-1FE9-4A21-B628-190BF571D00B";
paths = (
{
closed = 1;
nodes = (
"184 0 LINE",
"184 80 LINE",
"184 148 LINE",
"321 148 LINE SMOOTH",
"489 148 OFFCURVE",
"554 259 OFFCURVE",
"554 349 CURVE SMOOTH",
"554 452 OFFCURVE",
"469 552 OFFCURVE",
"321 552 CURVE SMOOTH",
"181 552 LINE",
"181 620 LINE",
"181 700 LINE",
"100 700 LINE",
"100 620 LINE",
"100 80 LINE",
"100 0 LINE"
);
},
{
closed = 1;
nodes = (
"184 480 LINE",
"317 480 LINE SMOOTH",
"416 480 OFFCURVE",
"464 420 OFFCURVE",
"464 349 CURVE SMOOTH",
"464 280 OFFCURVE",
"420 220 OFFCURVE",
"317 220 CURVE SMOOTH",
"184 220 LINE"
);
}
);
userData = {
com.hugojourdan.ColorFlow = {
"0" = 0;
"1" = 0;
"10" = 0;
"11" = 0;
"2" = 0;
"3" = 0;
"4" = 0;
"5" = 0;
"6" = 0;
"7" = 0;
"8" = 0;
"9" = 0;
};
};
width = 607;
},
{
layerId = m003;
paths = (
{
closed = 1;
nodes = (
"218 0 LINE",
"218 80 LINE",
"218 146 LINE",
"333 146 LINE SMOOTH",
"491 146 OFFCURVE",
"546 246 OFFCURVE",
"546 350 CURVE SMOOTH",
"546 454 OFFCURVE",
"491 554 OFFCURVE",
"333 554 CURVE SMOOTH",
"215 554 LINE",
"215 620 LINE",
"215 700 LINE",
"82 700 LINE",
"82 620 LINE",
"82 80 LINE",
"82 0 LINE"
);
},
{
closed = 1;
nodes = (
"218 442 LINE",
"309 442 LINE SMOOTH",
"374 442 OFFCURVE",
"410 420 OFFCURVE",
"410 350 CURVE SMOOTH",
"410 280 OFFCURVE",
"374 258 OFFCURVE",
"309 258 CURVE SMOOTH",
"218 258 LINE"
);
}
);
userData = {
com.hugojourdan.ColorFlow = {
"0" = 0;
"1" = 0;
"10" = 0;
"11" = 0;
"2" = 0;
"3" = 0;
"4" = 0;
"5" = 0;
"6" = 0;
"7" = 0;
"8" = 0;
"9" = 0;
};
};
width = 592;
},
{
layerId = m004;
paths = (
{
closed = 1;
nodes = (
"228 0 LINE",
"218 80 LINE",
"218 146 LINE",
"333 146 LINE SMOOTH",
"491 146 OFFCURVE",
"546 246 OFFCURVE",
"546 350 CURVE SMOOTH",
"546 454 OFFCURVE",
"491 554 OFFCURVE",
"333 554 CURVE SMOOTH",
"215 554 LINE",
"215 620 LINE",
"225 700 LINE",
"72 700 LINE",
"82 620 LINE",
"82 80 LINE",
"72 0 LINE"
);
},
{
closed = 1;
nodes = (
"218 442 LINE",
"309 442 LINE SMOOTH",
"374 442 OFFCURVE",
"410 420 OFFCURVE",
"410 350 CURVE SMOOTH",
"410 280 OFFCURVE",
"374 258 OFFCURVE",
"309 258 CURVE SMOOTH",
"218 258 LINE"
);
}
);
userData = {
com.hugojourdan.ColorFlow = {
"0" = 0;
"1" = 0;
"10" = 0;
"11" = 0;
"2" = 0;
"3" = 0;
"4" = 0;
"5" = 0;
"6" = 0;
"7" = 0;
"8" = 0;
"9" = 0;
};
};
width = 592;
}
);
leftKerningGroup = KO_H;
leftMetricsKey = H;
rightKerningGroup = KO_O;
rightMetricsKey = P;
unicode = 00DE;
},
{
glyphname = Q;
lastChange = "2023-07-23 16:26:12 +0000";
layers = (
{
components = (
{
name = O;
},
{
alignment = -1;
name = _Qtail.com;
transform = "{1, 0, 0, 1, 383, 0}";
}
);
layerId = "993DDA7B-BC4C-4F4B-ACF9-716C764D536A";
userData = {
com.hugojourdan.ColorFlow = {
"0" = 0;
"1" = 0;
"10" = 0;
"11" = 0;
"2" = 0;
"3" = 0;
"4" = 0;
"5" = 0;
"6" = 0;
"7" = 0;
"8" = 0;
"9" = 0;
};
};
width = 770;
},
{
associatedMasterId = "993DDA7B-BC4C-4F4B-ACF9-716C764D536A";
layerId = "DA9678BA-03DE-492B-8A70-1A25A70F3924";
name = "Mar 23 18, 17:16";
paths = (
{
closed = 1;
nodes = (
"183 670 OFFCURVE",
"42 575 OFFCURVE",
"42 328 CURVE SMOOTH",
"42 85 OFFCURVE",
"180 -11 OFFCURVE",
"330 -11 CURVE SMOOTH",
"477 -11 OFFCURVE",
"618 84 OFFCURVE",
"618 328 CURVE SMOOTH",
"618 574 OFFCURVE",
"479 670 OFFCURVE",
"330 670 CURVE SMOOTH"
);
},
{
closed = 1;
nodes = (
"434 592 OFFCURVE",
"514 513 OFFCURVE",
"514 328 CURVE SMOOTH",
"514 148 OFFCURVE",
"452 67 OFFCURVE",
"330 67 CURVE SMOOTH",
"224 67 OFFCURVE",
"146 146 OFFCURVE",
"146 328 CURVE SMOOTH",
"146 511 OFFCURVE",
"206 592 OFFCURVE",
"330 592 CURVE SMOOTH"
);
},
{
closed = 1;
nodes = (
"384 -72 OFFCURVE",
"461 -126 OFFCURVE",
"591 -126 CURVE",
"609 -52 LINE",
"591 -33 LINE",
"510 -33 OFFCURVE",
"434 -6 OFFCURVE",
"427 57 CURVE",
"359 23 LINE"
);
}
);
width = 660;
},
{
components = (
{
name = O;
},
{
alignment = -1;
name = _Qtail.com;
transform = "{1, 0, 0, 1, 383, 0}";
}
);
layerId = "C7F1792A-1FE9-4A21-B628-190BF571D00B";
userData = {
com.hugojourdan.ColorFlow = {
"0" = 0;
"1" = 0;
"10" = 0;
"11" = 0;
"2" = 0;
"3" = 0;
"4" = 0;
"5" = 0;
"6" = 0;
"7" = 0;
"8" = 0;
"9" = 0;
};
};
width = 770;
},
{
components = (
{
name = O;
},
{
alignment = -1;
name = _Qtail.com;
transform = "{1, 0, 0, 1, 383, 0}";
}
);
layerId = m003;
userData = {
com.hugojourdan.ColorFlow = {
"0" = 0;
"1" = 0;
"10" = 0;
"11" = 0;
"2" = 0;
"3" = 0;
"4" = 0;
"5" = 0;
"6" = 0;
"7" = 0;
"8" = 0;
"9" = 0;
};
};
width = 778;
},
{
associatedMasterId = m003;
layerId = "FBE4BC78-748B-4C5A-9227-8F3FC9F9741A";
name = "Mar 23 18, 17:16";
paths = (
{
closed = 1;
nodes = (
"183 670 OFFCURVE",
"42 575 OFFCURVE",
"42 328 CURVE SMOOTH",
"42 85 OFFCURVE",
"180 -11 OFFCURVE",
"330 -11 CURVE SMOOTH",
"477 -11 OFFCURVE",
"618 84 OFFCURVE",
"618 328 CURVE SMOOTH",
"618 574 OFFCURVE",
"479 670 OFFCURVE",
"330 670 CURVE SMOOTH"
);
},
{
closed = 1;
nodes = (
"434 592 OFFCURVE",
"514 513 OFFCURVE",
"514 328 CURVE SMOOTH",
"514 148 OFFCURVE",
"452 67 OFFCURVE",
"330 67 CURVE SMOOTH",
"224 67 OFFCURVE",
"146 146 OFFCURVE",
"146 328 CURVE SMOOTH",
"146 511 OFFCURVE",
"206 592 OFFCURVE",
"330 592 CURVE SMOOTH"
);
},
{
closed = 1;
nodes = (
"384 -72 OFFCURVE",
"461 -126 OFFCURVE",
"591 -126 CURVE",
"609 -52 LINE",
"591 -33 LINE",
"510 -33 OFFCURVE",
"434 -6 OFFCURVE",
"427 57 CURVE",
"359 23 LINE"
);
}
);
width = 660;
},
{
components = (
{
name = O;
},
{
alignment = -1;
name = _Qtail.com;
transform = "{1, 0, 0, 1, 383, 0}";
}
);
layerId = m004;
userData = {
com.hugojourdan.ColorFlow = {
"0" = 0;
"1" = 0;
"10" = 0;
"11" = 0;
"2" = 0;
"3" = 0;
"4" = 0;
"5" = 0;
"6" = 0;
"7" = 0;
"8" = 0;
"9" = 0;
};
};
width = 778;
},
{
associatedMasterId = m004;
layerId = "0E75BFB1-BEB4-485D-8AF5-2D7EA6AE96A4";
name = "Mar 23 18, 17:16";
paths = (
{
closed = 1;
nodes = (
"183 670 OFFCURVE",
"42 575 OFFCURVE",
"42 328 CURVE SMOOTH",
"42 85 OFFCURVE",
"180 -11 OFFCURVE",
"330 -11 CURVE SMOOTH",
"477 -11 OFFCURVE",
"618 84 OFFCURVE",
"618 328 CURVE SMOOTH",
"618 574 OFFCURVE",
"479 670 OFFCURVE",
"330 670 CURVE SMOOTH"
);
},
{
closed = 1;
nodes = (
"434 592 OFFCURVE",
"514 513 OFFCURVE",
"514 328 CURVE SMOOTH",
"514 148 OFFCURVE",
"452 67 OFFCURVE",
"330 67 CURVE SMOOTH",
"224 67 OFFCURVE",
"146 146 OFFCURVE",
"146 328 CURVE SMOOTH",
"146 511 OFFCURVE",
"206 592 OFFCURVE",
"330 592 CURVE SMOOTH"
);
},
{
closed = 1;
nodes = (
"384 -72 OFFCURVE",
"461 -126 OFFCURVE",
"591 -126 CURVE",
"609 -52 LINE",
"591 -33 LINE",
"510 -33 OFFCURVE",
"434 -6 OFFCURVE",
"427 57 CURVE",
"359 23 LINE"
);
}
);
width = 660;
}
);
leftKerningGroup = KO_O;
leftMetricsKey = O;
rightKerningGroup = KO_O;
rightMetricsKey = O;
unicode = 0051;
},
{
glyphname = R;
lastChange = "2023-08-11 09:49:00 +0000";
layers = (
{
anchors = (
{
name = bottom;
position = "{339, 0}";
},
{
name = top;
position = "{320, 700}";
}
);
layerId = "993DDA7B-BC4C-4F4B-ACF9-716C764D536A";
paths = (
{
closed = 1;
nodes = (
"195 0 LINE",
"185 80 LINE",
"185 286 LINE",
"333 286 LINE SMOOTH",
"501 286 OFFCURVE",
"566 398 OFFCURVE",
"566 493 CURVE SMOOTH",
"566 601 OFFCURVE",
"481 700 OFFCURVE",
"333 700 CURVE SMOOTH",
"90 700 LINE",
"100 620 LINE",
"100 80 LINE",
"90 0 LINE"
);
},
{
closed = 1;
nodes = (
"598 0 LINE",
"425 261 LINE",
"365 316 LINE",
"288 316 LINE",
"453 80 LINE",
"497 0 LINE"
);
},
{
closed = 1;
nodes = (
"185 626 LINE",
"327 626 LINE SMOOTH",
"424 626 OFFCURVE",
"474 564 OFFCURVE",
"474 489 CURVE SMOOTH",
"474 419 OFFCURVE",
"430 360 OFFCURVE",
"329 360 CURVE SMOOTH",
"185 360 LINE"
);
}
);
userData = {
com.hugojourdan.ColorFlow = {
"0" = 0;
"1" = 0;
"10" = 0;
"11" = 0;
"2" = 0;
"3" = 0;
"4" = 0;
"5" = 0;
"6" = 0;
"7" = 0;
"8" = 0;
"9" = 0;
};
};
width = 662;
},
{
anchors = (
{
name = bottom;
position = "{348, 0}";
},
{
name = top;
position = "{323, 700}";
}
);
layerId = "C7F1792A-1FE9-4A21-B628-190BF571D00B";
paths = (
{
closed = 1;
nodes = (
"185 0 LINE",
"185 80 LINE",
"185 286 LINE",
"339 286 LINE SMOOTH",
"501 286 OFFCURVE",
"566 398 OFFCURVE",
"566 493 CURVE SMOOTH",
"566 601 OFFCURVE",
"481 700 OFFCURVE",
"339 700 CURVE SMOOTH",
"100 700 LINE",
"100 620 LINE",
"100 80 LINE",
"100 0 LINE"
);
},
{
closed = 1;
nodes = (
"598 0 LINE",
"412 280 LINE",
"365 316 LINE",
"287 316 LINE",
"453 80 LINE",
"505 0 LINE"
);
},
{
closed = 1;
nodes = (
"185 626 LINE",
"328 626 LINE SMOOTH",
"424 626 OFFCURVE",
"474 569 OFFCURVE",
"474 492 CURVE SMOOTH",
"474 419 OFFCURVE",
"430 360 OFFCURVE",
"330 360 CURVE SMOOTH",
"185 360 LINE"
);
}
);
userData = {
com.hugojourdan.ColorFlow = {
"0" = 0;
"1" = 0;
"10" = 0;
"11" = 0;
"2" = 0;
"3" = 0;
"4" = 0;
"5" = 0;
"6" = 0;
"7" = 0;
"8" = 0;
"9" = 0;
};
};
width = 662;
},
{
anchors = (
{
name = bottom;
position = "{350, 0}";
},
{
name = top;
position = "{312, 700}";
}
);
guideLines = (
{
position = "{333, 88}";
}
);
layerId = m003;
paths = (
{
closed = 1;
nodes = (
"218 0 LINE",
"218 80 LINE",
"218 275 LINE",
"349 275 LINE SMOOTH",
"515 275 OFFCURVE",
"586 378 OFFCURVE",
"586 492 CURVE SMOOTH",
"586 616 OFFCURVE",
"501 700 OFFCURVE",
"359 700 CURVE SMOOTH",
"82 700 LINE",
"82 620 LINE",
"82 80 LINE",
"82 0 LINE"
);
},
{
closed = 1;
nodes = (
"630 0 LINE",
"466 254 LINE",
"396 330 LINE",
"256 330 LINE",
"420 80 LINE",
"474 0 LINE"
);
},
{
closed = 1;
nodes = (
"218 581 LINE",
"330 581 LINE SMOOTH",
"398 581 OFFCURVE",
"441 553 OFFCURVE",
"441 486 CURVE SMOOTH",
"441 418 OFFCURVE",
"398 390 OFFCURVE",
"332 390 CURVE SMOOTH",
"218 390 LINE"
);
}
);
userData = {
com.hugojourdan.ColorFlow = {
"0" = 0;
"1" = 0;
"10" = 0;
"11" = 0;
"2" = 0;
"3" = 0;
"4" = 0;
"5" = 0;
"6" = 0;
"7" = 0;
"8" = 0;
"9" = 0;
};
};
width = 662;
},
{
anchors = (
{
name = bottom;
position = "{350, 0}";
},
{
name = top;
position = "{312, 700}";
}
);
guideLines = (
{
position = "{425, 88}";
}
);
layerId = m004;
paths = (
{
closed = 1;
nodes = (
"228 0 LINE",
"218 80 LINE",
"218 275 LINE",
"349 275 LINE SMOOTH",
"515 275 OFFCURVE",
"586 378 OFFCURVE",
"586 492 CURVE SMOOTH",
"586 616 OFFCURVE",
"501 700 OFFCURVE",
"359 700 CURVE SMOOTH",
"72 700 LINE",
"82 620 LINE",
"82 80 LINE",
"72 0 LINE"
);
},
{
closed = 1;
nodes = (
"630 0 LINE",
"466 254 LINE",
"371 330 LINE",
"256 330 LINE",
"420 80 LINE",
"464 0 LINE"
);
},
{
closed = 1;
nodes = (
"218 581 LINE",
"330 581 LINE SMOOTH",
"398 581 OFFCURVE",
"441 553 OFFCURVE",
"441 486 CURVE SMOOTH",
"441 418 OFFCURVE",
"398 390 OFFCURVE",
"332 390 CURVE",
"218 390 LINE"
);
}
);
userData = {
com.hugojourdan.ColorFlow = {
"0" = 0;
"1" = 0;
"10" = 0;
"11" = 0;
"2" = 0;
"3" = 0;
"4" = 0;
"5" = 0;
"6" = 0;
"7" = 0;
"8" = 0;
"9" = 0;
};
};
width = 662;
}
);
leftKerningGroup = KO_H;
leftMetricsKey = H;
rightKerningGroup = KO_R;
unicode = 0052;
userData = {
KernOnName = R;
};
},
{
glyphname = S;
lastChange = "2023-08-11 09:49:00 +0000";
layers = (
{
anchors = (
{
name = bottom;
position = "{301, 0}";
},
{
name = top;
position = "{309, 700}";
}
);
background = {
paths = (
{
closed = 1;
nodes = (
"413 -11 OFFCURVE",
"533 33 OFFCURVE",
"533 174 CURVE SMOOTH",
"533 413 OFFCURVE",
"178 364 OFFCURVE",
"178 531 CURVE SMOOTH",
"178 597 OFFCURVE",
"233 632 OFFCURVE",
"316 632 CURVE SMOOTH",
"367 632 OFFCURVE",
"430 618 OFFCURVE",
"483 592 CURVE",
"487 594 LINE",
"487 676 LINE",
"431 699 OFFCURVE",
"370 712 OFFCURVE",
"313 712 CURVE SMOOTH",
"195 712 OFFCURVE",
"90 656 OFFCURVE",
"90 527 CURVE SMOOTH",
"90 293 OFFCURVE",
"445 342 OFFCURVE",
"445 170 CURVE SMOOTH",
"445 103 OFFCURVE",
"391 68 OFFCURVE",
"287 68 CURVE SMOOTH",
"211 68 OFFCURVE",
"141 87 OFFCURVE",
"84 122 CURVE",
"80 120 LINE",
"80 34 LINE",
"140 6 OFFCURVE",
"212 -13 OFFCURVE",
"293 -12 CURVE SMOOTH"
);
}
);
};
layerId = "993DDA7B-BC4C-4F4B-ACF9-716C764D536A";
paths = (
{
closed = 1;
nodes = (
"420 -11 OFFCURVE",
"533 39 OFFCURVE",
"533 175 CURVE SMOOTH",
"533 415 OFFCURVE",
"178 365 OFFCURVE",
"178 530 CURVE SMOOTH",
"178 597 OFFCURVE",
"237 632 OFFCURVE",
"319 632 CURVE SMOOTH",
"371 632 OFFCURVE",
"421 618 OFFCURVE",
"467 590 CURVE",
"487 600 LINE",
"487 676 LINE",
"428 701 OFFCURVE",
"366 712 OFFCURVE",
"313 712 CURVE SMOOTH",
"196 712 OFFCURVE",
"90 657 OFFCURVE",
"90 528 CURVE SMOOTH",
"90 291 OFFCURVE",
"445 341 OFFCURVE",
"445 172 CURVE SMOOTH",
"445 102 OFFCURVE",
"384 68 OFFCURVE",
"284 68 CURVE SMOOTH",
"209 68 OFFCURVE",
"154 87 OFFCURVE",
"100 120 CURVE",
"80 110 LINE",
"80 34 LINE",
"139 6 OFFCURVE",
"216 -13 OFFCURVE",
"295 -12 CURVE SMOOTH"
);
}
);
userData = {
com.hugojourdan.ColorFlow = {
"0" = 0;
"1" = 0;
"10" = 0;
"11" = 0;
"2" = 0;
"3" = 0;
"4" = 0;
"5" = 0;
"6" = 0;
"7" = 0;
"8" = 0;
"9" = 0;
};
};
width = 603;
},
{
associatedMasterId = "993DDA7B-BC4C-4F4B-ACF9-716C764D536A";
background = {
paths = (
{
closed = 1;
nodes = (
"70 326 OFFCURVE",
"40 405 OFFCURVE",
"40 484 CURVE SMOOTH",
"40 602 OFFCURVE",
"141 672 OFFCURVE",
"262 672 CURVE SMOOTH",
"328 672 OFFCURVE",
"402 660 OFFCURVE",
"469 626 CURVE",
"469 502 LINE",
"423 502 LINE",
"391 553 OFFCURVE",
"353 594 OFFCURVE",
"260 594 CURVE SMOOTH",
"211 594 OFFCURVE",
"147 570 OFFCURVE",
"147 503 CURVE SMOOTH",
"147 436 OFFCURVE",
"203 413 OFFCURVE",
"309 373 CURVE SMOOTH",
"430 327 OFFCURVE",
"495 267 OFFCURVE",
"495 173 CURVE SMOOTH",
"495 60 OFFCURVE",
"397 -11 OFFCURVE",
"250 -11 CURVE SMOOTH",
"183 -11 OFFCURVE",
"108 8 OFFCURVE",
"40 34 CURVE",
"40 158 LINE",
"89 158 LINE",
"114 98 OFFCURVE",
"197 67 OFFCURVE",
"250 67 CURVE SMOOTH",
"317 67 OFFCURVE",
"377 87 OFFCURVE",
"377 155 CURVE SMOOTH",
"377 206 OFFCURVE",
"328 248 OFFCURVE",
"232 277 CURVE SMOOTH"
);
}
);
};
layerId = "4D162181-BDD6-4C4A-9971-8A6768C52BA0";
name = "Mar 23 18, 17:37";
paths = (
{
closed = 1;
nodes = (
"64 322 OFFCURVE",
"55 438 OFFCURVE",
"55 492 CURVE SMOOTH",
"55 592 OFFCURVE",
"141 670 OFFCURVE",
"262 670 CURVE SMOOTH",
"338 670 OFFCURVE",
"408 657 OFFCURVE",
"475 623 CURVE",
"475 499 LINE",
"429 499 LINE",
"397 550 OFFCURVE",
"341 592 OFFCURVE",
"260 592 CURVE SMOOTH",
"201 592 OFFCURVE",
"153 562 OFFCURVE",
"153 502 CURVE SMOOTH",
"153 441 OFFCURVE",
"187 405 OFFCURVE",
"319 368 CURVE SMOOTH",
"447 332 OFFCURVE",
"497 253 OFFCURVE",
"497 168 CURVE SMOOTH",
"497 53 OFFCURVE",
"406 -11 OFFCURVE",
"260 -11 CURVE SMOOTH",
"178 -11 OFFCURVE",
"118 1 OFFCURVE",
"57 34 CURVE",
"57 158 LINE",
"116 158 LINE",
"138 99 OFFCURVE",
"198 67 OFFCURVE",
"269 67 CURVE SMOOTH",
"325 67 OFFCURVE",
"394 89 OFFCURVE",
"394 155 CURVE SMOOTH",
"394 214 OFFCURVE",
"342 250 OFFCURVE",
"242 276 CURVE SMOOTH"
);
}
);
width = 530;
},
{
anchors = (
{
name = bottom;
position = "{301, 0}";
},
{
name = top;
position = "{309, 700}";
}
);
layerId = "C7F1792A-1FE9-4A21-B628-190BF571D00B";
paths = (
{
closed = 1;
nodes = (
"413 -11 OFFCURVE",
"533 33 OFFCURVE",
"533 173 CURVE SMOOTH",
"533 414 OFFCURVE",
"178 364 OFFCURVE",
"178 531 CURVE SMOOTH",
"178 597 OFFCURVE",
"233 632 OFFCURVE",
"316 632 CURVE SMOOTH",
"367 632 OFFCURVE",
"430 618 OFFCURVE",
"483 592 CURVE",
"487 594 LINE",
"487 676 LINE",
"431 699 OFFCURVE",
"370 712 OFFCURVE",
"313 712 CURVE SMOOTH",
"195 712 OFFCURVE",
"90 656 OFFCURVE",
"90 528 CURVE SMOOTH",
"90 292 OFFCURVE",
"445 342 OFFCURVE",
"445 170 CURVE SMOOTH",
"445 103 OFFCURVE",
"391 68 OFFCURVE",
"287 68 CURVE SMOOTH",
"211 68 OFFCURVE",
"141 87 OFFCURVE",
"84 122 CURVE",
"80 120 LINE",
"80 34 LINE",
"140 6 OFFCURVE",
"212 -13 OFFCURVE",
"293 -12 CURVE SMOOTH"
);
}
);
userData = {
com.hugojourdan.ColorFlow = {
"0" = 0;
"1" = 0;
"10" = 0;
"11" = 0;
"2" = 0;
"3" = 0;
"4" = 0;
"5" = 0;
"6" = 0;
"7" = 0;
"8" = 0;
"9" = 0;
};
};
width = 603;
},
{
anchors = (
{
name = bottom;
position = "{293, 0}";
},
{
name = top;
position = "{293, 700}";
}
);
layerId = m003;
paths = (
{
closed = 1;
nodes = (
"437 -10 OFFCURVE",
"532 62 OFFCURVE",
"532 195 CURVE SMOOTH",
"532 441 OFFCURVE",
"206 374 OFFCURVE",
"206 509 CURVE SMOOTH",
"206 575 OFFCURVE",
"284 586 OFFCURVE",
"330 586 CURVE SMOOTH",
"381 586 OFFCURVE",
"440 573 OFFCURVE",
"491 549 CURVE",
"495 551 LINE",
"495 676 LINE",
"441 698 OFFCURVE",
"378 712 OFFCURVE",
"309 712 CURVE SMOOTH",
"159 712 OFFCURVE",
"64 645 OFFCURVE",
"64 507 CURVE SMOOTH",
"64 251 OFFCURVE",
"390 326 OFFCURVE",
"390 189 CURVE SMOOTH",
"390 134 OFFCURVE",
"336 114 OFFCURVE",
"264 114 CURVE SMOOTH",
"186 114 OFFCURVE",
"119 136 OFFCURVE",
"68 166 CURVE",
"64 164 LINE",
"64 38 LINE",
"120 7 OFFCURVE",
"185 -13 OFFCURVE",
"273 -12 CURVE SMOOTH"
);
}
);
userData = {
com.hugojourdan.ColorFlow = {
"0" = 0;
"1" = 0;
"10" = 0;
"11" = 0;
"2" = 0;
"3" = 0;
"4" = 0;
"5" = 0;
"6" = 0;
"7" = 0;
"8" = 0;
"9" = 0;
};
};
width = 586;
},
{
associatedMasterId = m003;
background = {
paths = (
{
closed = 1;
nodes = (
"70 326 OFFCURVE",
"40 405 OFFCURVE",
"40 484 CURVE SMOOTH",
"40 602 OFFCURVE",
"141 672 OFFCURVE",
"262 672 CURVE SMOOTH",
"328 672 OFFCURVE",
"402 660 OFFCURVE",
"469 626 CURVE",
"469 502 LINE",
"423 502 LINE",
"391 553 OFFCURVE",
"353 594 OFFCURVE",
"260 594 CURVE SMOOTH",
"211 594 OFFCURVE",
"147 570 OFFCURVE",
"147 503 CURVE SMOOTH",
"147 436 OFFCURVE",
"203 413 OFFCURVE",
"309 373 CURVE SMOOTH",
"430 327 OFFCURVE",
"495 267 OFFCURVE",
"495 173 CURVE SMOOTH",
"495 60 OFFCURVE",
"397 -11 OFFCURVE",
"250 -11 CURVE SMOOTH",
"183 -11 OFFCURVE",
"108 8 OFFCURVE",
"40 34 CURVE",
"40 158 LINE",
"89 158 LINE",
"114 98 OFFCURVE",
"197 67 OFFCURVE",
"250 67 CURVE SMOOTH",
"317 67 OFFCURVE",
"377 87 OFFCURVE",
"377 155 CURVE SMOOTH",
"377 206 OFFCURVE",
"328 248 OFFCURVE",
"232 277 CURVE SMOOTH"
);
}
);
};
layerId = "76D8063E-F0CF-43B1-8B7E-CB054CDB4222";
name = "Mar 23 18, 17:37";
paths = (
{
closed = 1;
nodes = (
"64 322 OFFCURVE",
"55 438 OFFCURVE",
"55 492 CURVE SMOOTH",
"55 592 OFFCURVE",
"141 670 OFFCURVE",
"262 670 CURVE SMOOTH",
"338 670 OFFCURVE",
"408 657 OFFCURVE",
"475 623 CURVE",
"475 499 LINE",
"429 499 LINE",
"397 550 OFFCURVE",
"341 592 OFFCURVE",
"260 592 CURVE SMOOTH",
"201 592 OFFCURVE",
"153 562 OFFCURVE",
"153 502 CURVE SMOOTH",
"153 441 OFFCURVE",
"187 405 OFFCURVE",
"319 368 CURVE SMOOTH",
"447 332 OFFCURVE",
"497 253 OFFCURVE",
"497 168 CURVE SMOOTH",
"497 53 OFFCURVE",
"406 -11 OFFCURVE",
"260 -11 CURVE SMOOTH",
"178 -11 OFFCURVE",
"118 1 OFFCURVE",
"57 34 CURVE",
"57 158 LINE",
"116 158 LINE",
"138 99 OFFCURVE",
"198 67 OFFCURVE",
"269 67 CURVE SMOOTH",
"325 67 OFFCURVE",
"394 89 OFFCURVE",
"394 155 CURVE SMOOTH",
"394 214 OFFCURVE",
"342 250 OFFCURVE",
"242 276 CURVE SMOOTH"
);
}
);
width = 530;
},
{
anchors = (
{
name = bottom;
position = "{293, 0}";
},
{
name = top;
position = "{293, 700}";
}
);
layerId = m004;
paths = (
{
closed = 1;
nodes = (
"437 -10 OFFCURVE",
"532 62 OFFCURVE",
"532 195 CURVE SMOOTH",
"532 441 OFFCURVE",
"206 374 OFFCURVE",
"206 509 CURVE SMOOTH",
"206 575 OFFCURVE",
"284 586 OFFCURVE",
"330 586 CURVE SMOOTH",
"381 586 OFFCURVE",
"430 573 OFFCURVE",
"471 549 CURVE",
"495 559 LINE",
"495 676 LINE",
"441 698 OFFCURVE",
"378 712 OFFCURVE",
"309 712 CURVE SMOOTH",
"159 712 OFFCURVE",
"64 645 OFFCURVE",
"64 507 CURVE SMOOTH",
"64 251 OFFCURVE",
"390 326 OFFCURVE",
"390 189 CURVE SMOOTH",
"390 134 OFFCURVE",
"337 114 OFFCURVE",
"262 114 CURVE SMOOTH",
"187 114 OFFCURVE",
"132 134 OFFCURVE",
"88 166 CURVE",
"64 156 LINE",
"64 38 LINE",
"120 7 OFFCURVE",
"185 -13 OFFCURVE",
"273 -12 CURVE SMOOTH"
);
}
);
userData = {
com.hugojourdan.ColorFlow = {
"0" = 0;
"1" = 0;
"10" = 0;
"11" = 0;
"2" = 0;
"3" = 0;
"4" = 0;
"5" = 0;
"6" = 0;
"7" = 0;
"8" = 0;
"9" = 0;
};
};
width = 586;
},
{
associatedMasterId = m004;
background = {
paths = (
{
closed = 1;
nodes = (
"70 326 OFFCURVE",
"40 405 OFFCURVE",
"40 484 CURVE SMOOTH",
"40 602 OFFCURVE",
"141 672 OFFCURVE",
"262 672 CURVE SMOOTH",
"328 672 OFFCURVE",
"402 660 OFFCURVE",
"469 626 CURVE",
"469 502 LINE",
"423 502 LINE",
"391 553 OFFCURVE",
"353 594 OFFCURVE",
"260 594 CURVE SMOOTH",
"211 594 OFFCURVE",
"147 570 OFFCURVE",
"147 503 CURVE SMOOTH",
"147 436 OFFCURVE",
"203 413 OFFCURVE",
"309 373 CURVE SMOOTH",
"430 327 OFFCURVE",
"495 267 OFFCURVE",
"495 173 CURVE SMOOTH",
"495 60 OFFCURVE",
"397 -11 OFFCURVE",
"250 -11 CURVE SMOOTH",
"183 -11 OFFCURVE",
"108 8 OFFCURVE",
"40 34 CURVE",
"40 158 LINE",
"89 158 LINE",
"114 98 OFFCURVE",
"197 67 OFFCURVE",
"250 67 CURVE SMOOTH",
"317 67 OFFCURVE",
"377 87 OFFCURVE",
"377 155 CURVE SMOOTH",
"377 206 OFFCURVE",
"328 248 OFFCURVE",
"232 277 CURVE SMOOTH"
);
}
);
};
layerId = "69A58EFF-E2B3-4D4D-9799-EB0C47658CFC";
name = "Mar 23 18, 17:37";
paths = (
{
closed = 1;
nodes = (
"64 322 OFFCURVE",
"55 438 OFFCURVE",
"55 492 CURVE SMOOTH",
"55 592 OFFCURVE",
"141 670 OFFCURVE",
"262 670 CURVE SMOOTH",
"338 670 OFFCURVE",
"408 657 OFFCURVE",
"475 623 CURVE",
"475 499 LINE",
"429 499 LINE",
"397 550 OFFCURVE",
"341 592 OFFCURVE",
"260 592 CURVE SMOOTH",
"201 592 OFFCURVE",
"153 562 OFFCURVE",
"153 502 CURVE SMOOTH",
"153 441 OFFCURVE",
"187 405 OFFCURVE",
"319 368 CURVE SMOOTH",
"447 332 OFFCURVE",
"497 253 OFFCURVE",
"497 168 CURVE SMOOTH",
"497 53 OFFCURVE",
"406 -11 OFFCURVE",
"260 -11 CURVE SMOOTH",
"178 -11 OFFCURVE",
"118 1 OFFCURVE",
"57 34 CURVE",
"57 158 LINE",
"116 158 LINE",
"138 99 OFFCURVE",
"198 67 OFFCURVE",
"269 67 CURVE SMOOTH",
"325 67 OFFCURVE",
"394 89 OFFCURVE",
"394 155 CURVE SMOOTH",
"394 214 OFFCURVE",
"342 250 OFFCURVE",
"242 276 CURVE SMOOTH"
);
}
);
width = 530;
},
{
anchors = (
{
name = bottom;
position = "{301, 0}";
},
{
name = top;
position = "{309, 700}";
}
);
associatedMasterId = "993DDA7B-BC4C-4F4B-ACF9-716C764D536A";
layerId = "37AAA418-F824-47E0-A02A-92C51A201A0C";
name = "9 Nov 22, 11:09";
paths = (
{
closed = 1;
nodes = (
"421 -11 OFFCURVE",
"533 39 OFFCURVE",
"533 176 CURVE SMOOTH",
"533 418 OFFCURVE",
"182 368 OFFCURVE",
"182 532 CURVE SMOOTH",
"182 597 OFFCURVE",
"237 632 OFFCURVE",
"321 632 CURVE SMOOTH",
"370 632 OFFCURVE",
"421 618 OFFCURVE",
"467 590 CURVE",
"487 600 LINE",
"487 676 LINE",
"428 701 OFFCURVE",
"366 712 OFFCURVE",
"313 712 CURVE SMOOTH",
"196 712 OFFCURVE",
"90 657 OFFCURVE",
"90 526 CURVE SMOOTH",
"90 287 OFFCURVE",
"441 339 OFFCURVE",
"441 170 CURVE SMOOTH",
"441 103 OFFCURVE",
"385 68 OFFCURVE",
"283 68 CURVE SMOOTH",
"209 68 OFFCURVE",
"154 87 OFFCURVE",
"100 120 CURVE",
"80 110 LINE",
"80 34 LINE",
"139 6 OFFCURVE",
"216 -13 OFFCURVE",
"295 -12 CURVE SMOOTH"
);
}
);
userData = {
com.hugojourdan.ColorFlow = {
"0" = 0;
"1" = 0;
"10" = 0;
"11" = 0;
"2" = 0;
"3" = 0;
"4" = 0;
"5" = 0;
"6" = 0;
"7" = 0;
"8" = 0;
"9" = 0;
};
};
width = 603;
}
);
leftKerningGroup = KO_S;
rightKerningGroup = KO_S;
unicode = 0053;
userData = {
KernOnName = S;
};
},
{
glyphname = Germandbls;
lastChange = "2023-07-24 08:20:14 +0000";
layers = (
{
layerId = "C7F1792A-1FE9-4A21-B628-190BF571D00B";
paths = (
{
closed = 1;
nodes = (
"369 401 LINE",
"369 321 LINE",
"450 321 LINE SMOOTH",
"524 321 OFFCURVE",
"583 278 OFFCURVE",
"583 198 CURVE SMOOTH",
"583 119 OFFCURVE",
"524 62 OFFCURVE",
"420 62 CURVE SMOOTH",
"370 62 OFFCURVE",
"309 75 OFFCURVE",
"254 114 CURVE",
"252 112 LINE",
"252 27 LINE",
"295 1 OFFCURVE",
"353 -12 OFFCURVE",
"415 -12 CURVE SMOOTH",
"565 -12 OFFCURVE",
"669 67 OFFCURVE",
"669 195 CURVE SMOOTH",
"669 279 OFFCURVE",
"625 388 OFFCURVE",
"492 396 CURVE",
"458 390 LINE",
"458 392 LINE",
"583 515 LINE",
"583 644 OFFCURVE",
"493 700 OFFCURVE",
"348 700 CURVE SMOOTH",
"196 700 OFFCURVE",
"90 638 OFFCURVE",
"90 452 CURVE SMOOTH",
"90 80 LINE",
"90 0 LINE",
"174 0 LINE",
"174 80 LINE",
"174 452 LINE SMOOTH",
"174 579 OFFCURVE",
"240 626 OFFCURVE",
"355 626 CURVE SMOOTH",
"447 626 OFFCURVE",
"498 596 OFFCURVE",
"498 533 CURVE"
);
}
);
width = 701;
},
{
layerId = "993DDA7B-BC4C-4F4B-ACF9-716C764D536A";
paths = (
{
closed = 1;
nodes = (
"369 401 LINE",
"369 321 LINE",
"450 321 LINE SMOOTH",
"524 321 OFFCURVE",
"583 278 OFFCURVE",
"583 198 CURVE SMOOTH",
"583 119 OFFCURVE",
"524 62 OFFCURVE",
"420 62 CURVE SMOOTH",
"370 62 OFFCURVE",
"322 75 OFFCURVE",
"272 114 CURVE",
"252 104 LINE",
"252 27 LINE",
"295 1 OFFCURVE",
"353 -12 OFFCURVE",
"415 -12 CURVE SMOOTH",
"565 -12 OFFCURVE",
"669 67 OFFCURVE",
"669 195 CURVE SMOOTH",
"669 279 OFFCURVE",
"625 388 OFFCURVE",
"492 396 CURVE",
"446 371 LINE",
"446 379 LINE",
"583 515 LINE",
"583 644 OFFCURVE",
"493 700 OFFCURVE",
"348 700 CURVE SMOOTH",
"196 700 OFFCURVE",
"90 638 OFFCURVE",
"90 452 CURVE SMOOTH",
"90 80 LINE",
"80 0 LINE",
"184 0 LINE",
"174 80 LINE",
"174 452 LINE SMOOTH",
"174 579 OFFCURVE",
"240 626 OFFCURVE",
"355 626 CURVE SMOOTH",
"447 626 OFFCURVE",
"498 596 OFFCURVE",
"498 533 CURVE"
);
}
);
width = 701;
},
{
layerId = m003;
paths = (
{
closed = 1;
nodes = (
"363 411 LINE",
"363 291 LINE",
"464 291 LINE SMOOTH",
"538 291 OFFCURVE",
"565 247 OFFCURVE",
"565 202 CURVE SMOOTH",
"565 150 OFFCURVE",
"528 102 OFFCURVE",
"439 102 CURVE SMOOTH",
"393 102 OFFCURVE",
"328 115 OFFCURVE",
"278 154 CURVE",
"276 152 LINE",
"276 27 LINE",
"319 1 OFFCURVE",
"376 -12 OFFCURVE",
"442 -12 CURVE SMOOTH",
"605 -12 OFFCURVE",
"711 67 OFFCURVE",
"711 202 CURVE SMOOTH",
"711 288 OFFCURVE",
"667 388 OFFCURVE",
"546 396 CURVE",
"512 388 LINE",
"512 390 LINE",
"637 505 LINE",
"637 654 OFFCURVE",
"505 700 OFFCURVE",
"367 700 CURVE SMOOTH",
"209 700 OFFCURVE",
"72 639 OFFCURVE",
"72 452 CURVE SMOOTH",
"72 80 LINE",
"72 0 LINE",
"210 0 LINE",
"210 80 LINE",
"210 442 LINE SMOOTH",
"210 535 OFFCURVE",
"234 579 OFFCURVE",
"357 579 CURVE SMOOTH",
"451 579 OFFCURVE",
"471 548 OFFCURVE",
"471 514 CURVE"
);
}
);
width = 741;
},
{
layerId = m004;
paths = (
{
closed = 1;
nodes = (
"363 411 LINE",
"363 291 LINE",
"464 291 LINE SMOOTH",
"538 291 OFFCURVE",
"565 247 OFFCURVE",
"565 202 CURVE SMOOTH",
"565 150 OFFCURVE",
"528 102 OFFCURVE",
"439 102 CURVE SMOOTH",
"393 102 OFFCURVE",
"346 115 OFFCURVE",
"296 154 CURVE",
"276 144 LINE",
"276 27 LINE",
"319 1 OFFCURVE",
"376 -12 OFFCURVE",
"442 -12 CURVE SMOOTH",
"605 -12 OFFCURVE",
"711 67 OFFCURVE",
"711 202 CURVE SMOOTH",
"711 288 OFFCURVE",
"667 388 OFFCURVE",
"546 396 CURVE",
"500 371 LINE",
"500 379 LINE",
"637 505 LINE",
"637 654 OFFCURVE",
"505 700 OFFCURVE",
"367 700 CURVE SMOOTH",
"209 700 OFFCURVE",
"72 639 OFFCURVE",
"72 452 CURVE SMOOTH",
"72 80 LINE",
"62 0 LINE",
"221 0 LINE",
"211 80 LINE",
"211 442 LINE SMOOTH",
"211 535 OFFCURVE",
"245 579 OFFCURVE",
"357 579 CURVE SMOOTH",
"451 579 OFFCURVE",
"471 548 OFFCURVE",
"471 514 CURVE"
);
}
);
width = 741;
}
);
rightMetricsKey = "=B-20";
unicode = 1E9E;
},
{
glyphname = T;
lastChange = "2023-08-11 09:49:00 +0000";
layers = (
{
anchors = (
{
name = bottom;
position = "{288, 0}";
},
{
name = center;
position = "{290, 350}";
},
{
name = top;
position = "{290, 700}";
}
);
layerId = "993DDA7B-BC4C-4F4B-ACF9-716C764D536A";
paths = (
{
closed = 1;
nodes = (
"341 0 LINE",
"331 80 LINE",
"331 664 LINE",
"246 664 LINE",
"246 80 LINE",
"236 0 LINE"
);
},
{
closed = 1;
nodes = (
"88 622 LINE",
"489 622 LINE",
"549 612 LINE",
"549 700 LINE",
"28 700 LINE",
"28 612 LINE"
);
}
);
userData = {
com.hugojourdan.ColorFlow = {
"0" = 0;
"1" = 0;
"10" = 0;
"11" = 0;
"2" = 0;
"3" = 0;
"4" = 0;
"5" = 0;
"6" = 0;
"7" = 0;
"8" = 0;
"9" = 0;
};
};
width = 577;
},
{
anchors = (
{
name = bottom;
position = "{288, 0}";
},
{
name = center;
position = "{289, 350}";
},
{
name = top;
position = "{288, 700}";
}
);
layerId = "C7F1792A-1FE9-4A21-B628-190BF571D00B";
paths = (
{
closed = 1;
nodes = (
"331 0 LINE",
"331 80 LINE",
"331 664 LINE",
"246 664 LINE",
"246 80 LINE",
"246 0 LINE"
);
},
{
closed = 1;
nodes = (
"88 622 LINE",
"489 622 LINE",
"549 622 LINE",
"549 700 LINE",
"28 700 LINE",
"28 622 LINE"
);
}
);
userData = {
com.hugojourdan.ColorFlow = {
"0" = 0;
"1" = 0;
"10" = 0;
"11" = 0;
"2" = 0;
"3" = 0;
"4" = 0;
"5" = 0;
"6" = 0;
"7" = 0;
"8" = 0;
"9" = 0;
};
};
width = 577;
},
{
anchors = (
{
name = bottom;
position = "{287, 0}";
},
{
name = center;
position = "{288, 350}";
},
{
name = top;
position = "{287, 700}";
}
);
layerId = m003;
paths = (
{
closed = 1;
nodes = (
"356 0 LINE",
"356 80 LINE",
"356 644 LINE",
"218 644 LINE",
"218 80 LINE",
"218 0 LINE"
);
},
{
closed = 1;
nodes = (
"80 578 LINE",
"494 578 LINE",
"554 578 LINE",
"554 700 LINE",
"20 700 LINE",
"20 578 LINE"
);
}
);
userData = {
com.hugojourdan.ColorFlow = {
"0" = 0;
"1" = 0;
"10" = 0;
"11" = 0;
"2" = 0;
"3" = 0;
"4" = 0;
"5" = 0;
"6" = 0;
"7" = 0;
"8" = 0;
"9" = 0;
};
};
width = 574;
},
{
anchors = (
{
name = bottom;
position = "{287, 0}";
},
{
name = center;
position = "{288, 350}";
},
{
name = top;
position = "{287, 700}";
}
);
layerId = m004;
paths = (
{
closed = 1;
nodes = (
"366 0 LINE",
"356 80 LINE",
"356 644 LINE",
"218 644 LINE",
"218 80 LINE",
"208 0 LINE"
);
},
{
closed = 1;
nodes = (
"80 578 LINE",
"494 578 LINE",
"554 568 LINE",
"554 700 LINE",
"20 700 LINE",
"20 568 LINE"
);
}
);
userData = {
com.hugojourdan.ColorFlow = {
"0" = 0;
"1" = 0;
"10" = 0;
"11" = 0;
"2" = 0;
"3" = 0;
"4" = 0;
"5" = 0;
"6" = 0;
"7" = 0;
"8" = 0;
"9" = 0;
};
};
width = 574;
}
);
leftKerningGroup = KO_T;
rightKerningGroup = KO_T;
unicode = 0054;
userData = {
KernOnName = T;
};
},
{
glyphname = U;
lastChange = "2023-08-11 09:49:00 +0000";
layers = (
{
anchors = (
{
name = bottom;
position = "{370, 0}";
},
{
name = ogonek;
position = "{470, 0}";
},
{
name = top;
position = "{370, 700}";
},
{
name = topright;
position = "{706, 700}";
}
);
guideLines = (
{
position = "{291, 240}";
}
);
layerId = "993DDA7B-BC4C-4F4B-ACF9-716C764D536A";
paths = (
{
closed = 1;
nodes = (
"565 -12 OFFCURVE",
"650 108 OFFCURVE",
"650 258 CURVE SMOOTH",
"650 620 LINE",
"660 700 LINE",
"555 700 LINE",
"565 620 LINE",
"565 262 LINE SMOOTH",
"565 144 OFFCURVE",
"509 66 OFFCURVE",
"371 66 CURVE SMOOTH",
"231 66 OFFCURVE",
"175 144 OFFCURVE",
"175 262 CURVE SMOOTH",
"175 620 LINE",
"185 700 LINE",
"80 700 LINE",
"90 620 LINE",
"90 258 LINE SMOOTH",
"90 108 OFFCURVE",
"175 -12 OFFCURVE",
"371 -12 CURVE SMOOTH"
);
}
);
userData = {
com.hugojourdan.ColorFlow = {
"0" = 0;
"1" = 0;
"10" = 0;
"11" = 0;
"2" = 0;
"3" = 0;
"4" = 0;
"5" = 0;
"6" = 0;
"7" = 0;
"8" = 0;
"9" = 0;
};
};
width = 740;
},
{
anchors = (
{
name = bottom;
position = "{370, 0}";
},
{
name = ogonek;
position = "{467, 0}";
},
{
name = top;
position = "{370, 700}";
},
{
name = topright;
position = "{706, 700}";
}
);
layerId = "C7F1792A-1FE9-4A21-B628-190BF571D00B";
paths = (
{
closed = 1;
nodes = (
"565 -12 OFFCURVE",
"650 108 OFFCURVE",
"650 258 CURVE SMOOTH",
"650 620 LINE",
"650 700 LINE",
"565 700 LINE",
"565 620 LINE",
"565 262 LINE SMOOTH",
"565 144 OFFCURVE",
"509 66 OFFCURVE",
"371 66 CURVE SMOOTH",
"231 66 OFFCURVE",
"175 144 OFFCURVE",
"175 262 CURVE SMOOTH",
"175 620 LINE",
"175 700 LINE",
"90 700 LINE",
"90 620 LINE",
"90 258 LINE SMOOTH",
"90 108 OFFCURVE",
"175 -12 OFFCURVE",
"371 -12 CURVE SMOOTH"
);
}
);
userData = {
com.hugojourdan.ColorFlow = {
"0" = 0;
"1" = 0;
"10" = 0;
"11" = 0;
"2" = 0;
"3" = 0;
"4" = 0;
"5" = 0;
"6" = 0;
"7" = 0;
"8" = 0;
"9" = 0;
};
};
width = 740;
},
{
anchors = (
{
name = bottom;
position = "{365, 0}";
},
{
name = ogonek;
position = "{471, 1}";
},
{
name = top;
position = "{365, 700}";
},
{
name = topright;
position = "{630, 628}";
}
);
guideLines = (
{
position = "{307, 240}";
}
);
layerId = m003;
paths = (
{
closed = 1;
nodes = (
"573 -12 OFFCURVE",
"658 103 OFFCURVE",
"658 258 CURVE SMOOTH",
"658 620 LINE",
"658 700 LINE",
"520 700 LINE",
"520 620 LINE",
"520 262 LINE SMOOTH",
"520 162 OFFCURVE",
"464 114 OFFCURVE",
"367 114 CURVE SMOOTH",
"271 114 OFFCURVE",
"210 162 OFFCURVE",
"210 262 CURVE SMOOTH",
"210 620 LINE",
"210 700 LINE",
"72 700 LINE",
"72 620 LINE",
"72 258 LINE SMOOTH",
"72 103 OFFCURVE",
"157 -12 OFFCURVE",
"365 -12 CURVE SMOOTH"
);
}
);
userData = {
com.hugojourdan.ColorFlow = {
"0" = 0;
"1" = 0;
"10" = 0;
"11" = 0;
"2" = 0;
"3" = 0;
"4" = 0;
"5" = 0;
"6" = 0;
"7" = 0;
"8" = 0;
"9" = 0;
};
};
width = 730;
},
{
anchors = (
{
name = bottom;
position = "{365, 0}";
},
{
name = ogonek;
position = "{471, 1}";
},
{
name = top;
position = "{365, 700}";
},
{
name = topright;
position = "{630, 628}";
}
);
layerId = m004;
paths = (
{
closed = 1;
nodes = (
"573 -12 OFFCURVE",
"658 103 OFFCURVE",
"658 258 CURVE SMOOTH",
"658 620 LINE",
"668 700 LINE",
"510 700 LINE",
"520 620 LINE",
"520 262 LINE SMOOTH",
"520 162 OFFCURVE",
"464 114 OFFCURVE",
"367 114 CURVE SMOOTH",
"271 114 OFFCURVE",
"210 162 OFFCURVE",
"210 262 CURVE SMOOTH",
"210 620 LINE",
"220 700 LINE",
"62 700 LINE",
"72 620 LINE",
"72 258 LINE SMOOTH",
"72 103 OFFCURVE",
"157 -12 OFFCURVE",
"365 -12 CURVE SMOOTH"
);
}
);
userData = {
com.hugojourdan.ColorFlow = {
"0" = 0;
"1" = 0;
"10" = 0;
"11" = 0;
"2" = 0;
"3" = 0;
"4" = 0;
"5" = 0;
"6" = 0;
"7" = 0;
"8" = 0;
"9" = 0;
};
};
width = 730;
}
);
leftKerningGroup = KO_U;
rightKerningGroup = KO_U;
unicode = 0055;
userData = {
KernOnName = U;
};
},
{
glyphname = V;
lastChange = "2023-08-11 09:49:00 +0000";
layers = (
{
guideLines = (
{
position = "{161, 642}";
},
{
angle = 270;
position = "{325, -82}";
}
);
layerId = "993DDA7B-BC4C-4F4B-ACF9-716C764D536A";
paths = (
{
closed = 1;
nodes = (
"368 0 LINE",
"622 700 LINE",
"522 700 LINE",
"508 642 LINE",
"346 170 LINE",
"330 84 LINE",
"320 84 LINE",
"304 170 LINE",
"142 642 LINE",
"128 700 LINE",
"28 700 LINE",
"282 0 LINE"
);
}
);
userData = {
com.hugojourdan.ColorFlow = {
"0" = 0;
"1" = 0;
"10" = 0;
"11" = 0;
"2" = 0;
"3" = 0;
"4" = 0;
"5" = 0;
"6" = 0;
"7" = 0;
"8" = 0;
"9" = 0;
};
};
width = 650;
},
{
layerId = "C7F1792A-1FE9-4A21-B628-190BF571D00B";
paths = (
{
closed = 1;
nodes = (
"369 0 LINE",
"622 700 LINE",
"528 700 LINE",
"508 642 LINE",
"346 166 LINE",
"326 82 LINE",
"324 82 LINE",
"304 166 LINE",
"142 642 LINE",
"122 700 LINE",
"28 700 LINE",
"281 0 LINE"
);
}
);
userData = {
com.hugojourdan.ColorFlow = {
"0" = 0;
"1" = 0;
"10" = 0;
"11" = 0;
"2" = 0;
"3" = 0;
"4" = 0;
"5" = 0;
"6" = 0;
"7" = 0;
"8" = 0;
"9" = 0;
};
};
width = 650;
},
{
layerId = m003;
paths = (
{
closed = 1;
nodes = (
"413 0 LINE",
"646 700 LINE",
"488 700 LINE",
"472 642 LINE",
"355 225 LINE",
"335 139 LINE",
"331 139 LINE",
"311 225 LINE",
"194 642 LINE",
"178 700 LINE",
"20 700 LINE",
"253 0 LINE"
);
}
);
userData = {
com.hugojourdan.ColorFlow = {
"0" = 0;
"1" = 0;
"10" = 0;
"11" = 0;
"2" = 0;
"3" = 0;
"4" = 0;
"5" = 0;
"6" = 0;
"7" = 0;
"8" = 0;
"9" = 0;
};
};
width = 666;
},
{
layerId = m004;
paths = (
{
closed = 1;
nodes = (
"413 0 LINE",
"646 700 LINE",
"482 700 LINE",
"472 642 LINE",
"355 235 LINE",
"339 139 LINE",
"327 139 LINE",
"311 235 LINE",
"194 642 LINE",
"184 700 LINE",
"20 700 LINE",
"253 0 LINE"
);
}
);
userData = {
com.hugojourdan.ColorFlow = {
"0" = 0;
"1" = 0;
"10" = 0;
"11" = 0;
"2" = 0;
"3" = 0;
"4" = 0;
"5" = 0;
"6" = 0;
"7" = 0;
"8" = 0;
"9" = 0;
};
};
width = 666;
}
);
leftKerningGroup = KO_V;
rightKerningGroup = KO_V;
unicode = 0056;
userData = {
KernOnName = V;
};
},
{
glyphname = W;
lastChange = "2023-08-11 09:49:00 +0000";
layers = (
{
anchors = (
{
name = bottom;
position = "{449, 0}";
},
{
name = top;
position = "{449, 700}";
}
);
guideLines = (
{
position = "{173, 642}";
}
);
layerId = "993DDA7B-BC4C-4F4B-ACF9-716C764D536A";
paths = (
{
closed = 1;
nodes = (
"455 585 LINE",
"472 499 LINE",
"615 0 LINE",
"707 0 LINE",
"886 700 LINE",
"788 700 LINE",
"779 642 LINE",
"673 192 LINE",
"663 102 LINE",
"653 102 LINE",
"641 192 LINE",
"496 690 LINE",
"402 690 LINE",
"258 192 LINE",
"246 102 LINE",
"236 102 LINE",
"226 192 LINE",
"119 642 LINE",
"110 700 LINE",
"12 700 LINE",
"192 0 LINE",
"284 0 LINE",
"427 499 LINE",
"445 585 LINE"
);
}
);
userData = {
com.hugojourdan.ColorFlow = {
"0" = 0;
"1" = 0;
"10" = 0;
"11" = 0;
"2" = 0;
"3" = 0;
"4" = 0;
"5" = 0;
"6" = 0;
"7" = 0;
"8" = 0;
"9" = 0;
};
};
width = 898;
},
{
anchors = (
{
name = bottom;
position = "{449, 0}";
},
{
name = top;
position = "{449, 700}";
}
);
layerId = "C7F1792A-1FE9-4A21-B628-190BF571D00B";
paths = (
{
closed = 1;
nodes = (
"452 585 LINE",
"472 509 LINE",
"615 0 LINE",
"707 0 LINE",
"886 700 LINE",
"792 700 LINE",
"779 642 LINE",
"674 192 LINE",
"660 112 LINE",
"658 112 LINE",
"642 192 LINE",
"497 690 LINE",
"401 690 LINE",
"257 192 LINE",
"241 112 LINE",
"239 112 LINE",
"225 192 LINE",
"119 642 LINE",
"106 700 LINE",
"12 700 LINE",
"192 0 LINE",
"285 0 LINE",
"428 509 LINE",
"449 585 LINE"
);
}
);
userData = {
com.hugojourdan.ColorFlow = {
"0" = 0;
"1" = 0;
"10" = 0;
"11" = 0;
"2" = 0;
"3" = 0;
"4" = 0;
"5" = 0;
"6" = 0;
"7" = 0;
"8" = 0;
"9" = 0;
};
};
width = 898;
},
{
anchors = (
{
name = bottom;
position = "{473, 0}";
},
{
name = top;
position = "{474, 700}";
}
);
guideLines = (
{
position = "{158, 642}";
}
);
layerId = m003;
paths = (
{
closed = 1;
nodes = (
"474 525 LINE",
"495 429 LINE",
"604 0 LINE",
"768 0 LINE",
"938 700 LINE",
"786 700 LINE",
"776 642 LINE",
"698 249 LINE",
"683 139 LINE",
"681 139 LINE",
"666 229 LINE",
"554 690 LINE",
"394 690 LINE",
"280 229 LINE",
"265 139 LINE",
"263 139 LINE",
"248 249 LINE",
"172 642 LINE",
"162 700 LINE",
"10 700 LINE",
"180 0 LINE",
"344 0 LINE",
"451 429 LINE",
"472 525 LINE"
);
}
);
userData = {
com.hugojourdan.ColorFlow = {
"0" = 0;
"1" = 0;
"10" = 0;
"11" = 0;
"2" = 0;
"3" = 0;
"4" = 0;
"5" = 0;
"6" = 0;
"7" = 0;
"8" = 0;
"9" = 0;
};
};
width = 948;
},
{
anchors = (
{
name = bottom;
position = "{474, 0}";
},
{
name = top;
position = "{474, 700}";
}
);
guideLines = (
{
position = "{266, 642}";
}
);
layerId = m004;
paths = (
{
closed = 1;
nodes = (
"478 505 LINE",
"495 389 LINE",
"604 0 LINE",
"768 0 LINE",
"938 700 LINE",
"782 700 LINE",
"776 642 LINE",
"698 259 LINE",
"688 139 LINE",
"678 139 LINE",
"666 259 LINE",
"544 690 LINE",
"404 690 LINE",
"280 259 LINE",
"268 139 LINE",
"258 139 LINE",
"248 259 LINE",
"172 642 LINE",
"166 700 LINE",
"10 700 LINE",
"180 0 LINE",
"344 0 LINE",
"451 389 LINE",
"468 505 LINE"
);
}
);
userData = {
com.hugojourdan.ColorFlow = {
"0" = 0;
"1" = 0;
"10" = 0;
"11" = 0;
"2" = 0;
"3" = 0;
"4" = 0;
"5" = 0;
"6" = 0;
"7" = 0;
"8" = 0;
"9" = 0;
};
};
width = 948;
}
);
leftKerningGroup = KO_W;
rightKerningGroup = KO_W;
unicode = 0057;
userData = {
KernOnName = W;
};
},
{
glyphname = X;
lastChange = "2023-08-11 09:49:00 +0000";
layers = (
{
guideLines = (
{
position = "{176, 642}";
}
);
layerId = "993DDA7B-BC4C-4F4B-ACF9-716C764D536A";
paths = (
{
closed = 1;
nodes = (
"108 0 LINE",
"142 60 LINE",
"282 291 LINE",
"292 321 LINE",
"298 321 LINE",
"308 291 LINE",
"449 60 LINE",
"483 0 LINE",
"580 0 LINE",
"363 350 LINE",
"565 700 LINE",
"467 700 LINE",
"439 642 LINE",
"305 409 LINE",
"297 379 LINE",
"289 379 LINE",
"281 409 LINE",
"148 642 LINE",
"120 700 LINE",
"22 700 LINE",
"225 349 LINE",
"8 0 LINE"
);
}
);
userData = {
com.hugojourdan.ColorFlow = {
"0" = 0;
"1" = 0;
"10" = 0;
"11" = 0;
"2" = 0;
"3" = 0;
"4" = 0;
"5" = 0;
"6" = 0;
"7" = 0;
"8" = 0;
"9" = 0;
};
};
width = 588;
},
{
layerId = "C7F1792A-1FE9-4A21-B628-190BF571D00B";
paths = (
{
closed = 1;
nodes = (
"106 0 LINE",
"142 60 LINE",
"281 291 LINE",
"293 311 LINE",
"295 311 LINE",
"307 291 LINE",
"446 60 LINE",
"482 0 LINE",
"580 0 LINE",
"363 349 LINE",
"565 700 LINE",
"467 700 LINE",
"437 642 LINE",
"305 410 LINE",
"294 390 LINE",
"292 390 LINE",
"281 410 LINE",
"150 642 LINE",
"120 700 LINE",
"22 700 LINE",
"224 349 LINE",
"8 0 LINE"
);
}
);
userData = {
com.hugojourdan.ColorFlow = {
"0" = 0;
"1" = 0;
"10" = 0;
"11" = 0;
"2" = 0;
"3" = 0;
"4" = 0;
"5" = 0;
"6" = 0;
"7" = 0;
"8" = 0;
"9" = 0;
};
};
width = 588;
},
{
guideLines = (
{
position = "{197, 60}";
},
{
position = "{176, 642}";
}
);
layerId = m003;
paths = (
{
closed = 1;
nodes = (
"161 0 LINE",
"196 60 LINE",
"301 244 LINE",
"313 274 LINE",
"315 274 LINE",
"327 244 LINE",
"437 60 LINE",
"472 0 LINE",
"629 0 LINE",
"414 339 LINE",
"607 700 LINE",
"452 700 LINE",
"423 642 LINE",
"330 459 LINE",
"318 429 LINE",
"316 429 LINE",
"304 459 LINE",
"210 642 LINE",
"179 700 LINE",
"26 700 LINE",
"217 359 LINE",
"4 0 LINE"
);
}
);
userData = {
com.hugojourdan.ColorFlow = {
"0" = 0;
"1" = 0;
"10" = 0;
"11" = 0;
"2" = 0;
"3" = 0;
"4" = 0;
"5" = 0;
"6" = 0;
"7" = 0;
"8" = 0;
"9" = 0;
};
};
width = 633;
},
{
layerId = m004;
paths = (
{
closed = 1;
nodes = (
"168 0 LINE",
"196 60 LINE",
"301 234 LINE",
"310 274 LINE",
"318 274 LINE",
"327 234 LINE",
"437 60 LINE",
"465 0 LINE",
"629 0 LINE",
"414 339 LINE",
"606 700 LINE",
"447 700 LINE",
"423 642 LINE",
"329 469 LINE",
"320 429 LINE",
"312 429 LINE",
"303 469 LINE",
"209 642 LINE",
"185 700 LINE",
"26 700 LINE",
"217 359 LINE",
"4 0 LINE"
);
}
);
userData = {
com.hugojourdan.ColorFlow = {
"0" = 0;
"1" = 0;
"10" = 0;
"11" = 0;
"2" = 0;
"3" = 0;
"4" = 0;
"5" = 0;
"6" = 0;
"7" = 0;
"8" = 0;
"9" = 0;
};
};
width = 633;
}
);
leftKerningGroup = KO_X;
rightKerningGroup = KO_X;
unicode = 0058;
userData = {
KernOnName = X;
};
},
{
glyphname = Y;
lastChange = "2023-08-11 09:49:00 +0000";
layers = (
{
anchors = (
{
name = bottom;
position = "{282, 0}";
},
{
name = top;
position = "{282, 700}";
},
{
name = topleft;
position = "{6, 700}";
}
);
guideLines = (
{
position = "{183, 642}";
}
);
layerId = "993DDA7B-BC4C-4F4B-ACF9-716C764D536A";
paths = (
{
closed = 1;
nodes = (
"335 0 LINE",
"325 80 LINE",
"325 280 LINE",
"558 700 LINE",
"457 700 LINE",
"432 642 LINE",
"299 390 LINE",
"287 344 LINE",
"279 344 LINE",
"267 390 LINE",
"132 642 LINE",
"107 700 LINE",
"6 700 LINE",
"241 280 LINE",
"241 80 LINE",
"231 0 LINE"
);
}
);
userData = {
com.hugojourdan.ColorFlow = {
"0" = 0;
"1" = 0;
"10" = 0;
"11" = 0;
"2" = 0;
"3" = 0;
"4" = 0;
"5" = 0;
"6" = 0;
"7" = 0;
"8" = 0;
"9" = 0;
};
};
width = 564;
},
{
anchors = (
{
name = bottom;
position = "{283, 0}";
},
{
name = top;
position = "{282, 700}";
},
{
name = topleft;
position = "{6, 700}";
}
);
layerId = "C7F1792A-1FE9-4A21-B628-190BF571D00B";
paths = (
{
closed = 1;
nodes = (
"325 0 LINE",
"325 80 LINE",
"325 280 LINE",
"558 700 LINE",
"463 700 LINE",
"433 642 LINE",
"299 382 LINE",
"286 354 LINE",
"283 354 LINE",
"268 382 LINE",
"131 642 LINE",
"101 700 LINE",
"6 700 LINE",
"241 280 LINE",
"241 80 LINE",
"241 0 LINE"
);
}
);
userData = {
com.hugojourdan.ColorFlow = {
"0" = 0;
"1" = 0;
"10" = 0;
"11" = 0;
"2" = 0;
"3" = 0;
"4" = 0;
"5" = 0;
"6" = 0;
"7" = 0;
"8" = 0;
"9" = 0;
};
};
width = 564;
},
{
anchors = (
{
name = bottom;
position = "{314, 0}";
},
{
name = top;
position = "{314, 700}";
},
{
name = topleft;
position = "{8, 700}";
}
);
guideLines = (
{
position = "{191, 642}";
}
);
layerId = m003;
paths = (
{
closed = 1;
nodes = (
"381 0 LINE",
"381 80 LINE",
"381 280 LINE",
"614 700 LINE",
"462 700 LINE",
"434 642 LINE",
"327 437 LINE",
"312 391 LINE",
"310 391 LINE",
"295 437 LINE",
"187 642 LINE",
"159 700 LINE",
"6 700 LINE",
"243 280 LINE",
"243 80 LINE",
"243 0 LINE"
);
}
);
userData = {
com.hugojourdan.ColorFlow = {
"0" = 0;
"1" = 0;
"10" = 0;
"11" = 0;
"2" = 0;
"3" = 0;
"4" = 0;
"5" = 0;
"6" = 0;
"7" = 0;
"8" = 0;
"9" = 0;
};
};
width = 620;
},
{
anchors = (
{
name = bottom;
position = "{312, 0}";
},
{
name = top;
position = "{312, 700}";
},
{
name = topleft;
position = "{6, 700}";
}
);
guideLines = (
{
position = "{283, 642}";
}
);
layerId = m004;
paths = (
{
closed = 1;
nodes = (
"391 0 LINE",
"381 80 LINE",
"381 280 LINE",
"614 700 LINE",
"454 700 LINE",
"430 642 LINE",
"327 439 LINE",
"316 373 LINE",
"306 373 LINE",
"295 439 LINE",
"190 642 LINE",
"166 700 LINE",
"6 700 LINE",
"243 280 LINE",
"243 80 LINE",
"233 0 LINE"
);
}
);
userData = {
com.hugojourdan.ColorFlow = {
"0" = 0;
"1" = 0;
"10" = 0;
"11" = 0;
"2" = 0;
"3" = 0;
"4" = 0;
"5" = 0;
"6" = 0;
"7" = 0;
"8" = 0;
"9" = 0;
};
};
width = 620;
}
);
leftKerningGroup = KO_Y;
rightKerningGroup = KO_Y;
unicode = 0059;
userData = {
KernOnName = Y;
};
},
{
glyphname = Z;
lastChange = "2023-08-11 09:49:00 +0000";
layers = (
{
anchors = (
{
name = bottom;
position = "{281, 0}";
},
{
name = center;
position = "{281, 350}";
},
{
name = top;
position = "{281, 700}";
}
);
layerId = "993DDA7B-BC4C-4F4B-ACF9-716C764D536A";
paths = (
{
closed = 1;
nodes = (
"523 0 LINE",
"523 88 LINE",
"463 78 LINE",
"150 78 LINE",
"513 642 LINE",
"513 700 LINE",
"50 700 LINE",
"50 612 LINE",
"110 622 LINE",
"401 622 LINE",
"38 58 LINE",
"38 0 LINE"
);
}
);
userData = {
com.hugojourdan.ColorFlow = {
"0" = 0;
"1" = 0;
"10" = 0;
"11" = 0;
"2" = 0;
"3" = 0;
"4" = 0;
"5" = 0;
"6" = 0;
"7" = 0;
"8" = 0;
"9" = 0;
};
};
width = 563;
},
{
anchors = (
{
name = bottom;
position = "{282, 0}";
},
{
name = center;
position = "{280, 350}";
},
{
name = top;
position = "{282, 700}";
}
);
layerId = "C7F1792A-1FE9-4A21-B628-190BF571D00B";
paths = (
{
closed = 1;
nodes = (
"523 0 LINE",
"523 78 LINE",
"463 78 LINE",
"150 78 LINE",
"513 643 LINE",
"513 700 LINE",
"50 700 LINE",
"50 622 LINE",
"110 622 LINE",
"401 622 LINE",
"38 58 LINE",
"38 0 LINE"
);
}
);
userData = {
com.hugojourdan.ColorFlow = {
"0" = 0;
"1" = 0;
"10" = 0;
"11" = 0;
"2" = 0;
"3" = 0;
"4" = 0;
"5" = 0;
"6" = 0;
"7" = 0;
"8" = 0;
"9" = 0;
};
};
width = 563;
},
{
anchors = (
{
name = bottom;
position = "{289, 0}";
},
{
name = center;
position = "{271, 350}";
},
{
name = top;
position = "{289, 700}";
}
);
layerId = m003;
paths = (
{
closed = 1;
nodes = (
"548 0 LINE",
"548 122 LINE",
"488 122 LINE",
"206 122 LINE",
"540 603 LINE",
"540 700 LINE",
"37 700 LINE",
"37 578 LINE",
"97 578 LINE",
"363 578 LINE",
"28 98 LINE",
"28 0 LINE"
);
}
);
userData = {
com.hugojourdan.ColorFlow = {
"0" = 0;
"1" = 0;
"10" = 0;
"11" = 0;
"2" = 0;
"3" = 0;
"4" = 0;
"5" = 0;
"6" = 0;
"7" = 0;
"8" = 0;
"9" = 0;
};
};
width = 570;
},
{
anchors = (
{
name = bottom;
position = "{289, 0}";
},
{
name = center;
position = "{271, 350}";
},
{
name = top;
position = "{289, 700}";
}
);
layerId = m004;
paths = (
{
closed = 1;
nodes = (
"548 0 LINE",
"548 132 LINE",
"488 122 LINE",
"205 122 LINE",
"540 603 LINE",
"540 700 LINE",
"37 700 LINE",
"37 568 LINE",
"97 578 LINE",
"362 578 LINE",
"28 98 LINE",
"28 0 LINE"
);
}
);
userData = {
com.hugojourdan.ColorFlow = {
"0" = 0;
"1" = 0;
"10" = 0;
"11" = 0;
"2" = 0;
"3" = 0;
"4" = 0;
"5" = 0;
"6" = 0;
"7" = 0;
"8" = 0;
"9" = 0;
};
};
width = 570;
}
);
leftKerningGroup = KO_Z;
rightKerningGroup = KO_Z;
unicode = 005A;
userData = {
KernOnName = Z;
};
},
{
glyphname = D.ss02;
lastChange = "2023-07-24 08:22:46 +0000";
layers = (
{
anchors = (
{
name = top;
position = "{376, 700}";
}
);
layerId = "993DDA7B-BC4C-4F4B-ACF9-716C764D536A";
paths = (
{
closed = 1;
nodes = (
"342 0 LINE SMOOTH",
"511 0 OFFCURVE",
"703 38 OFFCURVE",
"703 345 CURVE SMOOTH",
"703 665 OFFCURVE",
"493 700 OFFCURVE",
"342 700 CURVE SMOOTH",
"150 700 LINE",
"150 0 LINE"
);
},
{
closed = 1;
nodes = (
"235 622 LINE",
"363 622 LINE SMOOTH",
"503 622 OFFCURVE",
"613 582 OFFCURVE",
"613 346 CURVE SMOOTH",
"613 128 OFFCURVE",
"521 78 OFFCURVE",
"363 78 CURVE SMOOTH",
"235 78 LINE"
);
},
{
closed = 1;
nodes = (
"130 622 LINE",
"193 622 LINE",
"193 700 LINE",
"70 700 LINE",
"70 612 LINE"
);
},
{
closed = 1;
nodes = (
"70 0 LINE",
"193 0 LINE",
"193 78 LINE",
"130 78 LINE",
"70 88 LINE"
);
}
);
userData = {
com.hugojourdan.ColorFlow = {
"0" = 0;
"1" = 0;
"10" = 0;
"11" = 0;
"2" = 0;
"3" = 0;
"4" = 0;
"5" = 0;
"6" = 0;
"7" = 0;
"8" = 0;
"9" = 0;
};
};
width = 765;
},
{
anchors = (
{
name = top;
position = "{376, 700}";
}
);
layerId = "C7F1792A-1FE9-4A21-B628-190BF571D00B";
paths = (
{
closed = 1;
nodes = (
"342 0 LINE SMOOTH",
"511 0 OFFCURVE",
"703 38 OFFCURVE",
"703 345 CURVE SMOOTH",
"703 665 OFFCURVE",
"493 700 OFFCURVE",
"342 700 CURVE SMOOTH",
"150 700 LINE",
"150 0 LINE"
);
},
{
closed = 1;
nodes = (
"235 622 LINE",
"363 622 LINE SMOOTH",
"503 622 OFFCURVE",
"613 582 OFFCURVE",
"613 346 CURVE SMOOTH",
"613 128 OFFCURVE",
"521 78 OFFCURVE",
"363 78 CURVE SMOOTH",
"235 78 LINE"
);
},
{
closed = 1;
nodes = (
"130 622 LINE",
"193 622 LINE",
"193 700 LINE",
"70 700 LINE",
"70 622 LINE"
);
},
{
closed = 1;
nodes = (
"70 0 LINE",
"193 0 LINE",
"193 78 LINE",
"130 78 LINE",
"70 78 LINE"
);
}
);
userData = {
com.hugojourdan.ColorFlow = {
"0" = 0;
"1" = 0;
"10" = 0;
"11" = 0;
"2" = 0;
"3" = 0;
"4" = 0;
"5" = 0;
"6" = 0;
"7" = 0;
"8" = 0;
"9" = 0;
};
};
width = 765;
},
{
anchors = (
{
name = top;
position = "{355, 700}";
}
);
layerId = m003;
paths = (
{
closed = 1;
nodes = (
"351 0 LINE SMOOTH",
"505 0 OFFCURVE",
"697 38 OFFCURVE",
"697 345 CURVE SMOOTH",
"697 665 OFFCURVE",
"487 700 OFFCURVE",
"351 700 CURVE SMOOTH",
"134 700 LINE",
"134 0 LINE"
);
},
{
closed = 1;
nodes = (
"272 582 LINE",
"317 582 LINE SMOOTH",
"442 582 OFFCURVE",
"552 582 OFFCURVE",
"552 346 CURVE SMOOTH",
"552 128 OFFCURVE",
"460 118 OFFCURVE",
"317 118 CURVE SMOOTH",
"272 118 LINE"
);
},
{
closed = 1;
nodes = (
"112 582 LINE",
"203 582 LINE",
"202 700 LINE",
"52 700 LINE",
"52 582 LINE"
);
},
{
closed = 1;
nodes = (
"52 0 LINE",
"202 0 LINE",
"202 118 LINE",
"112 118 LINE",
"52 118 LINE"
);
}
);
userData = {
com.hugojourdan.ColorFlow = {
"0" = 0;
"1" = 0;
"10" = 0;
"11" = 0;
"2" = 0;
"3" = 0;
"4" = 0;
"5" = 0;
"6" = 0;
"7" = 0;
"8" = 0;
"9" = 0;
};
};
width = 757;
},
{
anchors = (
{
name = top;
position = "{350, 700}";
}
);
layerId = m004;
paths = (
{
closed = 1;
nodes = (
"366 0 LINE SMOOTH",
"505 0 OFFCURVE",
"697 38 OFFCURVE",
"697 345 CURVE SMOOTH",
"697 665 OFFCURVE",
"487 700 OFFCURVE",
"366 700 CURVE SMOOTH",
"134 700 LINE",
"134 0 LINE"
);
},
{
closed = 1;
nodes = (
"272 582 LINE",
"332 582 LINE SMOOTH",
"442 582 OFFCURVE",
"552 582 OFFCURVE",
"552 346 CURVE SMOOTH",
"552 128 OFFCURVE",
"460 118 OFFCURVE",
"332 118 CURVE SMOOTH",
"272 118 LINE"
);
},
{
closed = 1;
nodes = (
"112 582 LINE",
"202 582 LINE",
"202 700 LINE",
"52 700 LINE",
"52 572 LINE"
);
},
{
closed = 1;
nodes = (
"52 0 LINE",
"202 0 LINE",
"202 118 LINE",
"112 118 LINE",
"52 128 LINE"
);
}
);
userData = {
com.hugojourdan.ColorFlow = {
"0" = 0;
"1" = 0;
"10" = 0;
"11" = 0;
"2" = 0;
"3" = 0;
"4" = 0;
"5" = 0;
"6" = 0;
"7" = 0;
"8" = 0;
"9" = 0;
};
};
width = 757;
}
);
leftKerningGroup = KO_D.ss02;
leftMetricsKey = "=I-10";
rightKerningGroup = KO_O;
rightMetricsKey = O;
},
{
glyphname = a;
lastChange = "2023-08-11 09:49:00 +0000";
layers = (
{
anchors = (
{
name = bottom;
position = "{284, 0}";
},
{
name = ogonek;
position = "{479, 0}";
},
{
name = top;
position = "{284, 510}";
}
);
layerId = "993DDA7B-BC4C-4F4B-ACF9-716C764D536A";
paths = (
{
closed = 1;
nodes = (
"489 0 LINE",
"479 80 LINE",
"479 322 LINE SMOOTH",
"479 451 OFFCURVE",
"428 522 OFFCURVE",
"255 522 CURVE SMOOTH",
"211 522 OFFCURVE",
"159 517 OFFCURVE",
"101 499 CURVE",
"101 427 LINE",
"117 417 LINE",
"155 442 OFFCURVE",
"196 450 OFFCURVE",
"246 450 CURVE SMOOTH",
"371 450 OFFCURVE",
"395 404 OFFCURVE",
"395 325 CURVE SMOOTH",
"395 53 LINE",
"410 0 LINE"
);
},
{
closed = 1;
nodes = (
"273 -12 OFFCURVE",
"304 -7 OFFCURVE",
"331 0 CURVE",
"427 81 LINE",
"407 126 LINE",
"380 89 OFFCURVE",
"334 58 OFFCURVE",
"252 58 CURVE SMOOTH",
"172 58 OFFCURVE",
"138 88 OFFCURVE",
"138 149 CURVE SMOOTH",
"138 223 OFFCURVE",
"187 246 OFFCURVE",
"281 246 CURVE SMOOTH",
"332 246 OFFCURVE",
"369 239 OFFCURVE",
"404 221 CURVE",
"404 267 LINE",
"352 304 LINE",
"325 310 OFFCURVE",
"299 313 OFFCURVE",
"267 313 CURVE SMOOTH",
"161 313 OFFCURVE",
"54 279 OFFCURVE",
"54 150 CURVE SMOOTH",
"54 25 OFFCURVE",
"153 -12 OFFCURVE",
"241 -12 CURVE SMOOTH"
);
}
);
userData = {
com.hugojourdan.ColorFlow = {
"0" = 0;
"1" = 0;
"10" = 0;
"11" = 0;
"2" = 0;
"3" = 0;
"4" = 0;
"5" = 0;
"6" = 0;
"7" = 0;
"8" = 0;
"9" = 0;
};
};
width = 545;
},
{
associatedMasterId = "993DDA7B-BC4C-4F4B-ACF9-716C764D536A";
layerId = "B1DB21CC-2A8C-4B00-A2A0-95CEAB08AB21";
name = "Mar 24 18, 10:34";
paths = (
{
closed = 1;
nodes = (
"86 360 LINE",
"120 360 LINE",
"156 395 OFFCURVE",
"213 407 OFFCURVE",
"242 407 CURVE SMOOTH",
"347 407 OFFCURVE",
"354 358 OFFCURVE",
"352 277 CURVE",
"346 66 LINE",
"369 66 LINE",
"416 -9 LINE",
"523 1 LINE",
"523 71 LINE",
"439 81 LINE",
"444 303 LINE",
"445 353 OFFCURVE",
"445 489 OFFCURVE",
"271 489 CURVE SMOOTH",
"192 489 OFFCURVE",
"125 467 OFFCURVE",
"86 454 CURVE"
);
},
{
closed = 1;
nodes = (
"349 284 OFFCURVE",
"270 281 OFFCURVE",
"217 278 CURVE SMOOTH",
"154 274 OFFCURVE",
"50 251 OFFCURVE",
"50 134 CURVE SMOOTH",
"50 23 OFFCURVE",
"141 -16 OFFCURVE",
"230 -16 CURVE SMOOTH",
"271 -16 OFFCURVE",
"302 -8 OFFCURVE",
"319 0 CURVE",
"391 96 LINE",
"357 113 LINE",
"327 70 OFFCURVE",
"278 62 OFFCURVE",
"237 62 CURVE SMOOTH",
"195 62 OFFCURVE",
"145 76 OFFCURVE",
"145 138 CURVE SMOOTH",
"145 189 OFFCURVE",
"178 213 OFFCURVE",
"250 217 CURVE SMOOTH",
"281 219 OFFCURVE",
"331 221 OFFCURVE",
"369 224 CURVE",
"369 284 LINE"
);
}
);
width = 546;
},
{
anchors = (
{
name = bottom;
position = "{289, 0}";
},
{
name = ogonek;
position = "{479, 0}";
},
{
name = top;
position = "{284, 500}";
}
);
layerId = "C7F1792A-1FE9-4A21-B628-190BF571D00B";
paths = (
{
closed = 1;
nodes = (
"479 0 LINE",
"479 80 LINE",
"479 317 LINE SMOOTH",
"479 451 OFFCURVE",
"428 512 OFFCURVE",
"259 512 CURVE SMOOTH",
"221 512 OFFCURVE",
"166 509 OFFCURVE",
"101 489 CURVE",
"101 411 LINE",
"105 409 LINE",
"142 427 OFFCURVE",
"186 440 OFFCURVE",
"250 440 CURVE SMOOTH",
"366 440 OFFCURVE",
"395 396 OFFCURVE",
"395 320 CURVE SMOOTH",
"395 53 LINE",
"410 0 LINE"
);
},
{
closed = 1;
nodes = (
"276 -12 OFFCURVE",
"305 -7 OFFCURVE",
"331 0 CURVE",
"427 81 LINE",
"407 126 LINE",
"389 92 OFFCURVE",
"340 58 OFFCURVE",
"255 58 CURVE SMOOTH",
"175 58 OFFCURVE",
"138 88 OFFCURVE",
"138 149 CURVE SMOOTH",
"138 218 OFFCURVE",
"185 241 OFFCURVE",
"283 241 CURVE SMOOTH",
"337 241 OFFCURVE",
"373 234 OFFCURVE",
"404 216 CURVE",
"404 274 LINE",
"352 299 LINE",
"327 305 OFFCURVE",
"299 308 OFFCURVE",
"266 308 CURVE SMOOTH",
"157 308 OFFCURVE",
"54 275 OFFCURVE",
"54 148 CURVE SMOOTH",
"54 25 OFFCURVE",
"153 -12 OFFCURVE",
"243 -12 CURVE SMOOTH"
);
}
);
userData = {
com.hugojourdan.ColorFlow = {
"0" = 0;
"1" = 0;
"10" = 0;
"11" = 0;
"2" = 0;
"3" = 0;
"4" = 0;
"5" = 0;
"6" = 0;
"7" = 0;
"8" = 0;
"9" = 0;
};
};
width = 545;
},
{
anchors = (
{
name = bottom;
position = "{292, 0}";
},
{
name = ogonek;
position = "{501, 0}";
},
{
name = top;
position = "{292, 500}";
}
);
layerId = m003;
paths = (
{
closed = 1;
nodes = (
"501 0 LINE",
"501 80 LINE",
"501 302 LINE SMOOTH",
"501 441 OFFCURVE",
"440 512 OFFCURVE",
"255 512 CURVE SMOOTH",
"205 512 OFFCURVE",
"149 507 OFFCURVE",
"92 489 CURVE",
"92 386 LINE",
"96 384 LINE",
"139 397 OFFCURVE",
"176 404 OFFCURVE",
"235 404 CURVE SMOOTH",
"325 404 OFFCURVE",
"367 388 OFFCURVE",
"367 306 CURVE SMOOTH",
"367 73 LINE",
"382 0 LINE"
);
},
{
closed = 1;
nodes = (
"265 -12 OFFCURVE",
"295 -9 OFFCURVE",
"327 0 CURVE",
"424 91 LINE",
"419 157 LINE",
"399 120 OFFCURVE",
"363 89 OFFCURVE",
"273 89 CURVE SMOOTH",
"215 89 OFFCURVE",
"182 102 OFFCURVE",
"182 154 CURVE SMOOTH",
"182 208 OFFCURVE",
"218 221 OFFCURVE",
"285 221 CURVE SMOOTH",
"335 221 OFFCURVE",
"371 214 OFFCURVE",
"416 196 CURVE",
"416 262 LINE",
"325 306 LINE",
"304 308 OFFCURVE",
"283 309 OFFCURVE",
"262 309 CURVE SMOOTH",
"163 309 OFFCURVE",
"48 286 OFFCURVE",
"48 148 CURVE SMOOTH",
"48 20 OFFCURVE",
"147 -12 OFFCURVE",
"237 -12 CURVE SMOOTH"
);
}
);
userData = {
com.hugojourdan.ColorFlow = {
"0" = 0;
"1" = 0;
"10" = 0;
"11" = 0;
"2" = 0;
"3" = 0;
"4" = 0;
"5" = 0;
"6" = 0;
"7" = 0;
"8" = 0;
"9" = 0;
};
};
width = 568;
},
{
associatedMasterId = m003;
layerId = "FE2B44DC-DF3E-4D3F-8FFC-C30499D32845";
name = "Mar 24 18, 10:34";
paths = (
{
closed = 1;
nodes = (
"86 360 LINE",
"120 360 LINE",
"156 395 OFFCURVE",
"213 407 OFFCURVE",
"242 407 CURVE SMOOTH",
"347 407 OFFCURVE",
"354 358 OFFCURVE",
"352 277 CURVE",
"346 66 LINE",
"369 66 LINE",
"416 -9 LINE",
"523 1 LINE",
"523 71 LINE",
"439 81 LINE",
"444 303 LINE",
"445 353 OFFCURVE",
"445 489 OFFCURVE",
"271 489 CURVE SMOOTH",
"192 489 OFFCURVE",
"125 467 OFFCURVE",
"86 454 CURVE"
);
},
{
closed = 1;
nodes = (
"349 284 OFFCURVE",
"270 281 OFFCURVE",
"217 278 CURVE SMOOTH",
"154 274 OFFCURVE",
"50 251 OFFCURVE",
"50 134 CURVE SMOOTH",
"50 23 OFFCURVE",
"141 -16 OFFCURVE",
"230 -16 CURVE SMOOTH",
"271 -16 OFFCURVE",
"302 -8 OFFCURVE",
"319 0 CURVE",
"391 96 LINE",
"357 113 LINE",
"327 70 OFFCURVE",
"278 62 OFFCURVE",
"237 62 CURVE SMOOTH",
"195 62 OFFCURVE",
"145 76 OFFCURVE",
"145 138 CURVE SMOOTH",
"145 189 OFFCURVE",
"178 213 OFFCURVE",
"250 217 CURVE SMOOTH",
"281 219 OFFCURVE",
"331 221 OFFCURVE",
"369 224 CURVE",
"369 284 LINE"
);
}
);
width = 546;
},
{
anchors = (
{
name = bottom;
position = "{292, 0}";
},
{
name = ogonek;
position = "{501, 0}";
},
{
name = top;
position = "{292, 510}";
}
);
background = {
paths = (
{
closed = 1;
nodes = (
"501 0 LINE",
"501 80 LINE",
"501 302 LINE SMOOTH",
"501 441 OFFCURVE",
"440 512 OFFCURVE",
"255 512 CURVE SMOOTH",
"205 512 OFFCURVE",
"149 507 OFFCURVE",
"92 489 CURVE",
"92 386 LINE",
"96 384 LINE",
"139 397 OFFCURVE",
"176 404 OFFCURVE",
"235 404 CURVE SMOOTH",
"325 404 OFFCURVE",
"367 388 OFFCURVE",
"367 306 CURVE SMOOTH",
"367 73 LINE",
"382 0 LINE"
);
},
{
closed = 1;
nodes = (
"265 -12 OFFCURVE",
"295 -9 OFFCURVE",
"327 0 CURVE",
"424 91 LINE",
"419 157 LINE",
"399 120 OFFCURVE",
"363 89 OFFCURVE",
"273 89 CURVE SMOOTH",
"215 89 OFFCURVE",
"182 102 OFFCURVE",
"182 154 CURVE SMOOTH",
"182 208 OFFCURVE",
"218 221 OFFCURVE",
"285 221 CURVE SMOOTH",
"335 221 OFFCURVE",
"371 214 OFFCURVE",
"416 196 CURVE",
"416 262 LINE",
"325 306 LINE",
"304 308 OFFCURVE",
"283 309 OFFCURVE",
"262 309 CURVE SMOOTH",
"163 309 OFFCURVE",
"48 286 OFFCURVE",
"48 148 CURVE SMOOTH",
"48 20 OFFCURVE",
"147 -12 OFFCURVE",
"237 -12 CURVE SMOOTH"
);
}
);
};
guideLines = (
{
position = "{633, 53}";
}
);
layerId = m004;
paths = (
{
closed = 1;
nodes = (
"508 0 LINE",
"500 80 LINE",
"500 312 LINE SMOOTH",
"500 451 OFFCURVE",
"450 522 OFFCURVE",
"248 522 CURVE SMOOTH",
"208 522 OFFCURVE",
"150 519 OFFCURVE",
"92 499 CURVE",
"92 399 LINE",
"112 389 LINE",
"157 408 OFFCURVE",
"195 414 OFFCURVE",
"241 414 CURVE SMOOTH",
"360 414 OFFCURVE",
"367 375 OFFCURVE",
"367 306 CURVE SMOOTH",
"367 73 LINE",
"382 0 LINE"
);
},
{
closed = 1;
nodes = (
"269 -12 OFFCURVE",
"297 -9 OFFCURVE",
"325 -2 CURVE",
"433 121 LINE",
"428 157 LINE",
"408 120 OFFCURVE",
"368 89 OFFCURVE",
"279 89 CURVE SMOOTH",
"215 89 OFFCURVE",
"182 104 OFFCURVE",
"182 161 CURVE SMOOTH",
"182 216 OFFCURVE",
"212 231 OFFCURVE",
"292 231 CURVE SMOOTH",
"346 231 OFFCURVE",
"388 224 OFFCURVE",
"425 206 CURVE",
"425 272 LINE",
"337 316 LINE",
"309 318 OFFCURVE",
"282 319 OFFCURVE",
"259 319 CURVE SMOOTH",
"164 319 OFFCURVE",
"48 301 OFFCURVE",
"48 157 CURVE SMOOTH",
"48 23 OFFCURVE",
"148 -12 OFFCURVE",
"242 -12 CURVE SMOOTH"
);
}
);
userData = {
com.hugojourdan.ColorFlow = {
"0" = 0;
"1" = 0;
"10" = 0;
"11" = 0;
"2" = 0;
"3" = 0;
"4" = 0;
"5" = 0;
"6" = 0;
"7" = 0;
"8" = 0;
"9" = 0;
};
};
width = 568;
},
{
associatedMasterId = m004;
layerId = "46E6373C-6E10-4E1D-8989-1548E1F5BE9D";
name = "Mar 24 18, 10:34";
paths = (
{
closed = 1;
nodes = (
"86 360 LINE",
"120 360 LINE",
"156 395 OFFCURVE",
"213 407 OFFCURVE",
"242 407 CURVE SMOOTH",
"347 407 OFFCURVE",
"354 358 OFFCURVE",
"352 277 CURVE",
"346 66 LINE",
"369 66 LINE",
"416 -9 LINE",
"523 1 LINE",
"523 71 LINE",
"439 81 LINE",
"444 303 LINE",
"445 353 OFFCURVE",
"445 489 OFFCURVE",
"271 489 CURVE SMOOTH",
"192 489 OFFCURVE",
"125 467 OFFCURVE",
"86 454 CURVE"
);
},
{
closed = 1;
nodes = (
"349 284 OFFCURVE",
"270 281 OFFCURVE",
"217 278 CURVE SMOOTH",
"154 274 OFFCURVE",
"50 251 OFFCURVE",
"50 134 CURVE SMOOTH",
"50 23 OFFCURVE",
"141 -16 OFFCURVE",
"230 -16 CURVE SMOOTH",
"271 -16 OFFCURVE",
"302 -8 OFFCURVE",
"319 0 CURVE",
"391 96 LINE",
"357 113 LINE",
"327 70 OFFCURVE",
"278 62 OFFCURVE",
"237 62 CURVE SMOOTH",
"195 62 OFFCURVE",
"145 76 OFFCURVE",
"145 138 CURVE SMOOTH",
"145 189 OFFCURVE",
"178 213 OFFCURVE",
"250 217 CURVE SMOOTH",
"281 219 OFFCURVE",
"331 221 OFFCURVE",
"369 224 CURVE",
"369 284 LINE"
);
}
);
width = 546;
}
);
leftKerningGroup = KO_a;
leftMetricsKey = o;
rightKerningGroup = KO_a;
unicode = 0061;
userData = {
KernOnName = a;
};
},
{
glyphname = ae;
lastChange = "2023-07-24 09:44:05 +0000";
layers = (
{
layerId = "993DDA7B-BC4C-4F4B-ACF9-716C764D536A";
paths = (
{
closed = 1;
nodes = (
"175 59 OFFCURVE",
"138 90 OFFCURVE",
"138 143 CURVE SMOOTH",
"138 201 OFFCURVE",
"181 224 OFFCURVE",
"270 224 CURVE",
"390 222 LINE",
"390 107 OFFCURVE",
"335 59 OFFCURVE",
"248 59 CURVE SMOOTH"
);
},
{
closed = 1;
nodes = (
"476 397 OFFCURVE",
"520 450 OFFCURVE",
"604 450 CURVE SMOOTH",
"700 450 OFFCURVE",
"723 384 OFFCURVE",
"723 291 CURVE",
"522 291 LINE",
"476 269 LINE"
);
},
{
closed = 1;
nodes = (
"116 417 LINE",
"149 440 OFFCURVE",
"197 450 OFFCURVE",
"242 450 CURVE SMOOTH",
"325 450 OFFCURVE",
"390 414 OFFCURVE",
"390 337 CURVE SMOOTH",
"390 269 LINE",
"344 291 LINE",
"267 291 LINE",
"166 291 OFFCURVE",
"54 265 OFFCURVE",
"54 143 CURVE SMOOTH",
"54 30 OFFCURVE",
"149 -12 OFFCURVE",
"238 -12 CURVE SMOOTH",
"336 -12 OFFCURVE",
"399 38 OFFCURVE",
"427 93 CURVE",
"457 39 OFFCURVE",
"529 -12 OFFCURVE",
"642 -12 CURVE SMOOTH",
"690 -12 OFFCURVE",
"743 -3 OFFCURVE",
"783 13 CURVE",
"783 85 LINE",
"767 95 LINE",
"737 75 OFFCURVE",
"690 61 OFFCURVE",
"638 61 CURVE SMOOTH",
"544 61 OFFCURVE",
"476 108 OFFCURVE",
"476 224 CURVE",
"801 224 LINE",
"804 239 OFFCURVE",
"808 261 OFFCURVE",
"808 291 CURVE SMOOTH",
"808 427 OFFCURVE",
"735 522 OFFCURVE",
"612 522 CURVE SMOOTH",
"525 522 OFFCURVE",
"469 474 OFFCURVE",
"435 423 CURVE",
"405 480 OFFCURVE",
"349 522 OFFCURVE",
"232 522 CURVE SMOOTH",
"181 522 OFFCURVE",
"138 514 OFFCURVE",
"100 498 CURVE",
"100 427 LINE"
);
}
);
userData = {
com.hugojourdan.ColorFlow = {
"0" = 0;
"1" = 0;
"10" = 0;
"11" = 0;
"2" = 0;
"3" = 0;
"4" = 0;
"5" = 0;
"6" = 0;
"7" = 0;
"8" = 0;
"9" = 0;
};
};
width = 855;
},
{
layerId = "C7F1792A-1FE9-4A21-B628-190BF571D00B";
paths = (
{
closed = 1;
nodes = (
"175 59 OFFCURVE",
"138 91 OFFCURVE",
"138 141 CURVE SMOOTH",
"138 194 OFFCURVE",
"180 217 OFFCURVE",
"270 217 CURVE",
"390 215 LINE",
"390 107 OFFCURVE",
"335 59 OFFCURVE",
"247 59 CURVE SMOOTH"
);
},
{
closed = 1;
nodes = (
"476 387 OFFCURVE",
"520 440 OFFCURVE",
"604 440 CURVE SMOOTH",
"700 440 OFFCURVE",
"723 374 OFFCURVE",
"723 284 CURVE",
"522 284 LINE",
"476 272 LINE"
);
},
{
closed = 1;
nodes = (
"104 409 LINE",
"144 430 OFFCURVE",
"197 440 OFFCURVE",
"242 440 CURVE SMOOTH",
"325 440 OFFCURVE",
"390 404 OFFCURVE",
"390 327 CURVE SMOOTH",
"390 272 LINE",
"344 284 LINE",
"267 284 LINE",
"164 284 OFFCURVE",
"54 258 OFFCURVE",
"54 141 CURVE SMOOTH",
"54 32 OFFCURVE",
"148 -12 OFFCURVE",
"239 -12 CURVE SMOOTH",
"335 -12 OFFCURVE",
"399 38 OFFCURVE",
"427 93 CURVE",
"457 39 OFFCURVE",
"529 -12 OFFCURVE",
"642 -12 CURVE SMOOTH",
"690 -12 OFFCURVE",
"743 -3 OFFCURVE",
"783 13 CURVE",
"783 89 LINE",
"779 91 LINE",
"735 74 OFFCURVE",
"694 61 OFFCURVE",
"642 61 CURVE SMOOTH",
"543 61 OFFCURVE",
"476 108 OFFCURVE",
"476 217 CURVE",
"801 217 LINE",
"804 232 OFFCURVE",
"808 254 OFFCURVE",
"808 284 CURVE SMOOTH",
"808 417 OFFCURVE",
"735 512 OFFCURVE",
"612 512 CURVE SMOOTH",
"525 512 OFFCURVE",
"469 464 OFFCURVE",
"435 413 CURVE",
"405 470 OFFCURVE",
"348 512 OFFCURVE",
"236 512 CURVE SMOOTH",
"191 512 OFFCURVE",
"144 505 OFFCURVE",
"100 489 CURVE",
"100 411 LINE"
);
}
);
userData = {
com.hugojourdan.ColorFlow = {
"0" = 0;
"1" = 0;
"10" = 0;
"11" = 0;
"2" = 0;
"3" = 0;
"4" = 0;
"5" = 0;
"6" = 0;
"7" = 0;
"8" = 0;
"9" = 0;
};
};
width = 855;
},
{
layerId = m003;
paths = (
{
closed = 1;
nodes = (
"201 96 OFFCURVE",
"172 114 OFFCURVE",
"172 149 CURVE SMOOTH",
"172 180 OFFCURVE",
"195 200 OFFCURVE",
"241 200 CURVE",
"361 200 LINE",
"361 132 OFFCURVE",
"329 96 OFFCURVE",
"254 96 CURVE SMOOTH"
);
},
{
closed = 1;
nodes = (
"488 373 OFFCURVE",
"516 408 OFFCURVE",
"579 408 CURVE SMOOTH",
"659 408 OFFCURVE",
"670 353 OFFCURVE",
"670 286 CURVE",
"534 286 LINE",
"488 268 LINE"
);
},
{
closed = 1;
nodes = (
"95 383 LINE",
"142 400 OFFCURVE",
"193 408 OFFCURVE",
"241 408 CURVE SMOOTH",
"327 408 OFFCURVE",
"360 382 OFFCURVE",
"360 323 CURVE SMOOTH",
"360 273 LINE",
"314 291 LINE",
"267 291 LINE",
"156 291 OFFCURVE",
"48 260 OFFCURVE",
"48 141 CURVE SMOOTH",
"48 25 OFFCURVE",
"151 -12 OFFCURVE",
"250 -12 CURVE SMOOTH",
"347 -12 OFFCURVE",
"391 24 OFFCURVE",
"421 55 CURVE",
"478 2 OFFCURVE",
"559 -12 OFFCURVE",
"626 -12 CURVE SMOOTH",
"680 -12 OFFCURVE",
"726 -3 OFFCURVE",
"770 13 CURVE",
"770 115 LINE",
"750 125 LINE",
"706 106 OFFCURVE",
"661 95 OFFCURVE",
"616 95 CURVE SMOOTH",
"529 95 OFFCURVE",
"490 136 OFFCURVE",
"490 202 CURVE",
"791 202 LINE",
"794 223 OFFCURVE",
"798 253 OFFCURVE",
"798 286 CURVE SMOOTH",
"798 419 OFFCURVE",
"727 512 OFFCURVE",
"586 512 CURVE SMOOTH",
"538 512 OFFCURVE",
"480 501 OFFCURVE",
"426 460 CURVE",
"378 497 OFFCURVE",
"317 512 OFFCURVE",
"236 512 CURVE SMOOTH",
"175 512 OFFCURVE",
"136 504 OFFCURVE",
"91 488 CURVE",
"91 385 LINE"
);
}
);
userData = {
com.hugojourdan.ColorFlow = {
"0" = 0;
"1" = 0;
"10" = 0;
"11" = 0;
"2" = 0;
"3" = 0;
"4" = 0;
"5" = 0;
"6" = 0;
"7" = 0;
"8" = 0;
"9" = 0;
};
};
width = 844;
},
{
layerId = m004;
paths = (
{
closed = 1;
nodes = (
"201 96 OFFCURVE",
"172 114 OFFCURVE",
"172 152 CURVE SMOOTH",
"172 185 OFFCURVE",
"195 205 OFFCURVE",
"231 205 CURVE",
"361 205 LINE",
"361 132 OFFCURVE",
"329 96 OFFCURVE",
"254 96 CURVE SMOOTH"
);
},
{
closed = 1;
nodes = (
"488 363 OFFCURVE",
"512 418 OFFCURVE",
"583 418 CURVE SMOOTH",
"655 418 OFFCURVE",
"670 363 OFFCURVE",
"670 291 CURVE",
"534 291 LINE",
"488 263 LINE"
);
},
{
closed = 1;
nodes = (
"111 393 LINE",
"150 410 OFFCURVE",
"193 418 OFFCURVE",
"241 418 CURVE SMOOTH",
"327 418 OFFCURVE",
"360 392 OFFCURVE",
"360 333 CURVE SMOOTH",
"360 268 LINE",
"314 296 LINE",
"267 296 LINE",
"156 296 OFFCURVE",
"48 265 OFFCURVE",
"48 143 CURVE SMOOTH",
"48 25 OFFCURVE",
"151 -12 OFFCURVE",
"250 -12 CURVE SMOOTH",
"348 -12 OFFCURVE",
"391 24 OFFCURVE",
"421 55 CURVE",
"478 2 OFFCURVE",
"559 -12 OFFCURVE",
"626 -12 CURVE SMOOTH",
"680 -12 OFFCURVE",
"726 -3 OFFCURVE",
"770 13 CURVE",
"770 115 LINE",
"750 125 LINE",
"706 106 OFFCURVE",
"661 95 OFFCURVE",
"616 95 CURVE SMOOTH",
"529 95 OFFCURVE",
"490 136 OFFCURVE",
"490 207 CURVE",
"791 207 LINE",
"794 228 OFFCURVE",
"798 258 OFFCURVE",
"798 291 CURVE SMOOTH",
"798 429 OFFCURVE",
"727 522 OFFCURVE",
"586 522 CURVE SMOOTH",
"538 522 OFFCURVE",
"480 511 OFFCURVE",
"426 470 CURVE",
"378 507 OFFCURVE",
"315 522 OFFCURVE",
"233 522 CURVE SMOOTH",
"173 522 OFFCURVE",
"136 514 OFFCURVE",
"91 498 CURVE",
"91 404 LINE"
);
}
);
userData = {
com.hugojourdan.ColorFlow = {
"0" = 0;
"1" = 0;
"10" = 0;
"11" = 0;
"2" = 0;
"3" = 0;
"4" = 0;
"5" = 0;
"6" = 0;
"7" = 0;
"8" = 0;
"9" = 0;
};
};
width = 844;
}
);
leftKerningGroup = KO_ae;
leftMetricsKey = a;
rightKerningGroup = KO_e;
rightMetricsKey = e;
unicode = 00E6;
},
{
glyphname = b;
lastChange = "2023-08-11 09:49:00 +0000";
layers = (
{
layerId = "993DDA7B-BC4C-4F4B-ACF9-716C764D536A";
paths = (
{
closed = 1;
nodes = (
"461 -12 OFFCURVE",
"544 98 OFFCURVE",
"544 257 CURVE SMOOTH",
"544 435 OFFCURVE",
"439 522 OFFCURVE",
"316 522 CURVE SMOOTH",
"286 522 OFFCURVE",
"260 517 OFFCURVE",
"235 509 CURVE",
"130 433 LINE",
"130 377 LINE",
"166 416 OFFCURVE",
"221 450 OFFCURVE",
"299 450 CURVE SMOOTH",
"409 450 OFFCURVE",
"458 381 OFFCURVE",
"458 251 CURVE SMOOTH",
"458 113 OFFCURVE",
"406 60 OFFCURVE",
"304 60 CURVE SMOOTH",
"238 60 OFFCURVE",
"183 82 OFFCURVE",
"134 148 CURVE",
"134 83 LINE",
"234 0 LINE",
"252 -5 OFFCURVE",
"284 -12 OFFCURVE",
"320 -12 CURVE SMOOTH"
);
},
{
closed = 1;
nodes = (
"155 0 LINE",
"170 52 LINE",
"170 648 LINE",
"180 728 LINE",
"76 728 LINE",
"86 648 LINE",
"86 80 LINE",
"76 0 LINE"
);
}
);
userData = {
com.hugojourdan.ColorFlow = {
"0" = 0;
"1" = 0;
"10" = 0;
"11" = 0;
"2" = 0;
"3" = 0;
"4" = 0;
"5" = 0;
"6" = 0;
"7" = 0;
"8" = 0;
"9" = 0;
};
};
width = 598;
},
{
associatedMasterId = "993DDA7B-BC4C-4F4B-ACF9-716C764D536A";
layerId = "CD152955-2255-4814-8A23-CE6C1DCA8027";
name = "Mar 23 18, 16:10";
paths = (
{
closed = 1;
nodes = (
"183 64 LINE",
"178 64 LINE",
"140 0 LINE",
"93 0 LINE",
"93 667 LINE",
"183 667 LINE"
);
},
{
closed = 1;
nodes = (
"166 378 LINE",
"241 473 LINE",
"265 483 OFFCURVE",
"305 489 OFFCURVE",
"338 489 CURVE SMOOTH",
"457 489 OFFCURVE",
"527 412 OFFCURVE",
"527 237 CURVE SMOOTH",
"527 85 OFFCURVE",
"437 -15 OFFCURVE",
"314 -15 CURVE SMOOTH",
"285 -15 OFFCURVE",
"263 -14 OFFCURVE",
"231 0 CURVE",
"152 95 LINE",
"182 115 LINE",
"204 94 OFFCURVE",
"236 65 OFFCURVE",
"294 65 CURVE SMOOTH",
"362 65 OFFCURVE",
"429 96 OFFCURVE",
"429 233 CURVE SMOOTH",
"429 353 OFFCURVE",
"397 405 OFFCURVE",
"310 405 CURVE SMOOTH",
"230 405 OFFCURVE",
"183 354 OFFCURVE",
"169 332 CURVE"
);
},
{
closed = 1;
nodes = (
"94 614 LINE",
"13 614 LINE",
"2 682 LINE",
"141 710 LINE",
"192 687 LINE",
"183 637 LINE"
);
}
);
width = 572;
},
{
associatedMasterId = "993DDA7B-BC4C-4F4B-ACF9-716C764D536A";
layerId = "189DBC14-6FD1-4B29-8F00-928D38A1298F";
name = "Mar 23 18, 16:11";
paths = (
{
closed = 1;
nodes = (
"183 64 LINE",
"178 64 LINE",
"140 0 LINE",
"93 0 LINE",
"93 667 LINE",
"183 667 LINE"
);
},
{
closed = 1;
nodes = (
"166 378 LINE",
"241 473 LINE",
"265 483 OFFCURVE",
"305 489 OFFCURVE",
"338 489 CURVE SMOOTH",
"457 489 OFFCURVE",
"527 412 OFFCURVE",
"527 237 CURVE SMOOTH",
"527 70 OFFCURVE",
"437 -15 OFFCURVE",
"314 -15 CURVE SMOOTH",
"285 -15 OFFCURVE",
"263 -14 OFFCURVE",
"231 0 CURVE",
"152 95 LINE",
"182 115 LINE",
"204 94 OFFCURVE",
"236 65 OFFCURVE",
"294 65 CURVE SMOOTH",
"362 65 OFFCURVE",
"429 96 OFFCURVE",
"429 233 CURVE SMOOTH",
"429 353 OFFCURVE",
"397 405 OFFCURVE",
"310 405 CURVE SMOOTH",
"230 405 OFFCURVE",
"183 354 OFFCURVE",
"169 332 CURVE"
);
},
{
closed = 1;
nodes = (
"94 614 LINE",
"13 614 LINE",
"2 682 LINE",
"141 710 LINE",
"192 687 LINE",
"183 637 LINE"
);
}
);
width = 572;
},
{
associatedMasterId = "993DDA7B-BC4C-4F4B-ACF9-716C764D536A";
background = {
paths = (
{
closed = 1;
nodes = (
"85 500 LINE",
"95 420 LINE",
"95 -140 LINE",
"85 -216 LINE",
"190 -216 LINE",
"180 -140 LINE",
"180 420 LINE",
"170 500 LINE"
);
},
{
closed = 1;
nodes = (
"129 104 LINE",
"227 11 LINE",
"244 1 OFFCURVE",
"274 -8 OFFCURVE",
"293 -8 CURVE SMOOTH",
"395 -8 OFFCURVE",
"517 58 OFFCURVE",
"517 251 CURVE SMOOTH",
"517 422 OFFCURVE",
"432 506 OFFCURVE",
"308 506 CURVE SMOOTH",
"280 506 OFFCURVE",
"246 498 OFFCURVE",
"221 480 CURVE",
"142 384 LINE",
"171 348 LINE",
"204 404 OFFCURVE",
"251 427 OFFCURVE",
"293 427 CURVE SMOOTH",
"386 427 OFFCURVE",
"429 373 OFFCURVE",
"429 253 CURVE SMOOTH",
"429 119 OFFCURVE",
"374 67 OFFCURVE",
"285 67 CURVE SMOOTH",
"223 67 OFFCURVE",
"176 107 OFFCURVE",
"155 167 CURVE"
);
}
);
};
layerId = "D36EBB5D-AD76-4367-AC17-0093EA4F59EE";
name = "Apr 2 18, 12:10";
paths = (
{
closed = 1;
nodes = (
"85 720 LINE",
"95 640 LINE",
"95 80 LINE",
"85 0 LINE",
"159 0 LINE",
"174 66 LINE",
"180 66 LINE",
"180 640 LINE",
"190 720 LINE"
);
},
{
closed = 1;
nodes = (
"144 104 LINE",
"235 8 LINE",
"252 -2 OFFCURVE",
"282 -8 OFFCURVE",
"301 -8 CURVE SMOOTH",
"393 -8 OFFCURVE",
"523 50 OFFCURVE",
"523 251 CURVE SMOOTH",
"523 422 OFFCURVE",
"438 506 OFFCURVE",
"316 506 CURVE SMOOTH",
"288 506 OFFCURVE",
"254 500 OFFCURVE",
"223 481 CURVE",
"144 385 LINE",
"174 350 LINE",
"207 406 OFFCURVE",
"255 427 OFFCURVE",
"301 427 CURVE SMOOTH",
"392 427 OFFCURVE",
"433 349 OFFCURVE",
"433 253 CURVE SMOOTH",
"433 157 OFFCURVE",
"390 71 OFFCURVE",
"293 71 CURVE SMOOTH",
"231 71 OFFCURVE",
"184 98 OFFCURVE",
"163 158 CURVE"
);
}
);
width = 577;
},
{
layerId = "C7F1792A-1FE9-4A21-B628-190BF571D00B";
paths = (
{
closed = 1;
nodes = (
"461 -12 OFFCURVE",
"544 98 OFFCURVE",
"544 252 CURVE SMOOTH",
"544 425 OFFCURVE",
"439 512 OFFCURVE",
"314 512 CURVE SMOOTH",
"284 512 OFFCURVE",
"257 507 OFFCURVE",
"235 499 CURVE",
"130 423 LINE",
"130 367 LINE",
"166 406 OFFCURVE",
"223 440 OFFCURVE",
"299 440 CURVE SMOOTH",
"408 440 OFFCURVE",
"458 371 OFFCURVE",
"458 247 CURVE SMOOTH",
"458 112 OFFCURVE",
"399 60 OFFCURVE",
"300 60 CURVE SMOOTH",
"236 60 OFFCURVE",
"183 82 OFFCURVE",
"134 148 CURVE",
"134 83 LINE",
"234 0 LINE",
"251 -5 OFFCURVE",
"279 -12 OFFCURVE",
"316 -12 CURVE SMOOTH"
);
},
{
closed = 1;
nodes = (
"155 0 LINE",
"170 52 LINE",
"170 648 LINE",
"170 728 LINE",
"86 728 LINE",
"86 648 LINE",
"86 80 LINE",
"86 0 LINE"
);
}
);
userData = {
com.hugojourdan.ColorFlow = {
"0" = 0;
"1" = 0;
"10" = 0;
"11" = 0;
"2" = 0;
"3" = 0;
"4" = 0;
"5" = 0;
"6" = 0;
"7" = 0;
"8" = 0;
"9" = 0;
};
};
width = 598;
},
{
layerId = m003;
paths = (
{
closed = 1;
nodes = (
"500 -12 OFFCURVE",
"578 108 OFFCURVE",
"578 253 CURVE SMOOTH",
"578 405 OFFCURVE",
"489 512 OFFCURVE",
"347 512 CURVE SMOOTH",
"319 512 OFFCURVE",
"289 508 OFFCURVE",
"258 500 CURVE",
"134 393 LINE",
"134 327 LINE",
"170 366 OFFCURVE",
"230 400 OFFCURVE",
"311 400 CURVE SMOOTH",
"403 400 OFFCURVE",
"442 356 OFFCURVE",
"442 253 CURVE SMOOTH",
"442 138 OFFCURVE",
"393 100 OFFCURVE",
"307 100 CURVE SMOOTH",
"243 100 OFFCURVE",
"187 122 OFFCURVE",
"138 188 CURVE",
"138 113 LINE",
"255 0 LINE",
"289 -9 OFFCURVE",
"320 -12 OFFCURVE",
"345 -12 CURVE SMOOTH"
);
},
{
closed = 1;
nodes = (
"199 0 LINE",
"214 52 LINE",
"214 648 LINE",
"214 728 LINE",
"80 728 LINE",
"80 648 LINE",
"80 80 LINE",
"80 0 LINE"
);
}
);
userData = {
com.hugojourdan.ColorFlow = {
"0" = 0;
"1" = 0;
"10" = 0;
"11" = 0;
"2" = 0;
"3" = 0;
"4" = 0;
"5" = 0;
"6" = 0;
"7" = 0;
"8" = 0;
"9" = 0;
};
};
width = 626;
},
{
associatedMasterId = m003;
layerId = "CB6692D8-88B1-4091-AFDB-BBDCD49759C1";
name = "Mar 23 18, 16:10";
paths = (
{
closed = 1;
nodes = (
"183 64 LINE",
"178 64 LINE",
"140 0 LINE",
"93 0 LINE",
"93 667 LINE",
"183 667 LINE"
);
},
{
closed = 1;
nodes = (
"166 378 LINE",
"241 473 LINE",
"265 483 OFFCURVE",
"305 489 OFFCURVE",
"338 489 CURVE SMOOTH",
"457 489 OFFCURVE",
"527 412 OFFCURVE",
"527 237 CURVE SMOOTH",
"527 85 OFFCURVE",
"437 -15 OFFCURVE",
"314 -15 CURVE SMOOTH",
"285 -15 OFFCURVE",
"263 -14 OFFCURVE",
"231 0 CURVE",
"152 95 LINE",
"182 115 LINE",
"204 94 OFFCURVE",
"236 65 OFFCURVE",
"294 65 CURVE SMOOTH",
"362 65 OFFCURVE",
"429 96 OFFCURVE",
"429 233 CURVE SMOOTH",
"429 353 OFFCURVE",
"397 405 OFFCURVE",
"310 405 CURVE SMOOTH",
"230 405 OFFCURVE",
"183 354 OFFCURVE",
"169 332 CURVE"
);
},
{
closed = 1;
nodes = (
"94 614 LINE",
"13 614 LINE",
"2 682 LINE",
"141 710 LINE",
"192 687 LINE",
"183 637 LINE"
);
}
);
width = 572;
},
{
associatedMasterId = m003;
layerId = "0B8B5EC5-FFE2-4CF6-9FD4-0D58E4A291EE";
name = "Mar 23 18, 16:11";
paths = (
{
closed = 1;
nodes = (
"183 64 LINE",
"178 64 LINE",
"140 0 LINE",
"93 0 LINE",
"93 667 LINE",
"183 667 LINE"
);
},
{
closed = 1;
nodes = (
"166 378 LINE",
"241 473 LINE",
"265 483 OFFCURVE",
"305 489 OFFCURVE",
"338 489 CURVE SMOOTH",
"457 489 OFFCURVE",
"527 412 OFFCURVE",
"527 237 CURVE SMOOTH",
"527 70 OFFCURVE",
"437 -15 OFFCURVE",
"314 -15 CURVE SMOOTH",
"285 -15 OFFCURVE",
"263 -14 OFFCURVE",
"231 0 CURVE",
"152 95 LINE",
"182 115 LINE",
"204 94 OFFCURVE",
"236 65 OFFCURVE",
"294 65 CURVE SMOOTH",
"362 65 OFFCURVE",
"429 96 OFFCURVE",
"429 233 CURVE SMOOTH",
"429 353 OFFCURVE",
"397 405 OFFCURVE",
"310 405 CURVE SMOOTH",
"230 405 OFFCURVE",
"183 354 OFFCURVE",
"169 332 CURVE"
);
},
{
closed = 1;
nodes = (
"94 614 LINE",
"13 614 LINE",
"2 682 LINE",
"141 710 LINE",
"192 687 LINE",
"183 637 LINE"
);
}
);
width = 572;
},
{
associatedMasterId = m003;
background = {
paths = (
{
closed = 1;
nodes = (
"85 500 LINE",
"95 420 LINE",
"95 -140 LINE",
"85 -216 LINE",
"190 -216 LINE",
"180 -140 LINE",
"180 420 LINE",
"170 500 LINE"
);
},
{
closed = 1;
nodes = (
"129 104 LINE",
"227 11 LINE",
"244 1 OFFCURVE",
"274 -8 OFFCURVE",
"293 -8 CURVE SMOOTH",
"395 -8 OFFCURVE",
"517 58 OFFCURVE",
"517 251 CURVE SMOOTH",
"517 422 OFFCURVE",
"432 506 OFFCURVE",
"308 506 CURVE SMOOTH",
"280 506 OFFCURVE",
"246 498 OFFCURVE",
"221 480 CURVE",
"142 384 LINE",
"171 348 LINE",
"204 404 OFFCURVE",
"251 427 OFFCURVE",
"293 427 CURVE SMOOTH",
"386 427 OFFCURVE",
"429 373 OFFCURVE",
"429 253 CURVE SMOOTH",
"429 119 OFFCURVE",
"374 67 OFFCURVE",
"285 67 CURVE SMOOTH",
"223 67 OFFCURVE",
"176 107 OFFCURVE",
"155 167 CURVE"
);
}
);
};
layerId = "BDFCFFF9-8DF0-4F8F-8644-FEF1F1FD9363";
name = "Apr 2 18, 12:10";
paths = (
{
closed = 1;
nodes = (
"85 720 LINE",
"95 640 LINE",
"95 80 LINE",
"85 0 LINE",
"159 0 LINE",
"174 66 LINE",
"180 66 LINE",
"180 640 LINE",
"190 720 LINE"
);
},
{
closed = 1;
nodes = (
"144 104 LINE",
"235 8 LINE",
"252 -2 OFFCURVE",
"282 -8 OFFCURVE",
"301 -8 CURVE SMOOTH",
"393 -8 OFFCURVE",
"523 50 OFFCURVE",
"523 251 CURVE SMOOTH",
"523 422 OFFCURVE",
"438 506 OFFCURVE",
"316 506 CURVE SMOOTH",
"288 506 OFFCURVE",
"254 500 OFFCURVE",
"223 481 CURVE",
"144 385 LINE",
"174 350 LINE",
"207 406 OFFCURVE",
"255 427 OFFCURVE",
"301 427 CURVE SMOOTH",
"392 427 OFFCURVE",
"433 349 OFFCURVE",
"433 253 CURVE SMOOTH",
"433 157 OFFCURVE",
"390 71 OFFCURVE",
"293 71 CURVE SMOOTH",
"231 71 OFFCURVE",
"184 98 OFFCURVE",
"163 158 CURVE"
);
}
);
width = 577;
},
{
layerId = m004;
paths = (
{
closed = 1;
nodes = (
"500 -12 OFFCURVE",
"578 108 OFFCURVE",
"578 257 CURVE SMOOTH",
"578 415 OFFCURVE",
"489 522 OFFCURVE",
"351 522 CURVE SMOOTH",
"324 522 OFFCURVE",
"286 518 OFFCURVE",
"258 510 CURVE",
"134 393 LINE",
"134 337 LINE",
"164 371 OFFCURVE",
"231 410 OFFCURVE",
"316 410 CURVE SMOOTH",
"403 410 OFFCURVE",
"442 370 OFFCURVE",
"442 258 CURVE SMOOTH",
"442 133 OFFCURVE",
"393 100 OFFCURVE",
"314 100 CURVE SMOOTH",
"238 100 OFFCURVE",
"179 131 OFFCURVE",
"138 188 CURVE",
"138 143 LINE",
"255 0 LINE",
"286 -9 OFFCURVE",
"325 -12 OFFCURVE",
"349 -12 CURVE SMOOTH"
);
},
{
closed = 1;
nodes = (
"199 0 LINE",
"214 72 LINE",
"214 648 LINE",
"224 728 LINE",
"70 728 LINE",
"80 648 LINE",
"80 80 LINE",
"70 0 LINE"
);
}
);
userData = {
com.hugojourdan.ColorFlow = {
"0" = 0;
"1" = 0;
"10" = 0;
"11" = 0;
"2" = 0;
"3" = 0;
"4" = 0;
"5" = 0;
"6" = 0;
"7" = 0;
"8" = 0;
"9" = 0;
};
};
width = 626;
},
{
associatedMasterId = m004;
layerId = "DECF4AC3-4231-42AA-B411-28A54F4D806E";
name = "Mar 23 18, 16:10";
paths = (
{
closed = 1;
nodes = (
"183 64 LINE",
"178 64 LINE",
"140 0 LINE",
"93 0 LINE",
"93 667 LINE",
"183 667 LINE"
);
},
{
closed = 1;
nodes = (
"166 378 LINE",
"241 473 LINE",
"265 483 OFFCURVE",
"305 489 OFFCURVE",
"338 489 CURVE SMOOTH",
"457 489 OFFCURVE",
"527 412 OFFCURVE",
"527 237 CURVE SMOOTH",
"527 85 OFFCURVE",
"437 -15 OFFCURVE",
"314 -15 CURVE SMOOTH",
"285 -15 OFFCURVE",
"263 -14 OFFCURVE",
"231 0 CURVE",
"152 95 LINE",
"182 115 LINE",
"204 94 OFFCURVE",
"236 65 OFFCURVE",
"294 65 CURVE SMOOTH",
"362 65 OFFCURVE",
"429 96 OFFCURVE",
"429 233 CURVE SMOOTH",
"429 353 OFFCURVE",
"397 405 OFFCURVE",
"310 405 CURVE SMOOTH",
"230 405 OFFCURVE",
"183 354 OFFCURVE",
"169 332 CURVE"
);
},
{
closed = 1;
nodes = (
"94 614 LINE",
"13 614 LINE",
"2 682 LINE",
"141 710 LINE",
"192 687 LINE",
"183 637 LINE"
);
}
);
width = 572;
},
{
associatedMasterId = m004;
layerId = "42C704EA-467D-4A10-B2C8-0546C690A87D";
name = "Mar 23 18, 16:11";
paths = (
{
closed = 1;
nodes = (
"183 64 LINE",
"178 64 LINE",
"140 0 LINE",
"93 0 LINE",
"93 667 LINE",
"183 667 LINE"
);
},
{
closed = 1;
nodes = (
"166 378 LINE",
"241 473 LINE",
"265 483 OFFCURVE",
"305 489 OFFCURVE",
"338 489 CURVE SMOOTH",
"457 489 OFFCURVE",
"527 412 OFFCURVE",
"527 237 CURVE SMOOTH",
"527 70 OFFCURVE",
"437 -15 OFFCURVE",
"314 -15 CURVE SMOOTH",
"285 -15 OFFCURVE",
"263 -14 OFFCURVE",
"231 0 CURVE",
"152 95 LINE",
"182 115 LINE",
"204 94 OFFCURVE",
"236 65 OFFCURVE",
"294 65 CURVE SMOOTH",
"362 65 OFFCURVE",
"429 96 OFFCURVE",
"429 233 CURVE SMOOTH",
"429 353 OFFCURVE",
"397 405 OFFCURVE",
"310 405 CURVE SMOOTH",
"230 405 OFFCURVE",
"183 354 OFFCURVE",
"169 332 CURVE"
);
},
{
closed = 1;
nodes = (
"94 614 LINE",
"13 614 LINE",
"2 682 LINE",
"141 710 LINE",
"192 687 LINE",
"183 637 LINE"
);
}
);
width = 572;
},
{
associatedMasterId = m004;
background = {
paths = (
{
closed = 1;
nodes = (
"85 500 LINE",
"95 420 LINE",
"95 -140 LINE",
"85 -216 LINE",
"190 -216 LINE",
"180 -140 LINE",
"180 420 LINE",
"170 500 LINE"
);
},
{
closed = 1;
nodes = (
"129 104 LINE",
"227 11 LINE",
"244 1 OFFCURVE",
"274 -8 OFFCURVE",
"293 -8 CURVE SMOOTH",
"395 -8 OFFCURVE",
"517 58 OFFCURVE",
"517 251 CURVE SMOOTH",
"517 422 OFFCURVE",
"432 506 OFFCURVE",
"308 506 CURVE SMOOTH",
"280 506 OFFCURVE",
"246 498 OFFCURVE",
"221 480 CURVE",
"142 384 LINE",
"171 348 LINE",
"204 404 OFFCURVE",
"251 427 OFFCURVE",
"293 427 CURVE SMOOTH",
"386 427 OFFCURVE",
"429 373 OFFCURVE",
"429 253 CURVE SMOOTH",
"429 119 OFFCURVE",
"374 67 OFFCURVE",
"285 67 CURVE SMOOTH",
"223 67 OFFCURVE",
"176 107 OFFCURVE",
"155 167 CURVE"
);
}
);
};
layerId = "E26CD68D-A2A0-4EDA-9745-96B8C6A2467B";
name = "Apr 2 18, 12:10";
paths = (
{
closed = 1;
nodes = (
"85 720 LINE",
"95 640 LINE",
"95 80 LINE",
"85 0 LINE",
"159 0 LINE",
"174 66 LINE",
"180 66 LINE",
"180 640 LINE",
"190 720 LINE"
);
},
{
closed = 1;
nodes = (
"144 104 LINE",
"235 8 LINE",
"252 -2 OFFCURVE",
"282 -8 OFFCURVE",
"301 -8 CURVE SMOOTH",
"393 -8 OFFCURVE",
"523 50 OFFCURVE",
"523 251 CURVE SMOOTH",
"523 422 OFFCURVE",
"438 506 OFFCURVE",
"316 506 CURVE SMOOTH",
"288 506 OFFCURVE",
"254 500 OFFCURVE",
"223 481 CURVE",
"144 385 LINE",
"174 350 LINE",
"207 406 OFFCURVE",
"255 427 OFFCURVE",
"301 427 CURVE SMOOTH",
"392 427 OFFCURVE",
"433 349 OFFCURVE",
"433 253 CURVE SMOOTH",
"433 157 OFFCURVE",
"390 71 OFFCURVE",
"293 71 CURVE SMOOTH",
"231 71 OFFCURVE",
"184 98 OFFCURVE",
"163 158 CURVE"
);
}
);
width = 577;
}
);
leftKerningGroup = KO_h;
leftMetricsKey = h;
rightKerningGroup = KO_o;
rightMetricsKey = o;
unicode = 0062;
userData = {
KernOnName = b;
};
},
{
glyphname = c;
lastChange = "2023-08-11 09:49:00 +0000";
layers = (
{
anchors = (
{
name = bottom;
position = "{250, 0}";
},
{
name = top;
position = "{288, 510}";
}
);
layerId = "993DDA7B-BC4C-4F4B-ACF9-716C764D536A";
paths = (
{
closed = 1;
nodes = (
"197 -12 OFFCURVE",
"318 -12 CURVE SMOOTH",
"365 -12 OFFCURVE",
"406 -3 OFFCURVE",
"444 13 CURVE",
"444 85 LINE",
"428 95 LINE",
"402 77 OFFCURVE",
"363 60 OFFCURVE",
"312 60 CURVE SMOOTH",
"234 60 OFFCURVE",
"140 99 OFFCURVE",
"140 257 CURVE SMOOTH",
"140 404 OFFCURVE",
"221 450 OFFCURVE",
"310 450 CURVE SMOOTH",
"354 450 OFFCURVE",
"389 439 OFFCURVE",
"421 417 CURVE",
"437 427 LINE",
"437 499 LINE",
"404 513 OFFCURVE",
"366 522 OFFCURVE",
"317 522 CURVE SMOOTH",
"184 522 OFFCURVE",
"54 454 OFFCURVE",
"54 255 CURVE SMOOTH",
"54 47 OFFCURVE"
);
}
);
userData = {
com.hugojourdan.ColorFlow = {
"0" = 0;
"1" = 0;
"10" = 0;
"11" = 0;
"2" = 0;
"3" = 0;
"4" = 0;
"5" = 0;
"6" = 0;
"7" = 0;
"8" = 0;
"9" = 0;
};
};
width = 502;
},
{
anchors = (
{
name = bottom;
position = "{248, 0}";
},
{
name = top;
position = "{288, 500}";
}
);
layerId = "C7F1792A-1FE9-4A21-B628-190BF571D00B";
paths = (
{
closed = 1;
nodes = (
"196 -12 OFFCURVE",
"317 -12 CURVE SMOOTH",
"364 -12 OFFCURVE",
"406 -3 OFFCURVE",
"444 13 CURVE",
"444 91 LINE",
"440 93 LINE",
"406 73 OFFCURVE",
"366 60 OFFCURVE",
"317 60 CURVE SMOOTH",
"232 60 OFFCURVE",
"140 99 OFFCURVE",
"140 253 CURVE SMOOTH",
"140 393 OFFCURVE",
"217 440 OFFCURVE",
"316 440 CURVE SMOOTH",
"362 440 OFFCURVE",
"401 430 OFFCURVE",
"434 409 CURVE",
"438 411 LINE",
"438 489 LINE",
"403 503 OFFCURVE",
"365 512 OFFCURVE",
"316 512 CURVE SMOOTH",
"183 512 OFFCURVE",
"54 445 OFFCURVE",
"54 251 CURVE SMOOTH",
"54 48 OFFCURVE"
);
}
);
userData = {
com.hugojourdan.ColorFlow = {
"0" = 0;
"1" = 0;
"10" = 0;
"11" = 0;
"2" = 0;
"3" = 0;
"4" = 0;
"5" = 0;
"6" = 0;
"7" = 0;
"8" = 0;
"9" = 0;
};
};
width = 502;
},
{
anchors = (
{
name = bottom;
position = "{259, 0}";
},
{
name = top;
position = "{294, 500}";
}
);
layerId = m003;
paths = (
{
closed = 1;
nodes = (
"191 -12 OFFCURVE",
"326 -12 CURVE SMOOTH",
"379 -12 OFFCURVE",
"420 -3 OFFCURVE",
"458 13 CURVE",
"458 123 LINE",
"454 125 LINE",
"425 113 OFFCURVE",
"382 100 OFFCURVE",
"329 100 CURVE SMOOTH",
"238 100 OFFCURVE",
"184 138 OFFCURVE",
"184 248 CURVE SMOOTH",
"184 353 OFFCURVE",
"235 400 OFFCURVE",
"328 400 CURVE SMOOTH",
"371 400 OFFCURVE",
"413 390 OFFCURVE",
"447 377 CURVE",
"451 379 LINE",
"451 489 LINE",
"413 503 OFFCURVE",
"373 512 OFFCURVE",
"321 512 CURVE SMOOTH",
"178 512 OFFCURVE",
"48 444 OFFCURVE",
"48 250 CURVE SMOOTH",
"48 47 OFFCURVE"
);
}
);
userData = {
com.hugojourdan.ColorFlow = {
"0" = 0;
"1" = 0;
"10" = 0;
"11" = 0;
"2" = 0;
"3" = 0;
"4" = 0;
"5" = 0;
"6" = 0;
"7" = 0;
"8" = 0;
"9" = 0;
};
};
width = 490;
},
{
anchors = (
{
name = bottom;
position = "{264, 0}";
},
{
name = top;
position = "{294, 510}";
}
);
layerId = m004;
paths = (
{
closed = 1;
nodes = (
"191 -12 OFFCURVE",
"326 -12 CURVE SMOOTH",
"379 -12 OFFCURVE",
"420 -3 OFFCURVE",
"458 13 CURVE",
"458 115 LINE",
"438 125 LINE",
"411 111 OFFCURVE",
"379 100 OFFCURVE",
"329 100 CURVE SMOOTH",
"238 100 OFFCURVE",
"184 138 OFFCURVE",
"184 253 CURVE SMOOTH",
"184 363 OFFCURVE",
"235 410 OFFCURVE",
"326 410 CURVE SMOOTH",
"371 410 OFFCURVE",
"404 399 OFFCURVE",
"431 386 CURVE",
"451 396 LINE",
"451 499 LINE",
"416 513 OFFCURVE",
"377 522 OFFCURVE",
"323 522 CURVE SMOOTH",
"175 522 OFFCURVE",
"48 454 OFFCURVE",
"48 255 CURVE SMOOTH",
"48 47 OFFCURVE"
);
}
);
userData = {
com.hugojourdan.ColorFlow = {
"0" = 0;
"1" = 0;
"10" = 0;
"11" = 0;
"2" = 0;
"3" = 0;
"4" = 0;
"5" = 0;
"6" = 0;
"7" = 0;
"8" = 0;
"9" = 0;
};
};
width = 490;
}
);
leftKerningGroup = KO_c;
leftMetricsKey = o;
rightKerningGroup = KO_c;
unicode = 0063;
userData = {
KernOnName = c;
};
},
{
glyphname = d;
lastChange = "2023-08-11 09:49:00 +0000";
layers = (
{
layerId = "993DDA7B-BC4C-4F4B-ACF9-716C764D536A";
paths = (
{
closed = 1;
nodes = (
"309 -12 OFFCURVE",
"338 -7 OFFCURVE",
"363 0 CURVE",
"449 69 LINE",
"441 129 LINE",
"420 93 OFFCURVE",
"383 60 OFFCURVE",
"301 60 CURVE SMOOTH",
"186 60 OFFCURVE",
"140 125 OFFCURVE",
"140 255 CURVE SMOOTH",
"140 387 OFFCURVE",
"187 450 OFFCURVE",
"299 450 CURVE SMOOTH",
"378 450 OFFCURVE",
"428 419 OFFCURVE",
"464 378 CURVE",
"464 438 LINE",
"366 505 LINE",
"344 513 OFFCURVE",
"313 522 OFFCURVE",
"275 522 CURVE SMOOTH",
"159 522 OFFCURVE",
"54 435 OFFCURVE",
"54 255 CURVE SMOOTH",
"54 84 OFFCURVE",
"150 -12 OFFCURVE",
"279 -12 CURVE SMOOTH"
);
},
{
closed = 1;
nodes = (
"522 0 LINE",
"512 80 LINE",
"512 648 LINE",
"522 728 LINE",
"418 728 LINE",
"428 648 LINE",
"428 52 LINE",
"443 0 LINE"
);
}
);
userData = {
com.hugojourdan.ColorFlow = {
"0" = 0;
"1" = 0;
"10" = 0;
"11" = 0;
"2" = 0;
"3" = 0;
"4" = 0;
"5" = 0;
"6" = 0;
"7" = 0;
"8" = 0;
"9" = 0;
};
};
width = 588;
},
{
associatedMasterId = "993DDA7B-BC4C-4F4B-ACF9-716C764D536A";
background = {
paths = (
{
closed = 1;
nodes = (
"393 420 LINE",
"393 -140 LINE",
"383 -216 LINE",
"488 -216 LINE",
"478 -140 LINE",
"478 420 LINE",
"488 500 LINE",
"403 500 LINE"
);
},
{
closed = 1;
nodes = (
"409 417 LINE",
"332 497 LINE",
"315 506 OFFCURVE",
"286 510 OFFCURVE",
"268 510 CURVE SMOOTH",
"171 510 OFFCURVE",
"52 445 OFFCURVE",
"52 249 CURVE SMOOTH",
"52 43 OFFCURVE",
"168 -8 OFFCURVE",
"275 -8 CURVE SMOOTH",
"292 -8 OFFCURVE",
"309 -5 OFFCURVE",
"325 2 CURVE",
"427 98 LINE",
"404 135 LINE",
"383 104 OFFCURVE",
"341 69 OFFCURVE",
"275 69 CURVE SMOOTH",
"206 69 OFFCURVE",
"146 114 OFFCURVE",
"146 249 CURVE SMOOTH",
"146 370 OFFCURVE",
"201 425 OFFCURVE",
"275 425 CURVE SMOOTH",
"334 425 OFFCURVE",
"387 395 OFFCURVE",
"408 371 CURVE"
);
}
);
};
layerId = "171D6E9E-4CA3-4345-B6AD-1073D3D2C4B7";
name = "Mar 29 18, 10:33";
paths = (
{
closed = 1;
nodes = (
"394 640 LINE",
"394 66 LINE",
"402 66 LINE",
"412 0 LINE",
"489 0 LINE",
"479 80 LINE",
"479 640 LINE",
"489 720 LINE",
"384 720 LINE"
);
},
{
closed = 1;
nodes = (
"410 417 LINE",
"343 495 LINE",
"322 504 OFFCURVE",
"294 510 OFFCURVE",
"269 510 CURVE SMOOTH",
"172 510 OFFCURVE",
"52 445 OFFCURVE",
"52 249 CURVE SMOOTH",
"52 38 OFFCURVE",
"173 -8 OFFCURVE",
"276 -8 CURVE SMOOTH",
"293 -8 OFFCURVE",
"310 -5 OFFCURVE",
"326 2 CURVE",
"428 98 LINE",
"405 135 LINE",
"384 104 OFFCURVE",
"342 71 OFFCURVE",
"276 71 CURVE SMOOTH",
"219 71 OFFCURVE",
"146 99 OFFCURVE",
"146 249 CURVE SMOOTH",
"146 373 OFFCURVE",
"202 425 OFFCURVE",
"276 425 CURVE SMOOTH",
"335 425 OFFCURVE",
"388 395 OFFCURVE",
"409 371 CURVE"
);
}
);
width = 551;
},
{
layerId = "C7F1792A-1FE9-4A21-B628-190BF571D00B";
paths = (
{
closed = 1;
nodes = (
"319 -12 OFFCURVE",
"342 -7 OFFCURVE",
"363 0 CURVE",
"449 69 LINE",
"441 129 LINE",
"420 93 OFFCURVE",
"379 60 OFFCURVE",
"295 60 CURVE SMOOTH",
"180 60 OFFCURVE",
"140 122 OFFCURVE",
"140 248 CURVE SMOOTH",
"140 376 OFFCURVE",
"182 440 OFFCURVE",
"295 440 CURVE SMOOTH",
"374 440 OFFCURVE",
"428 409 OFFCURVE",
"464 368 CURVE",
"464 428 LINE",
"366 495 LINE",
"347 503 OFFCURVE",
"318 512 OFFCURVE",
"281 512 CURVE SMOOTH",
"164 512 OFFCURVE",
"54 423 OFFCURVE",
"54 248 CURVE SMOOTH",
"54 85 OFFCURVE",
"150 -12 OFFCURVE",
"287 -12 CURVE SMOOTH"
);
},
{
closed = 1;
nodes = (
"512 0 LINE",
"512 80 LINE",
"512 648 LINE",
"512 728 LINE",
"428 728 LINE",
"428 648 LINE",
"428 52 LINE",
"443 0 LINE"
);
}
);
userData = {
com.hugojourdan.ColorFlow = {
"0" = 0;
"1" = 0;
"10" = 0;
"11" = 0;
"2" = 0;
"3" = 0;
"4" = 0;
"5" = 0;
"6" = 0;
"7" = 0;
"8" = 0;
"9" = 0;
};
};
width = 588;
},
{
layerId = m003;
paths = (
{
closed = 1;
nodes = (
"315 -12 OFFCURVE",
"347 -6 OFFCURVE",
"371 0 CURVE",
"475 100 LINE",
"475 169 LINE",
"452 142 OFFCURVE",
"407 100 OFFCURVE",
"313 100 CURVE SMOOTH",
"219 100 OFFCURVE",
"184 142 OFFCURVE",
"184 251 CURVE SMOOTH",
"184 374 OFFCURVE",
"229 400 OFFCURVE",
"307 400 CURVE SMOOTH",
"409 400 OFFCURVE",
"468 355 OFFCURVE",
"498 318 CURVE",
"498 387 LINE",
"368 500 LINE",
"335 509 OFFCURVE",
"307 512 OFFCURVE",
"282 512 CURVE SMOOTH",
"149 512 OFFCURVE",
"48 424 OFFCURVE",
"48 251 CURVE SMOOTH",
"48 83 OFFCURVE",
"143 -12 OFFCURVE",
"280 -12 CURVE SMOOTH"
);
},
{
closed = 1;
nodes = (
"546 0 LINE",
"546 80 LINE",
"546 648 LINE",
"546 728 LINE",
"412 728 LINE",
"412 648 LINE",
"412 52 LINE",
"427 0 LINE"
);
}
);
userData = {
com.hugojourdan.ColorFlow = {
"0" = 0;
"1" = 0;
"10" = 0;
"11" = 0;
"2" = 0;
"3" = 0;
"4" = 0;
"5" = 0;
"6" = 0;
"7" = 0;
"8" = 0;
"9" = 0;
};
};
width = 623;
},
{
associatedMasterId = m003;
background = {
paths = (
{
closed = 1;
nodes = (
"393 420 LINE",
"393 -140 LINE",
"383 -216 LINE",
"488 -216 LINE",
"478 -140 LINE",
"478 420 LINE",
"488 500 LINE",
"403 500 LINE"
);
},
{
closed = 1;
nodes = (
"409 417 LINE",
"332 497 LINE",
"315 506 OFFCURVE",
"286 510 OFFCURVE",
"268 510 CURVE SMOOTH",
"171 510 OFFCURVE",
"52 445 OFFCURVE",
"52 249 CURVE SMOOTH",
"52 43 OFFCURVE",
"168 -8 OFFCURVE",
"275 -8 CURVE SMOOTH",
"292 -8 OFFCURVE",
"309 -5 OFFCURVE",
"325 2 CURVE",
"427 98 LINE",
"404 135 LINE",
"383 104 OFFCURVE",
"341 69 OFFCURVE",
"275 69 CURVE SMOOTH",
"206 69 OFFCURVE",
"146 114 OFFCURVE",
"146 249 CURVE SMOOTH",
"146 370 OFFCURVE",
"201 425 OFFCURVE",
"275 425 CURVE SMOOTH",
"334 425 OFFCURVE",
"387 395 OFFCURVE",
"408 371 CURVE"
);
}
);
};
layerId = "57458883-B8A5-40D8-AF0B-9FAA196BF3F0";
name = "Mar 29 18, 10:33";
paths = (
{
closed = 1;
nodes = (
"394 640 LINE",
"394 66 LINE",
"402 66 LINE",
"412 0 LINE",
"489 0 LINE",
"479 80 LINE",
"479 640 LINE",
"489 720 LINE",
"384 720 LINE"
);
},
{
closed = 1;
nodes = (
"410 417 LINE",
"343 495 LINE",
"322 504 OFFCURVE",
"294 510 OFFCURVE",
"269 510 CURVE SMOOTH",
"172 510 OFFCURVE",
"52 445 OFFCURVE",
"52 249 CURVE SMOOTH",
"52 38 OFFCURVE",
"173 -8 OFFCURVE",
"276 -8 CURVE SMOOTH",
"293 -8 OFFCURVE",
"310 -5 OFFCURVE",
"326 2 CURVE",
"428 98 LINE",
"405 135 LINE",
"384 104 OFFCURVE",
"342 71 OFFCURVE",
"276 71 CURVE SMOOTH",
"219 71 OFFCURVE",
"146 99 OFFCURVE",
"146 249 CURVE SMOOTH",
"146 373 OFFCURVE",
"202 425 OFFCURVE",
"276 425 CURVE SMOOTH",
"335 425 OFFCURVE",
"388 395 OFFCURVE",
"409 371 CURVE"
);
}
);
width = 551;
},
{
layerId = m004;
paths = (
{
closed = 1;
nodes = (
"310 -12 OFFCURVE",
"345 -6 OFFCURVE",
"371 0 CURVE",
"475 130 LINE",
"475 169 LINE",
"450 142 OFFCURVE",
"406 100 OFFCURVE",
"312 100 CURVE SMOOTH",
"219 100 OFFCURVE",
"184 141 OFFCURVE",
"184 255 CURVE SMOOTH",
"184 385 OFFCURVE",
"229 410 OFFCURVE",
"305 410 CURVE SMOOTH",
"408 410 OFFCURVE",
"468 365 OFFCURVE",
"498 328 CURVE",
"498 387 LINE",
"368 510 LINE",
"331 519 OFFCURVE",
"300 522 OFFCURVE",
"276 522 CURVE SMOOTH",
"149 522 OFFCURVE",
"48 433 OFFCURVE",
"48 255 CURVE SMOOTH",
"48 82 OFFCURVE",
"143 -12 OFFCURVE",
"276 -12 CURVE SMOOTH"
);
},
{
closed = 1;
nodes = (
"556 0 LINE",
"546 80 LINE",
"546 648 LINE",
"556 728 LINE",
"402 728 LINE",
"412 648 LINE",
"412 72 LINE",
"427 0 LINE"
);
}
);
userData = {
com.hugojourdan.ColorFlow = {
"0" = 0;
"1" = 0;
"10" = 0;
"11" = 0;
"2" = 0;
"3" = 0;
"4" = 0;
"5" = 0;
"6" = 0;
"7" = 0;
"8" = 0;
"9" = 0;
};
};
width = 623;
},
{
associatedMasterId = m004;
background = {
paths = (
{
closed = 1;
nodes = (
"393 420 LINE",
"393 -140 LINE",
"383 -216 LINE",
"488 -216 LINE",
"478 -140 LINE",
"478 420 LINE",
"488 500 LINE",
"403 500 LINE"
);
},
{
closed = 1;
nodes = (
"409 417 LINE",
"332 497 LINE",
"315 506 OFFCURVE",
"286 510 OFFCURVE",
"268 510 CURVE SMOOTH",
"171 510 OFFCURVE",
"52 445 OFFCURVE",
"52 249 CURVE SMOOTH",
"52 43 OFFCURVE",
"168 -8 OFFCURVE",
"275 -8 CURVE SMOOTH",
"292 -8 OFFCURVE",
"309 -5 OFFCURVE",
"325 2 CURVE",
"427 98 LINE",
"404 135 LINE",
"383 104 OFFCURVE",
"341 69 OFFCURVE",
"275 69 CURVE SMOOTH",
"206 69 OFFCURVE",
"146 114 OFFCURVE",
"146 249 CURVE SMOOTH",
"146 370 OFFCURVE",
"201 425 OFFCURVE",
"275 425 CURVE SMOOTH",
"334 425 OFFCURVE",
"387 395 OFFCURVE",
"408 371 CURVE"
);
}
);
};
layerId = "4A168993-3CFA-4A18-B480-39A0EA562EB5";
name = "Mar 29 18, 10:33";
paths = (
{
closed = 1;
nodes = (
"394 640 LINE",
"394 66 LINE",
"402 66 LINE",
"412 0 LINE",
"489 0 LINE",
"479 80 LINE",
"479 640 LINE",
"489 720 LINE",
"384 720 LINE"
);
},
{
closed = 1;
nodes = (
"410 417 LINE",
"343 495 LINE",
"322 504 OFFCURVE",
"294 510 OFFCURVE",
"269 510 CURVE SMOOTH",
"172 510 OFFCURVE",
"52 445 OFFCURVE",
"52 249 CURVE SMOOTH",
"52 38 OFFCURVE",
"173 -8 OFFCURVE",
"276 -8 CURVE SMOOTH",
"293 -8 OFFCURVE",
"310 -5 OFFCURVE",
"326 2 CURVE",
"428 98 LINE",
"405 135 LINE",
"384 104 OFFCURVE",
"342 71 OFFCURVE",
"276 71 CURVE SMOOTH",
"219 71 OFFCURVE",
"146 99 OFFCURVE",
"146 249 CURVE SMOOTH",
"146 373 OFFCURVE",
"202 425 OFFCURVE",
"276 425 CURVE SMOOTH",
"335 425 OFFCURVE",
"388 395 OFFCURVE",
"409 371 CURVE"
);
}
);
width = 551;
}
);
leftKerningGroup = KO_o;
leftMetricsKey = o;
rightKerningGroup = KO_d;
rightMetricsKey = n;
unicode = 0064;
userData = {
KernOnName = d;
};
},
{
glyphname = eth;
lastChange = "2023-07-24 08:27:31 +0000";
layers = (
{
layerId = "993DDA7B-BC4C-4F4B-ACF9-716C764D536A";
paths = (
{
closed = 1;
nodes = (
"441 -12 OFFCURVE",
"511 113 OFFCURVE",
"511 297 CURVE SMOOTH",
"511 529 OFFCURVE",
"400 701 OFFCURVE",
"204 727 CURVE",
"169 665 LINE",
"289 646 OFFCURVE",
"404 566 OFFCURVE",
"414 415 CURVE",
"407 415 LINE",
"356 446 LINE",
"333 454 OFFCURVE",
"312 458 OFFCURVE",
"283 458 CURVE SMOOTH",
"164 458 OFFCURVE",
"54 390 OFFCURVE",
"54 223 CURVE SMOOTH",
"54 66 OFFCURVE",
"150 -12 OFFCURVE",
"278 -12 CURVE SMOOTH"
);
},
{
closed = 1;
nodes = (
"190 60 OFFCURVE",
"141 109 OFFCURVE",
"141 224 CURVE SMOOTH",
"141 338 OFFCURVE",
"190 388 OFFCURVE",
"292 388 CURVE SMOOTH",
"344 388 OFFCURVE",
"391 375 OFFCURVE",
"421 359 CURVE",
"424 334 OFFCURVE",
"425 302 OFFCURVE",
"425 281 CURVE SMOOTH",
"425 132 OFFCURVE",
"381 60 OFFCURVE",
"276 60 CURVE SMOOTH"
);
},
{
closed = 1;
nodes = (
"511 670 LINE",
"481 728 LINE",
"346 660 LINE",
"325 620 LINE",
"248 609 LINE",
"146 558 LINE",
"174 503 LINE"
);
}
);
userData = {
com.hugojourdan.ColorFlow = {
"0" = 0;
"1" = 0;
"10" = 0;
"11" = 0;
"2" = 0;
"3" = 0;
"4" = 0;
"5" = 0;
"6" = 0;
"7" = 0;
"8" = 0;
"9" = 0;
};
};
width = 587;
},
{
layerId = "C7F1792A-1FE9-4A21-B628-190BF571D00B";
paths = (
{
closed = 1;
nodes = (
"441 -12 OFFCURVE",
"511 113 OFFCURVE",
"511 297 CURVE SMOOTH",
"511 529 OFFCURVE",
"400 701 OFFCURVE",
"204 727 CURVE",
"169 665 LINE",
"289 646 OFFCURVE",
"404 571 OFFCURVE",
"414 415 CURVE",
"412 415 LINE",
"356 436 LINE",
"333 444 OFFCURVE",
"311 448 OFFCURVE",
"282 448 CURVE SMOOTH",
"164 448 OFFCURVE",
"54 382 OFFCURVE",
"54 219 CURVE SMOOTH",
"54 67 OFFCURVE",
"150 -12 OFFCURVE",
"279 -12 CURVE SMOOTH"
);
},
{
closed = 1;
nodes = (
"190 60 OFFCURVE",
"141 110 OFFCURVE",
"141 220 CURVE SMOOTH",
"141 328 OFFCURVE",
"189 378 OFFCURVE",
"291 378 CURVE SMOOTH",
"343 378 OFFCURVE",
"387 365 OFFCURVE",
"421 349 CURVE",
"424 324 OFFCURVE",
"425 292 OFFCURVE",
"425 271 CURVE SMOOTH",
"425 132 OFFCURVE",
"381 60 OFFCURVE",
"277 60 CURVE SMOOTH"
);
},
{
closed = 1;
nodes = (
"511 670 LINE",
"481 728 LINE",
"346 660 LINE",
"311 634 LINE",
"248 609 LINE",
"146 558 LINE",
"174 503 LINE"
);
}
);
userData = {
com.hugojourdan.ColorFlow = {
"0" = 0;
"1" = 0;
"10" = 0;
"11" = 0;
"2" = 0;
"3" = 0;
"4" = 0;
"5" = 0;
"6" = 0;
"7" = 0;
"8" = 0;
"9" = 0;
};
};
width = 587;
},
{
layerId = m003;
paths = (
{
closed = 1;
nodes = (
"460 -12 OFFCURVE",
"526 107 OFFCURVE",
"526 301 CURVE SMOOTH",
"526 553 OFFCURVE",
"415 681 OFFCURVE",
"204 727 CURVE",
"169 635 LINE",
"268 601 OFFCURVE",
"381 543 OFFCURVE",
"389 432 CURVE",
"381 432 LINE",
"338 452 LINE",
"318 456 OFFCURVE",
"299 458 OFFCURVE",
"277 458 CURVE SMOOTH",
"136 458 OFFCURVE",
"48 376 OFFCURVE",
"48 223 CURVE SMOOTH",
"48 65 OFFCURVE",
"143 -12 OFFCURVE",
"284 -12 CURVE SMOOTH"
);
},
{
closed = 1;
nodes = (
"218 100 OFFCURVE",
"182 138 OFFCURVE",
"182 223 CURVE SMOOTH",
"182 300 OFFCURVE",
"212 350 OFFCURVE",
"291 350 CURVE SMOOTH",
"329 350 OFFCURVE",
"360 338 OFFCURVE",
"383 321 CURVE",
"386 305 OFFCURVE",
"388 287 OFFCURVE",
"388 261 CURVE SMOOTH",
"388 134 OFFCURVE",
"341 100 OFFCURVE",
"281 100 CURVE SMOOTH"
);
},
{
closed = 1;
nodes = (
"525 659 LINE",
"485 727 LINE",
"350 659 LINE",
"269 610 LINE",
"216 592 LINE",
"150 557 LINE",
"188 492 LINE"
);
}
);
userData = {
com.hugojourdan.ColorFlow = {
"0" = 0;
"1" = 0;
"10" = 0;
"11" = 0;
"2" = 0;
"3" = 0;
"4" = 0;
"5" = 0;
"6" = 0;
"7" = 0;
"8" = 0;
"9" = 0;
};
};
width = 603;
},
{
layerId = m004;
paths = (
{
closed = 1;
nodes = (
"460 -12 OFFCURVE",
"526 107 OFFCURVE",
"526 301 CURVE SMOOTH",
"526 553 OFFCURVE",
"415 681 OFFCURVE",
"204 727 CURVE",
"169 635 LINE",
"268 601 OFFCURVE",
"383 543 OFFCURVE",
"391 418 CURVE",
"383 418 LINE",
"346 449 LINE",
"324 455 OFFCURVE",
"302 458 OFFCURVE",
"276 458 CURVE SMOOTH",
"137 458 OFFCURVE",
"48 376 OFFCURVE",
"48 223 CURVE SMOOTH",
"48 65 OFFCURVE",
"143 -12 OFFCURVE",
"284 -12 CURVE SMOOTH"
);
},
{
closed = 1;
nodes = (
"218 100 OFFCURVE",
"182 138 OFFCURVE",
"182 223 CURVE SMOOTH",
"182 300 OFFCURVE",
"212 350 OFFCURVE",
"291 350 CURVE SMOOTH",
"329 350 OFFCURVE",
"360 338 OFFCURVE",
"383 321 CURVE",
"386 305 OFFCURVE",
"388 287 OFFCURVE",
"388 261 CURVE SMOOTH",
"388 134 OFFCURVE",
"341 100 OFFCURVE",
"281 100 CURVE SMOOTH"
);
},
{
closed = 1;
nodes = (
"525 659 LINE",
"485 727 LINE",
"350 659 LINE",
"281 597 LINE",
"216 592 LINE",
"150 557 LINE",
"188 492 LINE"
);
}
);
userData = {
com.hugojourdan.ColorFlow = {
"0" = 0;
"1" = 0;
"10" = 0;
"11" = 0;
"2" = 0;
"3" = 0;
"4" = 0;
"5" = 0;
"6" = 0;
"7" = 0;
"8" = 0;
"9" = 0;
};
};
width = 603;
}
);
leftMetricsKey = d;
unicode = 00F0;
},
{
glyphname = e;
lastChange = "2023-08-11 09:49:00 +0000";
layers = (
{
anchors = (
{
name = bottom;
position = "{290, 0}";
},
{
name = ogonek;
position = "{466, 13}";
},
{
name = top;
position = "{283, 510}";
}
);
layerId = "993DDA7B-BC4C-4F4B-ACF9-716C764D536A";
paths = (
{
closed = 1;
nodes = (
"54 37 OFFCURVE",
"190 -12 OFFCURVE",
"319 -12 CURVE SMOOTH",
"377 -12 OFFCURVE",
"427 -2 OFFCURVE",
"469 13 CURVE",
"469 85 LINE",
"453 95 LINE",
"417 74 OFFCURVE",
"373 60 OFFCURVE",
"310 60 CURVE SMOOTH",
"230 60 OFFCURVE",
"140 83 OFFCURVE",
"140 263 CURVE SMOOTH",
"140 375 OFFCURVE",
"175 450 OFFCURVE",
"284 450 CURVE SMOOTH",
"388 450 OFFCURVE",
"409 384 OFFCURVE",
"409 295 CURVE",
"188 295 LINE",
"98 245 LINE",
"98 227 LINE",
"487 227 LINE",
"491 247 OFFCURVE",
"494 269 OFFCURVE",
"494 296 CURVE SMOOTH",
"494 435 OFFCURVE",
"422 522 OFFCURVE",
"285 522 CURVE SMOOTH",
"165 522 OFFCURVE",
"54 454 OFFCURVE",
"54 256 CURVE SMOOTH"
);
}
);
userData = {
com.hugojourdan.ColorFlow = {
"0" = 0;
"1" = 0;
"10" = 0;
"11" = 0;
"2" = 0;
"3" = 0;
"4" = 0;
"5" = 0;
"6" = 0;
"7" = 0;
"8" = 0;
"9" = 0;
};
};
width = 541;
},
{
anchors = (
{
name = bottom;
position = "{290, 0}";
},
{
name = ogonek;
position = "{466, 11}";
},
{
name = top;
position = "{283, 500}";
}
);
layerId = "C7F1792A-1FE9-4A21-B628-190BF571D00B";
paths = (
{
closed = 1;
nodes = (
"54 36 OFFCURVE",
"184 -12 OFFCURVE",
"318 -12 CURVE SMOOTH",
"379 -12 OFFCURVE",
"429 -2 OFFCURVE",
"469 11 CURVE",
"469 89 LINE",
"465 91 LINE",
"421 72 OFFCURVE",
"373 60 OFFCURVE",
"312 60 CURVE SMOOTH",
"219 60 OFFCURVE",
"140 88 OFFCURVE",
"140 258 CURVE SMOOTH",
"140 372 OFFCURVE",
"176 440 OFFCURVE",
"283 440 CURVE SMOOTH",
"388 440 OFFCURVE",
"409 374 OFFCURVE",
"409 284 CURVE",
"188 284 LINE",
"98 259 LINE",
"98 216 LINE",
"487 216 LINE",
"491 236 OFFCURVE",
"494 258 OFFCURVE",
"494 285 CURVE SMOOTH",
"494 425 OFFCURVE",
"423 512 OFFCURVE",
"283 512 CURVE SMOOTH",
"163 512 OFFCURVE",
"54 450 OFFCURVE",
"54 252 CURVE SMOOTH"
);
}
);
userData = {
com.hugojourdan.ColorFlow = {
"0" = 0;
"1" = 0;
"10" = 0;
"11" = 0;
"2" = 0;
"3" = 0;
"4" = 0;
"5" = 0;
"6" = 0;
"7" = 0;
"8" = 0;
"9" = 0;
};
};
width = 541;
},
{
anchors = (
{
name = bottom;
position = "{307, 0}";
},
{
name = ogonek;
position = "{495, 13}";
},
{
name = top;
position = "{300, 500}";
}
);
layerId = m003;
paths = (
{
closed = 1;
nodes = (
"48 35 OFFCURVE",
"184 -12 OFFCURVE",
"340 -12 CURVE SMOOTH",
"412 -12 OFFCURVE",
"458 -2 OFFCURVE",
"496 13 CURVE",
"496 115 LINE",
"492 117 LINE",
"438 103 OFFCURVE",
"403 100 OFFCURVE",
"353 100 CURVE SMOOTH",
"226 100 OFFCURVE",
"184 119 OFFCURVE",
"184 255 CURVE SMOOTH",
"184 373 OFFCURVE",
"216 402 OFFCURVE",
"286 402 CURVE SMOOTH",
"364 402 OFFCURVE",
"396 366 OFFCURVE",
"396 286 CURVE",
"232 286 LINE",
"142 252 LINE",
"142 197 LINE",
"517 197 LINE",
"521 222 OFFCURVE",
"524 255 OFFCURVE",
"524 283 CURVE SMOOTH",
"524 417 OFFCURVE",
"452 512 OFFCURVE",
"294 512 CURVE SMOOTH",
"156 512 OFFCURVE",
"48 439 OFFCURVE",
"48 249 CURVE SMOOTH"
);
}
);
userData = {
com.hugojourdan.ColorFlow = {
"0" = 0;
"1" = 0;
"10" = 0;
"11" = 0;
"2" = 0;
"3" = 0;
"4" = 0;
"5" = 0;
"6" = 0;
"7" = 0;
"8" = 0;
"9" = 0;
};
};
width = 570;
},
{
anchors = (
{
name = bottom;
position = "{307, 0}";
},
{
name = ogonek;
position = "{495, 13}";
},
{
name = top;
position = "{300, 510}";
}
);
layerId = m004;
paths = (
{
closed = 1;
nodes = (
"48 34 OFFCURVE",
"183 -12 OFFCURVE",
"340 -12 CURVE SMOOTH",
"415 -12 OFFCURVE",
"458 -2 OFFCURVE",
"496 13 CURVE",
"496 115 LINE",
"476 125 LINE",
"427 104 OFFCURVE",
"382 100 OFFCURVE",
"336 100 CURVE SMOOTH",
"223 100 OFFCURVE",
"184 124 OFFCURVE",
"184 263 CURVE SMOOTH",
"184 383 OFFCURVE",
"213 412 OFFCURVE",
"289 412 CURVE SMOOTH",
"374 412 OFFCURVE",
"396 376 OFFCURVE",
"396 296 CURVE",
"232 296 LINE",
"142 232 LINE",
"142 202 LINE",
"517 202 LINE",
"521 237 OFFCURVE",
"524 261 OFFCURVE",
"524 290 CURVE SMOOTH",
"524 427 OFFCURVE",
"454 522 OFFCURVE",
"294 522 CURVE SMOOTH",
"154 522 OFFCURVE",
"48 449 OFFCURVE",
"48 254 CURVE SMOOTH"
);
}
);
userData = {
com.hugojourdan.ColorFlow = {
"0" = 0;
"1" = 0;
"10" = 0;
"11" = 0;
"2" = 0;
"3" = 0;
"4" = 0;
"5" = 0;
"6" = 0;
"7" = 0;
"8" = 0;
"9" = 0;
};
};
width = 570;
}
);
leftKerningGroup = KO_e;
leftMetricsKey = o;
rightKerningGroup = KO_e;
unicode = 0065;
userData = {
KernOnName = e;
};
},
{
glyphname = schwa;
lastChange = "2023-07-24 08:28:06 +0000";
layers = (
{
layerId = "993DDA7B-BC4C-4F4B-ACF9-716C764D536A";
paths = (
{
closed = 1;
nodes = (
"182 522 OFFCURVE",
"124 511 OFFCURVE",
"86 492 CURVE",
"86 414 LINE",
"101 406 LINE",
"129 431 OFFCURVE",
"176 450 OFFCURVE",
"236 450 CURVE SMOOTH",
"330 450 OFFCURVE",
"399 404 OFFCURVE",
"399 254 CURVE SMOOTH",
"399 127 OFFCURVE",
"357 60 OFFCURVE",
"263 60 CURVE SMOOTH",
"172 60 OFFCURVE",
"137 121 OFFCURVE",
"137 219 CURVE",
"352 219 LINE",
"442 263 LINE",
"442 289 LINE",
"59 289 LINE",
"55 269 OFFCURVE",
"52 247 OFFCURVE",
"52 222 CURVE SMOOTH",
"52 72 OFFCURVE",
"139 -12 OFFCURVE",
"260 -12 CURVE SMOOTH",
"366 -12 OFFCURVE",
"486 49 OFFCURVE",
"486 259 CURVE SMOOTH",
"486 456 OFFCURVE",
"369 522 OFFCURVE",
"236 522 CURVE SMOOTH"
);
}
);
userData = {
com.hugojourdan.ColorFlow = {
"0" = 0;
"1" = 0;
"10" = 0;
"11" = 0;
"2" = 0;
"3" = 0;
"4" = 0;
"5" = 0;
"6" = 0;
"7" = 0;
"8" = 0;
"9" = 0;
};
};
width = 540;
},
{
layerId = "C7F1792A-1FE9-4A21-B628-190BF571D00B";
paths = (
{
closed = 1;
nodes = (
"182 512 OFFCURVE",
"124 501 OFFCURVE",
"86 482 CURVE",
"86 404 LINE",
"101 396 LINE",
"129 421 OFFCURVE",
"176 440 OFFCURVE",
"237 440 CURVE SMOOTH",
"331 440 OFFCURVE",
"399 394 OFFCURVE",
"399 251 CURVE SMOOTH",
"399 128 OFFCURVE",
"357 60 OFFCURVE",
"262 60 CURVE SMOOTH",
"172 60 OFFCURVE",
"137 121 OFFCURVE",
"137 219 CURVE",
"352 219 LINE",
"442 243 LINE",
"442 289 LINE",
"59 289 LINE",
"55 269 OFFCURVE",
"52 247 OFFCURVE",
"52 222 CURVE SMOOTH",
"52 72 OFFCURVE",
"139 -12 OFFCURVE",
"260 -12 CURVE SMOOTH",
"366 -12 OFFCURVE",
"486 51 OFFCURVE",
"486 255 CURVE SMOOTH",
"486 448 OFFCURVE",
"368 512 OFFCURVE",
"237 512 CURVE SMOOTH"
);
}
);
userData = {
com.hugojourdan.ColorFlow = {
"0" = 0;
"1" = 0;
"10" = 0;
"11" = 0;
"2" = 0;
"3" = 0;
"4" = 0;
"5" = 0;
"6" = 0;
"7" = 0;
"8" = 0;
"9" = 0;
};
};
width = 540;
},
{
layerId = m003;
paths = (
{
closed = 1;
nodes = (
"161 512 OFFCURVE",
"114 502 OFFCURVE",
"72 487 CURVE",
"72 378 LINE",
"76 376 LINE",
"132 394 OFFCURVE",
"184 400 OFFCURVE",
"228 400 CURVE SMOOTH",
"340 400 OFFCURVE",
"365 362 OFFCURVE",
"365 252 CURVE SMOOTH",
"365 133 OFFCURVE",
"336 98 OFFCURVE",
"266 98 CURVE SMOOTH",
"198 98 OFFCURVE",
"172 132 OFFCURVE",
"172 209 CURVE",
"317 209 LINE",
"407 243 LINE",
"407 297 LINE",
"51 297 LINE",
"47 273 OFFCURVE",
"44 244 OFFCURVE",
"44 217 CURVE SMOOTH",
"44 88 OFFCURVE",
"114 -12 OFFCURVE",
"263 -12 CURVE SMOOTH",
"385 -12 OFFCURVE",
"501 55 OFFCURVE",
"501 249 CURVE SMOOTH",
"501 456 OFFCURVE",
"368 512 OFFCURVE",
"222 512 CURVE SMOOTH"
);
}
);
userData = {
com.hugojourdan.ColorFlow = {
"0" = 0;
"1" = 0;
"10" = 0;
"11" = 0;
"2" = 0;
"3" = 0;
"4" = 0;
"5" = 0;
"6" = 0;
"7" = 0;
"8" = 0;
"9" = 0;
};
};
width = 549;
},
{
layerId = m004;
paths = (
{
closed = 1;
nodes = (
"161 522 OFFCURVE",
"114 512 OFFCURVE",
"72 497 CURVE",
"72 396 LINE",
"92 386 LINE",
"138 404 OFFCURVE",
"184 410 OFFCURVE",
"229 410 CURVE SMOOTH",
"341 410 OFFCURVE",
"365 372 OFFCURVE",
"365 259 CURVE SMOOTH",
"365 132 OFFCURVE",
"335 98 OFFCURVE",
"266 98 CURVE SMOOTH",
"198 98 OFFCURVE",
"172 132 OFFCURVE",
"172 219 CURVE",
"317 219 LINE",
"407 273 LINE",
"407 307 LINE",
"51 307 LINE",
"47 281 OFFCURVE",
"44 252 OFFCURVE",
"44 223 CURVE SMOOTH",
"44 89 OFFCURVE",
"114 -12 OFFCURVE",
"263 -12 CURVE SMOOTH",
"385 -12 OFFCURVE",
"501 57 OFFCURVE",
"501 253 CURVE SMOOTH",
"501 469 OFFCURVE",
"367 522 OFFCURVE",
"223 522 CURVE SMOOTH"
);
}
);
userData = {
com.hugojourdan.ColorFlow = {
"0" = 0;
"1" = 0;
"10" = 0;
"11" = 0;
"2" = 0;
"3" = 0;
"4" = 0;
"5" = 0;
"6" = 0;
"7" = 0;
"8" = 0;
"9" = 0;
};
};
width = 549;
}
);
rightKerningGroup = KO_o;
rightMetricsKey = o;
unicode = 0259;
},
{
glyphname = f;
lastChange = "2023-08-11 09:49:00 +0000";
layers = (
{
layerId = "993DDA7B-BC4C-4F4B-ACF9-716C764D536A";
paths = (
{
closed = 1;
nodes = (
"361 655 LINE",
"361 727 LINE",
"336 736 OFFCURVE",
"308 742 OFFCURVE",
"273 742 CURVE SMOOTH",
"167 742 OFFCURVE",
"114 685 OFFCURVE",
"114 574 CURVE SMOOTH",
"114 80 LINE",
"104 0 LINE",
"208 0 LINE",
"198 80 LINE",
"198 574 LINE SMOOTH",
"198 632 OFFCURVE",
"217 670 OFFCURVE",
"279 670 CURVE SMOOTH",
"299 670 OFFCURVE",
"323 666 OFFCURVE",
"345 645 CURVE"
);
},
{
closed = 1;
nodes = (
"78 440 LINE",
"291 440 LINE",
"341 435 LINE",
"341 510 LINE",
"220 510 LINE",
"156 480 LINE",
"92 510 LINE",
"28 510 LINE",
"28 435 LINE"
);
}
);
userData = {
com.hugojourdan.ColorFlow = {
"0" = 0;
"1" = 0;
"10" = 0;
"11" = 0;
"2" = 0;
"3" = 0;
"4" = 0;
"5" = 0;
"6" = 0;
"7" = 0;
"8" = 0;
"9" = 0;
};
};
width = 381;
},
{
associatedMasterId = "993DDA7B-BC4C-4F4B-ACF9-716C764D536A";
background = {
paths = (
{
closed = 1;
nodes = (
"116 591 CURVE SMOOTH",
"116 78 LINE",
"206 78 LINE",
"200 148 LINE",
"200 585 LINE SMOOTH",
"200 649 OFFCURVE",
"233 670 OFFCURVE",
"289 670 CURVE SMOOTH",
"316 670 OFFCURVE",
"331 665 OFFCURVE",
"348 655 CURVE",
"363 663 LINE",
"363 727 LINE",
"342 738 OFFCURVE",
"311 742 OFFCURVE",
"283 742 CURVE SMOOTH",
"202 742 OFFCURVE",
"116 713 OFFCURVE"
);
},
{
closed = 1;
nodes = (
"30 220 LINE",
"353 220 LINE",
"353 295 LINE",
"303 290 LINE",
"80 290 LINE",
"30 295 LINE"
);
}
);
};
color = 4;
layerId = "EF961BD4-61EE-42C9-A1C2-54B66ABB1328";
name = "21 Aug 22, 13:52";
paths = (
{
closed = 1;
nodes = (
"200 0 LINE",
"190 80 LINE",
"190 573 LINE SMOOTH",
"190 633 OFFCURVE",
"218 667 OFFCURVE",
"274 667 CURVE SMOOTH",
"299 667 OFFCURVE",
"332 660 OFFCURVE",
"364 633 CURVE",
"379 641 LINE",
"379 718 LINE",
"346 734 OFFCURVE",
"311 742 OFFCURVE",
"273 742 CURVE SMOOTH",
"150 742 OFFCURVE",
"106 659 OFFCURVE",
"106 579 CURVE SMOOTH",
"106 80 LINE",
"96 0 LINE"
);
},
{
closed = 1;
nodes = (
"70 440 LINE",
"283 440 LINE",
"333 435 LINE",
"333 510 LINE",
"20 510 LINE",
"20 435 LINE"
);
}
);
width = 344;
},
{
layerId = "C7F1792A-1FE9-4A21-B628-190BF571D00B";
paths = (
{
closed = 1;
nodes = (
"361 655 LINE",
"361 727 LINE",
"336 736 OFFCURVE",
"308 742 OFFCURVE",
"274 742 CURVE SMOOTH",
"167 742 OFFCURVE",
"114 685 OFFCURVE",
"114 574 CURVE SMOOTH",
"114 80 LINE",
"114 0 LINE",
"198 0 LINE",
"198 80 LINE",
"198 574 LINE SMOOTH",
"198 632 OFFCURVE",
"217 670 OFFCURVE",
"289 670 CURVE SMOOTH",
"312 670 OFFCURVE",
"336 666 OFFCURVE",
"357 653 CURVE"
);
},
{
closed = 1;
nodes = (
"78 430 LINE",
"291 430 LINE",
"341 430 LINE",
"341 500 LINE",
"220 500 LINE",
"156 488 LINE",
"92 500 LINE",
"28 500 LINE",
"28 430 LINE"
);
}
);
userData = {
com.hugojourdan.ColorFlow = {
"0" = 0;
"1" = 0;
"10" = 0;
"11" = 0;
"2" = 0;
"3" = 0;
"4" = 0;
"5" = 0;
"6" = 0;
"7" = 0;
"8" = 0;
"9" = 0;
};
};
width = 381;
},
{
layerId = m003;
paths = (
{
closed = 1;
nodes = (
"405 617 LINE",
"405 727 LINE",
"359 739 OFFCURVE",
"322 742 OFFCURVE",
"296 742 CURVE SMOOTH",
"181 742 OFFCURVE",
"108 685 OFFCURVE",
"108 558 CURVE SMOOTH",
"108 80 LINE",
"108 0 LINE",
"242 0 LINE",
"242 80 LINE",
"242 544 LINE SMOOTH",
"242 592 OFFCURVE",
"261 630 OFFCURVE",
"329 630 CURVE SMOOTH",
"348 630 OFFCURVE",
"373 627 OFFCURVE",
"401 615 CURVE"
);
},
{
closed = 1;
nodes = (
"72 386 LINE",
"335 386 LINE",
"385 386 LINE",
"385 500 LINE",
"282 500 LINE",
"174 488 LINE",
"68 500 LINE",
"22 500 LINE",
"22 386 LINE"
);
}
);
userData = {
com.hugojourdan.ColorFlow = {
"0" = 0;
"1" = 0;
"10" = 0;
"11" = 0;
"2" = 0;
"3" = 0;
"4" = 0;
"5" = 0;
"6" = 0;
"7" = 0;
"8" = 0;
"9" = 0;
};
};
width = 405;
},
{
associatedMasterId = m003;
background = {
paths = (
{
closed = 1;
nodes = (
"116 591 CURVE SMOOTH",
"116 78 LINE",
"206 78 LINE",
"200 148 LINE",
"200 585 LINE SMOOTH",
"200 649 OFFCURVE",
"233 670 OFFCURVE",
"289 670 CURVE SMOOTH",
"316 670 OFFCURVE",
"331 665 OFFCURVE",
"348 655 CURVE",
"363 663 LINE",
"363 727 LINE",
"342 738 OFFCURVE",
"311 742 OFFCURVE",
"283 742 CURVE SMOOTH",
"202 742 OFFCURVE",
"116 713 OFFCURVE"
);
},
{
closed = 1;
nodes = (
"30 220 LINE",
"353 220 LINE",
"353 295 LINE",
"303 290 LINE",
"80 290 LINE",
"30 295 LINE"
);
}
);
};
color = 4;
layerId = "0DF97F78-B25E-4360-A361-FC832700C1E9";
name = "21 Aug 22, 13:52";
paths = (
{
closed = 1;
nodes = (
"200 0 LINE",
"190 80 LINE",
"190 573 LINE SMOOTH",
"190 633 OFFCURVE",
"218 667 OFFCURVE",
"274 667 CURVE SMOOTH",
"299 667 OFFCURVE",
"332 660 OFFCURVE",
"364 633 CURVE",
"379 641 LINE",
"379 718 LINE",
"346 734 OFFCURVE",
"311 742 OFFCURVE",
"273 742 CURVE SMOOTH",
"150 742 OFFCURVE",
"106 659 OFFCURVE",
"106 579 CURVE SMOOTH",
"106 80 LINE",
"96 0 LINE"
);
},
{
closed = 1;
nodes = (
"70 440 LINE",
"283 440 LINE",
"333 435 LINE",
"333 510 LINE",
"20 510 LINE",
"20 435 LINE"
);
}
);
width = 344;
},
{
layerId = m004;
paths = (
{
closed = 1;
nodes = (
"405 622 LINE",
"405 727 LINE",
"359 739 OFFCURVE",
"322 742 OFFCURVE",
"296 742 CURVE SMOOTH",
"181 742 OFFCURVE",
"108 685 OFFCURVE",
"108 558 CURVE SMOOTH",
"108 80 LINE",
"98 0 LINE",
"252 0 LINE",
"242 80 LINE",
"242 544 LINE SMOOTH",
"242 591 OFFCURVE",
"261 630 OFFCURVE",
"323 630 CURVE SMOOTH",
"347 630 OFFCURVE",
"366 624 OFFCURVE",
"383 612 CURVE"
);
},
{
closed = 1;
nodes = (
"72 396 LINE",
"335 396 LINE",
"385 391 LINE",
"385 510 LINE",
"282 510 LINE",
"174 480 LINE",
"68 510 LINE",
"22 510 LINE",
"22 391 LINE"
);
}
);
userData = {
com.hugojourdan.ColorFlow = {
"0" = 0;
"1" = 0;
"10" = 0;
"11" = 0;
"2" = 0;
"3" = 0;
"4" = 0;
"5" = 0;
"6" = 0;
"7" = 0;
"8" = 0;
"9" = 0;
};
};
width = 405;
},
{
associatedMasterId = m004;
background = {
paths = (
{
closed = 1;
nodes = (
"116 591 CURVE SMOOTH",
"116 78 LINE",
"206 78 LINE",
"200 148 LINE",
"200 585 LINE SMOOTH",
"200 649 OFFCURVE",
"233 670 OFFCURVE",
"289 670 CURVE SMOOTH",
"316 670 OFFCURVE",
"331 665 OFFCURVE",
"348 655 CURVE",
"363 663 LINE",
"363 727 LINE",
"342 738 OFFCURVE",
"311 742 OFFCURVE",
"283 742 CURVE SMOOTH",
"202 742 OFFCURVE",
"116 713 OFFCURVE"
);
},
{
closed = 1;
nodes = (
"30 220 LINE",
"353 220 LINE",
"353 295 LINE",
"303 290 LINE",
"80 290 LINE",
"30 295 LINE"
);
}
);
};
color = 4;
layerId = "02491C28-4A0E-4DB4-A0C1-6F5BF0049648";
name = "21 Aug 22, 13:52";
paths = (
{
closed = 1;
nodes = (
"200 0 LINE",
"190 80 LINE",
"190 573 LINE SMOOTH",
"190 633 OFFCURVE",
"218 667 OFFCURVE",
"274 667 CURVE SMOOTH",
"299 667 OFFCURVE",
"332 660 OFFCURVE",
"364 633 CURVE",
"379 641 LINE",
"379 718 LINE",
"346 734 OFFCURVE",
"311 742 OFFCURVE",
"273 742 CURVE SMOOTH",
"150 742 OFFCURVE",
"106 659 OFFCURVE",
"106 579 CURVE SMOOTH",
"106 80 LINE",
"96 0 LINE"
);
},
{
closed = 1;
nodes = (
"70 440 LINE",
"283 440 LINE",
"333 435 LINE",
"333 510 LINE",
"20 510 LINE",
"20 435 LINE"
);
}
);
width = 344;
}
);
leftKerningGroup = KO_f;
rightKerningGroup = KO_f;
unicode = 0066;
userData = {
KernOnName = f;
};
},
